<svg width="500" height="500" xmlns="http://www.w3.org/2000/svg">

 <g>
  <title>background</title>
  <rect fill="none" id="canvas_background" height="602" width="802" y="-1" x="-1"/>
 </g>
 <g>
  <title>Layer 1</title>
  <g id="freepik--background-complete--inject-35">
   <path id="svg_1" fill="#a6a6a6" d="m99.4,299.2c-13.68,13.39 -16,34.11 -13.1,52.26c0.08,0.41 0.72,0.3 0.72,-0.09c0,-4.13 -0.13,-8.22 -0.12,-12.3c0.08,-0.19 0.14,-0.37 0.22,-0.55c3.57,-2.6 6.88,-5.52 8.88,-9.52c2.29,-4.5 3.19,-9.56 4.93,-14.26c0.17,-0.45 -0.31,-0.32 -0.63,-0.08c-8.32,6.13 -11,12.74 -13.36,21.56a72.87,72.87 0 0 1 1.45,-13.74c1.8,-8.37 5.35,-16.68 11.37,-22.89a0.25,0.25 0 0 0 -0.36,-0.39z"/>
   <path id="svg_2" fill="#dbdbdb" d="m102,300.76c2.35,0.08 3.83,3.84 5.66,4.94a1.77,1.77 0 0 0 2.6,-0.41c1.82,-2.54 -0.68,-5.67 -3,-7.42c1.68,0.69 3.07,1.9 4.88,2.25a1.71,1.71 0 0 0 2.2,-1.32c0.79,-3.46 -3.54,-5 -6.52,-5.07c1.44,-1 5.58,-3.73 3.38,-5.07s-7.08,2.55 -8.66,3.83c-2.33,1.89 -5.1,4.71 -5.21,7.66c-0.18,3.45 2.83,1.33 4.67,0.61z"/>
   <path id="svg_3" fill="#ebebeb" d="m101.29,301.34c3,-1.37 8.79,0.6 9.28,-0.54c1,-2.32 -3.62,-3.91 -6.12,-4.22c2.3,-0.62 6.7,-1.61 6.57,-3.82c-0.17,-2.71 -6.75,-0.38 -10.09,2.17c-4.19,3.22 -4.17,6.33 -3.47,6.95c0.95,0.85 3.33,-0.32 3.83,-0.54z"/>
   <path id="svg_4" fill="#a6a6a6" d="m68.24,297.87c14.18,12.86 17.27,33.48 15.07,51.73c0,0.41 -0.7,0.33 -0.71,-0.06c-0.16,-4.13 -0.19,-8.23 -0.36,-12.3l-0.23,-0.55c-3.66,-2.45 -7.06,-5.26 -9.24,-9.2c-2.46,-4.4 -3.55,-9.43 -5.47,-14.06c-0.18,-0.44 0.3,-0.33 0.62,-0.11c8.55,5.82 11.46,12.32 14.18,21.05a73.62,73.62 0 0 0 -2,-13.68c-2.12,-8.3 -6,-16.46 -12.24,-22.44c-0.2,-0.25 0.14,-0.61 0.38,-0.38z"/>
   <path id="svg_5" fill="#dbdbdb" d="m65.73,299.53c-2.35,0.17 -3.68,4 -5.47,5.15a1.76,1.76 0 0 1 -2.61,-0.31c-1.91,-2.47 0.46,-5.69 2.74,-7.53c-1.65,0.76 -3,2 -4.79,2.43a1.7,1.7 0 0 1 -2.25,-1.27c-0.93,-3.43 3.35,-5.13 6.32,-5.32c-1.48,-0.94 -5.72,-3.51 -3.57,-4.93s7.17,2.28 8.8,3.5c2.4,1.8 5.28,4.51 5.49,7.46c0.27,3.48 -2.82,1.47 -4.66,0.82z"/>
   <path id="svg_6" fill="#ebebeb" d="m66.43,300.08c-3.05,-1.25 -8.76,0.94 -9.29,-0.18c-1.08,-2.28 3.47,-4 6,-4.45c-2.32,-0.53 -6.75,-1.36 -6.7,-3.57c0.06,-2.71 6.73,-0.64 10.16,1.79c4.31,3.06 4.4,6.16 3.73,6.81c-0.96,0.89 -3.39,-0.19 -3.9,-0.4z"/>
   <path id="svg_7" fill="#a6a6a6" d="m82.74,331.84a139.59,139.59 0 0 0 4.41,20.34a0.51,0.51 0 0 0 1,-0.2c-0.93,-6.26 -2.63,-12.42 -3.56,-18.68a93.45,93.45 0 0 1 -1.09,-19.19c0.59,-10.56 3.46,-21.8 10.35,-30.06c0.16,-0.2 -0.17,-0.47 -0.32,-0.29c-13.8,16.09 -11.6,35.81 -11.59,37.58c-2,-6.66 -4,-14.3 -11.36,-21.08c-0.32,-0.29 -0.57,-0.15 -0.51,0.35c1.31,12.39 4.74,18.8 11.93,25.39c0.18,2 0.43,3.92 0.74,5.84z"/>
   <path id="svg_8" fill="#dbdbdb" d="m94,285.9c2.48,-1.1 5.91,2.06 8.36,2.27a2,2 0 0 0 2.49,-1.73c0.61,-3.55 -3.55,-5.54 -6.87,-6.17c2.09,-0.13 4.14,0.42 6.19,-0.13a2,2 0 0 0 1.62,-2.48c-0.91,-4 -6.19,-3.4 -9.31,-2c1,-1.77 3.91,-6.68 1,-7s-6.06,6.21 -7.05,8.34c-1.47,3.13 -2.93,7.46 -1.55,10.57c1.52,3.71 3.57,-0.01 5.12,-1.67z"/>
   <path id="svg_9" fill="#ebebeb" d="m93.55,286.84c2.44,-2.93 9.43,-3.8 9.36,-5.23c-0.13,-2.9 -5.72,-2.23 -8.46,-1.29c2.06,-1.8 6.13,-5.05 4.88,-7.28c-1.54,-2.72 -7.2,3 -9.37,7.34c-2.73,5.45 -1.14,8.66 -0.11,8.95c1.42,0.41 3.3,-2 3.7,-2.49z"/>
   <path id="svg_10" fill="#dbdbdb" d="m73.66,335.56l-6.08,46.5l37,0c-0.76,-4.12 -7.65,-46.55 -7.65,-46.55l-23.27,0.05z"/>
   <rect id="svg_11" fill="#ebebeb" transform="rotate(180, 896.07, 388.07)" height="11.19" width="26.48" y="576.51001" x="1330.86001"/>
   <rect id="svg_12" fill="#ebebeb" transform="rotate(180, 925.61, 359.85)" height="11.19" width="26.48" y="534.18001" x="1375.16999"/>
   <rect id="svg_13" fill="#ebebeb" transform="rotate(180, 866.52, 359.85)" height="11.19" width="26.48" y="534.18001" x="1286.54002"/>
   <rect id="svg_14" fill="#ebebeb" transform="rotate(180, 103.93, 676.71)" height="11.19" width="26.48" y="1009.47002" x="142.66"/>
   <rect id="svg_15" fill="#ebebeb" transform="rotate(180, 74.39, 648.49)" height="11.19" width="26.48" y="967.13999" x="98.35"/>
   <rect id="svg_16" fill="#ebebeb" transform="rotate(180, 925.61, 676.69)" height="11.19" width="26.48" y="1009.44" x="1375.16999"/>
   <rect id="svg_17" fill="#ebebeb" height="11.19" width="26.48" y="95.26" x="112.43"/>
   <rect id="svg_18" fill="#ebebeb" height="11.19" width="26.48" y="109.37" x="97.65"/>
  </g>
  <g id="freepik--Table--inject-35">
   <polygon id="svg_19" fill="#263238" points="57.95 382.02 105.96 381.78 153.97 381.69 250 381.52 346.02 381.69 394.04 381.78 442.05 382.02 394.04 382.27 346.02 382.35 250 382.52 153.97 382.35 105.96 382.26 57.95 382.02"/>
  </g>
  <g id="freepik--error-404--inject-35">
   <path id="svg_20" fill="#5F76E8" d="m173.4,239.88l0,0a9.17,9.17 0 0 0 -0.82,-0.83l0,0a10.7,10.7 0 0 0 -0.83,-0.82s0,0 0,0a10.7,10.7 0 0 0 -0.82,-0.83l0,0a9.17,9.17 0 0 0 -0.83,-0.82l0,0c-0.26,-0.29 -0.54,-0.57 -0.82,-0.83l0,0a7.93,7.93 0 0 0 -0.82,-0.82l0,0a10.83,10.83 0 0 0 -0.83,-0.83l0,0a7.93,7.93 0 0 0 -0.82,-0.82s0,0 0,0a10.7,10.7 0 0 0 -0.83,-0.82s0,0 0,0a11.93,11.93 0 0 0 -2.93,-2.35l0,-82.64c0,-0.44 -0.21,-0.66 -0.21,-1.1a2.35,2.35 0 0 0 -0.22,-1.31c0,-0.22 -0.21,-0.66 -0.21,-0.88a10.41,10.41 0 0 0 -0.45,-1.32a1.61,1.61 0 0 1 -0.43,-0.88a6.28,6.28 0 0 0 -0.88,-1.09c-0.23,-0.22 -0.44,-0.65 -0.66,-0.88l-0.88,-0.88c0,-0.13 -0.17,-0.27 -0.36,-0.35l-0.43,-0.44l-0.05,0c0,-0.14 -0.16,-0.27 -0.35,-0.36l-0.44,-0.43l0,0c0,-0.13 -0.17,-0.27 -0.36,-0.36l-0.43,-0.43l0,0c0,-0.14 -0.17,-0.27 -0.36,-0.36l-0.43,-0.44l0,0c0,-0.13 -0.17,-0.27 -0.36,-0.36l-0.44,-0.43l0,-0.05c0,-0.13 -0.17,-0.26 -0.36,-0.35l-0.43,-0.44l-0.05,0c0,-0.13 -0.16,-0.27 -0.35,-0.36l-0.44,-0.43l0,-0.05c0,-0.13 -0.17,-0.26 -0.36,-0.35l-0.43,-0.44l-0.05,0c0,-0.14 -0.16,-0.27 -0.35,-0.36l-0.44,-0.43l0,0c0,-0.13 -0.17,-0.27 -0.36,-0.35l-0.48,-0.48c0,-0.22 -0.43,-0.44 -0.66,-0.44a0.21,0.21 0 0 0 -0.21,-0.22c-0.44,-0.21 -0.67,-0.44 -1.1,-0.66a13.54,13.54 0 0 1 -1.09,-0.88c-0.22,0 -0.66,-0.21 -0.88,-0.21c-0.44,-0.22 -1.1,-0.22 -1.32,-0.45a2.1,2.1 0 0 1 -1.1,-0.21l-3.72,0a1.37,1.37 0 0 1 -0.88,0.21c-0.66,0.23 -1.09,0.23 -1.32,0.45c-0.43,0 -0.65,0.21 -0.88,0.66a2.38,2.38 0 0 0 -1.31,0.43c-0.21,0.22 -0.66,0.45 -0.88,0.66a2.25,2.25 0 0 1 -1.09,0.66a3,3 0 0 1 -0.66,0.88c-0.22,0.22 -0.22,0.43 -0.43,0.43l-81.47,100.61a11.71,11.71 0 0 0 1.09,16.13a7.4,7.4 0 0 0 0.84,0.84a6.51,6.51 0 0 0 0.83,0.83a7.4,7.4 0 0 0 0.84,0.84a7.31,7.31 0 0 0 0.83,0.84a7.31,7.31 0 0 0 0.84,0.83a7.31,7.31 0 0 0 0.83,0.84a7.31,7.31 0 0 0 0.84,0.83a7.31,7.31 0 0 0 0.83,0.84a7.31,7.31 0 0 0 0.84,0.83a11.38,11.38 0 0 0 1.72,1.59a10.75,10.75 0 0 0 7.45,2.63l60.72,0l0,8.31a12,12 0 0 0 3.92,9l0,0c0.26,0.28 0.53,0.55 0.8,0.8c0,0 0,0 0,0a10.32,10.32 0 0 0 0.81,0.81l0,0c0.26,0.28 0.53,0.55 0.81,0.8l0,0a10.32,10.32 0 0 0 0.81,0.81l0,0q0.39,0.42 0.81,0.81l0,0a8.85,8.85 0 0 0 0.81,0.81l0,0c0.25,0.28 0.52,0.55 0.8,0.81l0,0a10.32,10.32 0 0 0 0.81,0.81l0,0c0.25,0.27 0.52,0.54 0.8,0.8l0,0a12.11,12.11 0 0 0 21,-8.19l0,-16.42l2.2,0a12.07,12.07 0 0 0 12.27,-12.06a12,12 0 0 0 -3.75,-8.89zm-42.92,-47l0,35.44l-28.56,0l28.56,-35.44z"/>
   <path id="svg_21" opacity="0.1" d="m173.4,239.88l0,0a9.17,9.17 0 0 0 -0.82,-0.83l0,0a10.7,10.7 0 0 0 -0.83,-0.82s0,0 0,0a10.7,10.7 0 0 0 -0.82,-0.83l0,0a9.17,9.17 0 0 0 -0.83,-0.82l0,0c-0.26,-0.29 -0.54,-0.57 -0.82,-0.83l0,0a7.93,7.93 0 0 0 -0.82,-0.82l0,0a10.83,10.83 0 0 0 -0.83,-0.83l0,0a7.93,7.93 0 0 0 -0.82,-0.82s0,0 0,0a10.7,10.7 0 0 0 -0.83,-0.82s0,0 0,0a11.93,11.93 0 0 0 -2.93,-2.35l0,-82.64c0,-0.44 -0.21,-0.66 -0.21,-1.1a2.35,2.35 0 0 0 -0.22,-1.31c0,-0.22 -0.21,-0.66 -0.21,-0.88a10.41,10.41 0 0 0 -0.45,-1.32a1.61,1.61 0 0 1 -0.43,-0.88a6.28,6.28 0 0 0 -0.88,-1.09c-0.23,-0.22 -0.44,-0.65 -0.66,-0.88l-0.88,-0.88c0,-0.13 -0.17,-0.27 -0.36,-0.35l-0.43,-0.44l-0.05,0c0,-0.14 -0.16,-0.27 -0.35,-0.36l-0.44,-0.43l0,0c0,-0.13 -0.17,-0.27 -0.36,-0.36l-0.43,-0.43l0,0c0,-0.14 -0.17,-0.27 -0.36,-0.36l-0.43,-0.44l0,0c0,-0.13 -0.17,-0.27 -0.36,-0.36l-0.44,-0.43l0,-0.05c0,-0.13 -0.17,-0.26 -0.36,-0.35l-0.43,-0.44l-0.05,0c0,-0.13 -0.16,-0.27 -0.35,-0.36l-0.44,-0.43l0,-0.05c0,-0.13 -0.17,-0.26 -0.36,-0.35l-0.43,-0.44l-0.05,0c0,-0.14 -0.16,-0.27 -0.35,-0.36l-0.44,-0.43l0,0c0,-0.13 -0.17,-0.27 -0.36,-0.35l-0.48,-0.48c0,-0.22 -0.43,-0.44 -0.66,-0.44a0.21,0.21 0 0 0 -0.21,-0.22c-0.44,-0.21 -0.67,-0.44 -1.1,-0.66a13.54,13.54 0 0 1 -1.09,-0.88c-0.22,0 -0.66,-0.21 -0.88,-0.21c-0.44,-0.22 -1.1,-0.22 -1.32,-0.45a2.1,2.1 0 0 1 -1.1,-0.21l-3.72,0a1.37,1.37 0 0 1 -0.88,0.21c-0.66,0.23 -1.09,0.23 -1.32,0.45c-0.43,0 -0.65,0.21 -0.88,0.66a2.38,2.38 0 0 0 -1.31,0.43c-0.21,0.22 -0.66,0.45 -0.88,0.66a2.25,2.25 0 0 1 -1.09,0.66a3,3 0 0 1 -0.66,0.88c-0.22,0.22 -0.22,0.43 -0.43,0.43l-81.47,100.61a11.71,11.71 0 0 0 1.09,16.13a7.4,7.4 0 0 0 0.84,0.84a6.51,6.51 0 0 0 0.83,0.83a7.4,7.4 0 0 0 0.84,0.84a7.31,7.31 0 0 0 0.83,0.84a7.31,7.31 0 0 0 0.84,0.83a7.31,7.31 0 0 0 0.83,0.84a7.31,7.31 0 0 0 0.84,0.83a7.31,7.31 0 0 0 0.83,0.84a7.31,7.31 0 0 0 0.84,0.83a11.38,11.38 0 0 0 1.72,1.59a10.75,10.75 0 0 0 7.45,2.63l60.72,0l0,8.31a12,12 0 0 0 3.92,9l0,0c0.26,0.28 0.53,0.55 0.8,0.8c0,0 0,0 0,0a10.32,10.32 0 0 0 0.81,0.81l0,0c0.26,0.28 0.53,0.55 0.81,0.8l0,0a10.32,10.32 0 0 0 0.81,0.81l0,0q0.39,0.42 0.81,0.81l0,0a8.85,8.85 0 0 0 0.81,0.81l0,0c0.25,0.28 0.52,0.55 0.8,0.81l0,0a10.32,10.32 0 0 0 0.81,0.81l0,0c0.25,0.27 0.52,0.54 0.8,0.8l0,0a12.11,12.11 0 0 0 21,-8.19l0,-16.42l2.2,0a12.07,12.07 0 0 0 12.27,-12.06a12,12 0 0 0 -3.75,-8.89zm-42.92,-47l0,35.44l-28.56,0l28.56,-35.44z"/>
   <path id="svg_22" fill="#5F76E8" d="m169.06,240.41a12.07,12.07 0 0 1 -12.28,12.06l-2.19,0l0,16.67a12.06,12.06 0 0 1 -24.12,0l0,-16.67l-69.07,0a10.71,10.71 0 0 1 -7.4,-2.63a11.73,11.73 0 0 1 -2,-16.84l81.1,-100.91c0.22,0 0.22,-0.21 0.44,-0.43a3,3 0 0 0 0.66,-0.88a2.35,2.35 0 0 0 1.1,-0.66c0.21,-0.22 0.65,-0.44 0.87,-0.66a2.36,2.36 0 0 1 1.32,-0.44c0.22,-0.43 0.44,-0.65 0.88,-0.65c0.21,-0.22 0.65,-0.22 1.31,-0.44a1.32,1.32 0 0 0 0.88,-0.22l3.73,0a1.93,1.93 0 0 0 1.09,0.22c0.22,0.22 0.88,0.22 1.32,0.44c0.22,0 0.66,0.22 0.88,0.22c0.43,0.43 0.87,0.65 1.09,0.87c0.44,0.22 0.66,0.44 1.1,0.66a0.22,0.22 0 0 1 0.22,0.22c0.22,0 0.66,0.22 0.66,0.44l0.87,0.88c0.22,0.22 0.44,0.65 0.66,0.87a6,6 0 0 1 0.88,1.1a1.67,1.67 0 0 0 0.44,0.88a8,8 0 0 1 0.43,1.31c0,0.22 0.22,0.66 0.22,0.88a2.38,2.38 0 0 1 0.22,1.32c0,0.43 0.22,0.65 0.22,1.09l0,89.24l2.19,0a12.22,12.22 0 0 1 12.28,12.06zm-38.59,-66.22l-43.63,54.16l43.63,0l0,-54.16z"/>
   <path id="svg_23" fill="#5F76E8" d="m297.33,160.4a62.28,62.28 0 0 0 -8.58,-10.4a4.4,4.4 0 0 0 -0.38,-0.37l-0.11,-0.11c-0.1,-0.11 -0.2,-0.22 -0.31,-0.32c-0.28,-0.3 -0.58,-0.58 -0.87,-0.87l-0.08,-0.07l-0.3,-0.3a1.14,1.14 0 0 0 -0.11,-0.11c-0.1,-0.11 -0.2,-0.22 -0.31,-0.32c-0.28,-0.3 -0.58,-0.58 -0.87,-0.87l-0.08,-0.07l-0.3,-0.3l-0.11,-0.11c-0.1,-0.11 -0.2,-0.22 -0.31,-0.32c-0.28,-0.3 -0.58,-0.58 -0.87,-0.87l-0.08,-0.07l-0.3,-0.3s-0.07,-0.08 -0.11,-0.11a3.22,3.22 0 0 0 -0.32,-0.32c-0.27,-0.31 -0.57,-0.58 -0.86,-0.87l-0.08,-0.07a2.83,2.83 0 0 0 -0.3,-0.3s-0.07,-0.08 -0.11,-0.11c-8.81,-9.08 -20.29,-15.09 -33.17,-15.09c-17.33,0 -31.57,10.31 -40.79,24.33c-9.65,14 -14.68,32.25 -14.9,52.41c0.22,20 5.25,38.37 14.9,52.41a65.26,65.26 0 0 0 8.49,10.29l0.44,0.43l0,0.05l0.78,0.78c0.13,0.15 0.27,0.28 0.4,0.41l0.44,0.43l0.05,0.05l0.78,0.78l0.4,0.42l0.44,0.42a0.12,0.12 0 0 1 0.05,0.05l0.78,0.78l0.4,0.42l0.44,0.42a0.1,0.1 0 0 1 0.05,0.06l0.78,0.78l0.41,0.41l0.43,0.42l0.06,0.06l0.78,0.78c8.66,8.65 19.84,14.46 32.69,14.46c16.88,0 31.35,-10.53 40.57,-24.35c9.42,-14 14.69,-32.45 14.69,-52.4c0.03,-20.21 -5.22,-38.41 -14.64,-52.45zm-28.53,82.87c-6.36,9.42 -13.6,13.59 -20.39,13.59a20.15,20.15 0 0 1 -11.57,-4c-0.31,-0.4 -0.61,-0.82 -0.91,-1.26c-6.14,-9.21 -10.53,-23.24 -10.53,-38.81c0,-15.79 4.39,-29.6 10.53,-39c6.59,-9.21 14,-13.59 20.83,-13.38a18.35,18.35 0 0 1 11,3.6c0.35,0.47 0.69,0.93 1,1.42c6.14,9.43 10.52,23.24 10.52,39c0.04,15.57 -4.34,29.62 -10.48,38.84z"/>
   <path id="svg_24" opacity="0.1" d="m297.33,160.4a62.28,62.28 0 0 0 -8.58,-10.4a4.4,4.4 0 0 0 -0.38,-0.37l-0.11,-0.11c-0.1,-0.11 -0.2,-0.22 -0.31,-0.32c-0.28,-0.3 -0.58,-0.58 -0.87,-0.87l-0.08,-0.07l-0.3,-0.3a1.14,1.14 0 0 0 -0.11,-0.11c-0.1,-0.11 -0.2,-0.22 -0.31,-0.32c-0.28,-0.3 -0.58,-0.58 -0.87,-0.87l-0.08,-0.07l-0.3,-0.3l-0.11,-0.11c-0.1,-0.11 -0.2,-0.22 -0.31,-0.32c-0.28,-0.3 -0.58,-0.58 -0.87,-0.87l-0.08,-0.07l-0.3,-0.3s-0.07,-0.08 -0.11,-0.11a3.22,3.22 0 0 0 -0.32,-0.32c-0.27,-0.31 -0.57,-0.58 -0.86,-0.87l-0.08,-0.07a2.83,2.83 0 0 0 -0.3,-0.3s-0.07,-0.08 -0.11,-0.11c-8.81,-9.08 -20.29,-15.09 -33.17,-15.09c-17.33,0 -31.57,10.31 -40.79,24.33c-9.65,14 -14.68,32.25 -14.9,52.41c0.22,20 5.25,38.37 14.9,52.41a65.26,65.26 0 0 0 8.49,10.29l0.44,0.43l0,0.05l0.78,0.78c0.13,0.15 0.27,0.28 0.4,0.41l0.44,0.43l0.05,0.05l0.78,0.78l0.4,0.42l0.44,0.42a0.12,0.12 0 0 1 0.05,0.05l0.78,0.78l0.4,0.42l0.44,0.42a0.1,0.1 0 0 1 0.05,0.06l0.78,0.78l0.41,0.41l0.43,0.42l0.06,0.06l0.78,0.78c8.66,8.65 19.84,14.46 32.69,14.46c16.88,0 31.35,-10.53 40.57,-24.35c9.42,-14 14.69,-32.45 14.69,-52.4c0.03,-20.21 -5.22,-38.41 -14.64,-52.45zm-28.53,82.87c-6.36,9.42 -13.6,13.59 -20.39,13.59a20.15,20.15 0 0 1 -11.57,-4c-0.31,-0.4 -0.61,-0.82 -0.91,-1.26c-6.14,-9.21 -10.53,-23.24 -10.53,-38.81c0,-15.79 4.39,-29.6 10.53,-39c6.59,-9.21 14,-13.59 20.83,-13.38a18.35,18.35 0 0 1 11,3.6c0.35,0.47 0.69,0.93 1,1.42c6.14,9.43 10.52,23.24 10.52,39c0.04,15.57 -4.34,29.62 -10.48,38.84z"/>
   <path id="svg_25" fill="#5F76E8" d="m192.71,204.45c0.22,-20.17 5.27,-38.37 14.91,-52.4c9.21,-14 23.46,-24.34 40.79,-24.34c16.88,0 31.35,10.31 40.56,24.34c9.43,14 14.69,32.23 14.69,52.4c0,20 -5.26,38.38 -14.69,52.41c-9.21,13.81 -23.68,24.34 -40.56,24.34c-17.33,0 -31.58,-10.53 -40.79,-24.34c-9.62,-14.03 -14.69,-32.45 -14.91,-52.41zm86.61,0c0,-15.78 -4.38,-29.6 -10.52,-39c-6.36,-9.21 -13.59,-13.59 -20.39,-13.37c-6.8,-0.22 -14.26,4.16 -20.83,13.37c-6.14,9.43 -10.53,23.25 -10.53,39c0,15.57 4.39,29.61 10.53,38.81c6.57,9.43 14,13.6 20.83,13.6s14,-4.17 20.39,-13.6c6.14,-9.2 10.52,-23.26 10.52,-38.81z"/>
   <path id="svg_26" fill="#5F76E8" d="m446.71,239.88l0,0c-0.26,-0.29 -0.54,-0.57 -0.82,-0.83l0,0c-0.27,-0.29 -0.55,-0.56 -0.83,-0.82c0,0 0,0 0,0c-0.27,-0.29 -0.54,-0.57 -0.82,-0.83l0,0c-0.27,-0.29 -0.55,-0.57 -0.83,-0.82l0,0c-0.27,-0.29 -0.54,-0.57 -0.82,-0.83l0,0c-0.27,-0.29 -0.55,-0.57 -0.83,-0.82l0,0c-0.27,-0.29 -0.55,-0.57 -0.82,-0.83l0,0a10.57,10.57 0 0 0 -0.82,-0.82s0,0 0,0c-0.27,-0.29 -0.55,-0.56 -0.83,-0.82c0,0 0,0 0,0a11.75,11.75 0 0 0 -2.94,-2.35l0,-82.64c0,-0.44 -0.21,-0.66 -0.21,-1.1a2.35,2.35 0 0 0 -0.22,-1.31c0,-0.22 -0.21,-0.66 -0.21,-0.88a10.41,10.41 0 0 0 -0.45,-1.32a1.69,1.69 0 0 1 -0.43,-0.88a5.83,5.83 0 0 0 -0.88,-1.09c-0.23,-0.22 -0.44,-0.65 -0.66,-0.88l-0.88,-0.88c0,-0.13 -0.17,-0.27 -0.36,-0.35l-0.43,-0.44l-0.05,0c0,-0.14 -0.16,-0.27 -0.35,-0.36l-0.44,-0.43l0,0c0,-0.13 -0.17,-0.27 -0.36,-0.36l-0.43,-0.43l0,0c0,-0.14 -0.17,-0.27 -0.36,-0.36l-0.43,-0.44l0,0c0,-0.13 -0.17,-0.27 -0.36,-0.36l-0.44,-0.43l0,-0.05c0,-0.13 -0.17,-0.26 -0.36,-0.35l-0.43,-0.44l-0.05,0c0,-0.13 -0.16,-0.27 -0.35,-0.36l-0.44,-0.43l0,-0.05c0,-0.13 -0.17,-0.26 -0.36,-0.35l-0.43,-0.44l-0.05,0c0,-0.14 -0.16,-0.27 -0.35,-0.36l-0.44,-0.43l0,0c0,-0.13 -0.17,-0.27 -0.36,-0.35l-0.48,-0.48c0,-0.22 -0.43,-0.44 -0.66,-0.44a0.22,0.22 0 0 0 -0.22,-0.22c-0.43,-0.21 -0.66,-0.44 -1.09,-0.66a13.54,13.54 0 0 1 -1.09,-0.88c-0.22,0 -0.66,-0.21 -0.88,-0.21c-0.44,-0.22 -1.09,-0.22 -1.32,-0.45a2.08,2.08 0 0 1 -1.1,-0.21l-3.72,0a1.37,1.37 0 0 1 -0.88,0.21c-0.66,0.23 -1.09,0.23 -1.32,0.45c-0.43,0 -0.65,0.21 -0.88,0.66a2.4,2.4 0 0 0 -1.31,0.43c-0.21,0.22 -0.66,0.45 -0.87,0.66a2.35,2.35 0 0 1 -1.1,0.66a3.18,3.18 0 0 1 -0.66,0.88c-0.22,0.22 -0.22,0.43 -0.43,0.43l-81.49,100.61a11.71,11.71 0 0 0 1.09,16.13a7.4,7.4 0 0 0 0.84,0.84a6.51,6.51 0 0 0 0.83,0.83a7.4,7.4 0 0 0 0.84,0.84a295.81,295.81 0 0 1 2.5,2.51a98.61,98.61 0 0 1 1.67,1.67a7.31,7.31 0 0 0 0.84,0.83a11.38,11.38 0 0 0 1.72,1.59a10.75,10.75 0 0 0 7.45,2.63l60.72,0l0,8.31a12,12 0 0 0 3.92,9s0,0 0,0c0.26,0.29 0.54,0.56 0.81,0.81l0,0c0.25,0.28 0.52,0.54 0.8,0.8l0,0a10.42,10.42 0 0 0 0.82,0.81l0,0c0.26,0.28 0.52,0.54 0.8,0.8l0,0c0.26,0.29 0.54,0.56 0.82,0.82l0,0c0.26,0.28 0.52,0.55 0.8,0.8l0,0c0.26,0.29 0.54,0.56 0.82,0.82l0,0c0.26,0.28 0.52,0.55 0.8,0.8l0,0a10.45,10.45 0 0 0 0.81,0.82l0,0a12.11,12.11 0 0 0 21,-8.2l0,-16.43l2.2,0a12.08,12.08 0 0 0 12.29,-12.06a12,12 0 0 0 -3.76,-8.89zm-42.93,-47l0,35.44l-28.56,0l28.56,-35.44z"/>
   <path id="svg_27" opacity="0.1" d="m446.71,239.88l0,0c-0.26,-0.29 -0.54,-0.57 -0.82,-0.83l0,0c-0.27,-0.29 -0.55,-0.56 -0.83,-0.82c0,0 0,0 0,0c-0.27,-0.29 -0.54,-0.57 -0.82,-0.83l0,0c-0.27,-0.29 -0.55,-0.57 -0.83,-0.82l0,0c-0.27,-0.29 -0.54,-0.57 -0.82,-0.83l0,0c-0.27,-0.29 -0.55,-0.57 -0.83,-0.82l0,0c-0.27,-0.29 -0.55,-0.57 -0.82,-0.83l0,0a10.57,10.57 0 0 0 -0.82,-0.82s0,0 0,0c-0.27,-0.29 -0.55,-0.56 -0.83,-0.82c0,0 0,0 0,0a11.75,11.75 0 0 0 -2.94,-2.35l0,-82.64c0,-0.44 -0.21,-0.66 -0.21,-1.1a2.35,2.35 0 0 0 -0.22,-1.31c0,-0.22 -0.21,-0.66 -0.21,-0.88a10.41,10.41 0 0 0 -0.45,-1.32a1.69,1.69 0 0 1 -0.43,-0.88a5.83,5.83 0 0 0 -0.88,-1.09c-0.23,-0.22 -0.44,-0.65 -0.66,-0.88l-0.88,-0.88c0,-0.13 -0.17,-0.27 -0.36,-0.35l-0.43,-0.44l-0.05,0c0,-0.14 -0.16,-0.27 -0.35,-0.36l-0.44,-0.43l0,0c0,-0.13 -0.17,-0.27 -0.36,-0.36l-0.43,-0.43l0,0c0,-0.14 -0.17,-0.27 -0.36,-0.36l-0.43,-0.44l0,0c0,-0.13 -0.17,-0.27 -0.36,-0.36l-0.44,-0.43l0,-0.05c0,-0.13 -0.17,-0.26 -0.36,-0.35l-0.43,-0.44l-0.05,0c0,-0.13 -0.16,-0.27 -0.35,-0.36l-0.44,-0.43l0,-0.05c0,-0.13 -0.17,-0.26 -0.36,-0.35l-0.43,-0.44l-0.05,0c0,-0.14 -0.16,-0.27 -0.35,-0.36l-0.44,-0.43l0,0c0,-0.13 -0.17,-0.27 -0.36,-0.35l-0.48,-0.48c0,-0.22 -0.43,-0.44 -0.66,-0.44a0.22,0.22 0 0 0 -0.22,-0.22c-0.43,-0.21 -0.66,-0.44 -1.09,-0.66a13.54,13.54 0 0 1 -1.09,-0.88c-0.22,0 -0.66,-0.21 -0.88,-0.21c-0.44,-0.22 -1.09,-0.22 -1.32,-0.45a2.08,2.08 0 0 1 -1.1,-0.21l-3.72,0a1.37,1.37 0 0 1 -0.88,0.21c-0.66,0.23 -1.09,0.23 -1.32,0.45c-0.43,0 -0.65,0.21 -0.88,0.66a2.4,2.4 0 0 0 -1.31,0.43c-0.21,0.22 -0.66,0.45 -0.87,0.66a2.35,2.35 0 0 1 -1.1,0.66a3.18,3.18 0 0 1 -0.66,0.88c-0.22,0.22 -0.22,0.43 -0.43,0.43l-81.49,100.61a11.71,11.71 0 0 0 1.09,16.13a7.4,7.4 0 0 0 0.84,0.84a6.51,6.51 0 0 0 0.83,0.83a7.4,7.4 0 0 0 0.84,0.84a295.81,295.81 0 0 1 2.5,2.51a98.61,98.61 0 0 1 1.67,1.67a7.31,7.31 0 0 0 0.84,0.83a11.38,11.38 0 0 0 1.72,1.59a10.75,10.75 0 0 0 7.45,2.63l60.72,0l0,8.31a12,12 0 0 0 3.92,9s0,0 0,0c0.26,0.29 0.54,0.56 0.81,0.81l0,0c0.25,0.28 0.52,0.54 0.8,0.8l0,0a10.42,10.42 0 0 0 0.82,0.81l0,0c0.26,0.28 0.52,0.54 0.8,0.8l0,0c0.26,0.29 0.54,0.56 0.82,0.82l0,0c0.26,0.28 0.52,0.55 0.8,0.8l0,0c0.26,0.29 0.54,0.56 0.82,0.82l0,0c0.26,0.28 0.52,0.55 0.8,0.8l0,0a10.45,10.45 0 0 0 0.81,0.82l0,0a12.11,12.11 0 0 0 21,-8.2l0,-16.43l2.2,0a12.08,12.08 0 0 0 12.29,-12.06a12,12 0 0 0 -3.76,-8.89zm-42.93,-47l0,35.44l-28.56,0l28.56,-35.44z"/>
   <path id="svg_28" fill="#5F76E8" d="m442.36,240.41a12.07,12.07 0 0 1 -12.28,12.06l-2.19,0l0,16.67a12.06,12.06 0 0 1 -24.12,0l0,-16.67l-69.07,0a10.71,10.71 0 0 1 -7.45,-2.63a11.73,11.73 0 0 1 -2,-16.88l81.15,-100.87c0.22,0 0.22,-0.21 0.44,-0.43a3,3 0 0 0 0.66,-0.88a2.35,2.35 0 0 0 1.1,-0.66c0.22,-0.22 0.66,-0.44 0.88,-0.66a2.3,2.3 0 0 1 1.31,-0.44c0.22,-0.43 0.44,-0.65 0.87,-0.65c0.22,-0.22 0.66,-0.22 1.32,-0.44a1.32,1.32 0 0 0 0.88,-0.22l3.73,0a1.93,1.93 0 0 0 1.09,0.22c0.22,0.22 0.88,0.22 1.32,0.44c0.22,0 0.66,0.22 0.88,0.22c0.44,0.43 0.87,0.65 1.09,0.87c0.44,0.22 0.66,0.44 1.1,0.66a0.22,0.22 0 0 1 0.22,0.22c0.22,0 0.65,0.22 0.65,0.44l0.88,0.88c0.22,0.22 0.44,0.65 0.66,0.87a6,6 0 0 1 0.88,1.1a1.67,1.67 0 0 0 0.44,0.88a9,9 0 0 1 0.44,1.31c0,0.22 0.21,0.66 0.21,0.88a2.38,2.38 0 0 1 0.22,1.32c0,0.43 0.22,0.65 0.22,1.09l0,89.24l2.19,0a12.22,12.22 0 0 1 12.28,12.06zm-38.59,-66.22l-43.63,54.16l43.63,0l0,-54.16z"/>
   <path id="svg_29" fill="#263238" d="m167.49,103.68l-2.49,0l0,4.32a1.11,1.11 0 0 1 -2.22,0l0,-11.78a1.1,1.1 0 0 1 1.1,-1.1l3.58,0a4.28,4.28 0 1 1 0,8.56l0.03,0zm-2.49,-2.22l2.46,0a2.06,2.06 0 1 0 0,-4.12l-2.46,0l0,4.12z"/>
   <path id="svg_30" fill="#263238" d="m180.21,105.83l-4.86,0l-1,2.6a1.12,1.12 0 0 1 -1,0.7a1.16,1.16 0 0 1 -0.38,-0.06a1.13,1.13 0 0 1 -0.66,-1.44l4.42,-11.79a1.12,1.12 0 0 1 1.06,-0.7a1.1,1.1 0 0 1 1.06,0.7l4.42,11.79a1.13,1.13 0 0 1 -0.66,1.44a1.12,1.12 0 0 1 -1.4,-0.64l-1,-2.6zm-0.82,-2.2l-1.62,-4.31l-1.62,4.31l3.24,0z"/>
   <path id="svg_31" fill="#263238" d="m184.73,101.94a7.29,7.29 0 0 1 7.38,-7.22a7.39,7.39 0 0 1 4.56,1.56a1.15,1.15 0 0 1 0.22,1.62a1.16,1.16 0 0 1 -1.62,0.18a5.2,5.2 0 0 0 -3.16,-1.08a5,5 0 0 0 -3.6,1.46a4.75,4.75 0 0 0 0,6.93a5,5 0 0 0 3.6,1.46a5.52,5.52 0 0 0 2.74,-0.76l0,-2.75l-2.85,0a1.15,1.15 0 0 1 -1.14,-1.14a1.12,1.12 0 0 1 1.14,-1.12l4,0a1.13,1.13 0 0 1 1.16,1.12l0,4.43a1.72,1.72 0 0 1 -0.06,0.34s0,0.06 0,0.1l0,0a1,1 0 0 1 -0.38,0.48a7.38,7.38 0 0 1 -4.54,1.56a7.27,7.27 0 0 1 -7.45,-7.17z"/>
   <path id="svg_32" fill="#263238" d="m201.63,108l0,-11.78a1.08,1.08 0 0 1 1.1,-1.1l6.54,0a1.11,1.11 0 0 1 1.1,1.1a1.13,1.13 0 0 1 -1.1,1.12l-5.42,0l0,3.66l4.66,0a1.11,1.11 0 0 1 0,2.22l-4.66,0l0,3.69l5.42,0a1.11,1.11 0 0 1 0,2.22l-6.48,0s0,0 0,0l0,0a1.1,1.1 0 0 1 -1.16,-1.13z"/>
   <path id="svg_33" fill="#263238" d="m221.69,108a1.09,1.09 0 1 1 -2.18,0l0,-11.62a1.08,1.08 0 0 1 0.44,-0.92a1.1,1.1 0 0 1 1.52,0.24l6.46,9l0,-8.3a1.09,1.09 0 0 1 1.07,-1.08a1.11,1.11 0 0 1 1.1,1.08l0,11.6a1.11,1.11 0 0 1 -1.1,1.1a1.08,1.08 0 0 1 -0.82,-0.4a0.53,0.53 0 0 1 -0.1,-0.12l-6.4,-8.89l0.01,8.31z"/>
   <path id="svg_34" fill="#263238" d="m245,96.86a7.36,7.36 0 0 1 0,10.14a6.55,6.55 0 0 1 -4.78,2.14a6.75,6.75 0 0 1 -4.9,-2.14a7.47,7.47 0 0 1 0,-10.13a6.67,6.67 0 0 1 4.9,-2.14a6.48,6.48 0 0 1 4.78,2.13zm-0.26,5.06a5.18,5.18 0 0 0 -1.36,-3.5a4.32,4.32 0 0 0 -6.4,0a5.09,5.09 0 0 0 -1.36,3.5a5,5 0 0 0 1.36,3.49a4.28,4.28 0 0 0 6.4,0a5.12,5.12 0 0 0 1.31,-3.49l0.05,0z"/>
   <path id="svg_35" fill="#263238" d="m258.37,97.34l-3.18,0l0,10.66a1.08,1.08 0 0 1 -1.1,1.1a1.1,1.1 0 0 1 -1.09,-1.1l0,-10.66l-3.16,0a1.11,1.11 0 0 1 -1.1,-1.12a1.08,1.08 0 0 1 1.1,-1.1l8.54,0a1.1,1.1 0 0 1 1.1,1.1a1.13,1.13 0 0 1 -1.11,1.12z"/>
   <path id="svg_36" fill="#263238" d="m268.77,108l0,-11.78a1.1,1.1 0 0 1 1.1,-1.1l6.54,0a1.11,1.11 0 0 1 0,2.22l-5.41,0l0,3.66l4.66,0a1.11,1.11 0 0 1 0,2.22l-4.66,0l0,4.78a1.11,1.11 0 0 1 -1.12,1.1a1.1,1.1 0 0 1 -1.11,-1.1z"/>
   <path id="svg_37" fill="#263238" d="m291.51,96.86a7.36,7.36 0 0 1 0,10.13a6.55,6.55 0 0 1 -4.78,2.14a6.75,6.75 0 0 1 -4.9,-2.14a7.47,7.47 0 0 1 0,-10.13a6.67,6.67 0 0 1 4.9,-2.14a6.48,6.48 0 0 1 4.78,2.14zm-0.26,5.06a5.18,5.18 0 0 0 -1.36,-3.5a4.32,4.32 0 0 0 -6.4,0a5.09,5.09 0 0 0 -1.36,3.5a5,5 0 0 0 1.36,3.49a4.28,4.28 0 0 0 6.4,0a5.12,5.12 0 0 0 1.36,-3.49z"/>
   <path id="svg_38" fill="#263238" d="m302.37,109.13a5.77,5.77 0 0 1 -5.78,-5.79l0,-7.12a1.08,1.08 0 0 1 1.1,-1.1a1.11,1.11 0 0 1 1.12,1.1l0,7.12a3.56,3.56 0 1 0 7.12,0l0,-7.12a1.1,1.1 0 0 1 1.12,-1.1a1.08,1.08 0 0 1 1.1,1.1l0,7.12a5.78,5.78 0 0 1 -5.78,5.79z"/>
   <path id="svg_39" fill="#263238" d="m314.75,108a1.09,1.09 0 1 1 -2.18,0l0,-11.62a1.08,1.08 0 0 1 0.44,-0.92a1.1,1.1 0 0 1 1.52,0.24l6.46,9l0,-8.3a1.09,1.09 0 0 1 1.08,-1.08a1.11,1.11 0 0 1 1.1,1.08l0,11.6a1.11,1.11 0 0 1 -1.1,1.1a1.08,1.08 0 0 1 -0.82,-0.4a0.53,0.53 0 0 1 -0.1,-0.12l-6.4,-8.89l0,8.31z"/>
   <path id="svg_40" fill="#263238" d="m327,108l0,-11.78a1.08,1.08 0 0 1 1.1,-1.1l2.36,0a7,7 0 0 1 0,14l-2.36,0a1.1,1.1 0 0 1 -1.1,-1.12zm2.22,-1.12l1.24,0a4.79,4.79 0 0 0 0,-9.57l-1.24,0l0,9.57z"/>
  </g>
  <g id="freepik--Character--inject-35">
   <path id="svg_50" fill="#263238" d="m280.27,252.75a1,1 0 0 0 0.65,1.09c1.05,0.16 2.33,0.33 3.75,0.53c4.23,-9.18 8.55,-16.41 7.33,-13.55a51.85,51.85 0 0 0 -3.63,14.06c1.65,0.22 5.5,0.69 7.42,0.92c4.42,-16.38 9.29,-28.42 8.72,-24.64c-2.32,15.25 -1.91,20.23 -1.38,25.56c17.93,2.18 41.48,4.76 58.55,6.23c2.79,-9 5.4,-18.84 5.64,-18.12c1.87,5.35 1.83,12.91 1.36,18.71c5.44,0.43 9.8,0.66 12.47,0.66c0,0 2,-7.62 2.36,-10.14a56.27,56.27 0 0 0 -0.18,-19.46c-1.23,-6.56 -3.85,-12.46 -6.3,-18.49a0.81,0.81 0 0 0 -0.03,-0.11s0,0 0,0a56,56 0 0 1 -3.48,-12.29a0.25,0.25 0 0 1 0,-0.1a55.34,55.34 0 0 1 -0.59,-9.29c0.22,-11.38 -4.88,-21.61 -14.57,-25.31c-16.55,-16.91 -39.28,-9.15 -45.7,5.15l0,0c-2.51,6.41 -5,14.78 -7.17,21.23c0,0 0,0 0,0a0.07,0.07 0 0 1 0,0.07l0,0a65.64,65.64 0 0 1 -2.91,7.42c-5.95,11.52 -17.41,17.46 -22.31,49.87z"/>
   <path id="svg_51" fill="#263238" d="m362.35,172.37c6.21,4.11 9.75,9.72 10,18.06c0.16,4.86 0,9.59 1.37,14.26c1.37,4.82 3.85,8.88 6.42,12.93c4.07,6.44 6.75,12.76 6.74,20.92s-1.24,18 -4.53,25.49c0,0.05 -0.08,0 -0.06,0c2.8,-7.65 3.82,-18.43 3.25,-26.69c-0.63,-9.08 -4.87,-15.06 -9.13,-22.23a38.45,38.45 0 0 1 -5.51,-18.82c-0.12,-4.12 0.32,-8.37 -0.88,-12.33c-1.42,-4.72 -4.82,-7.91 -8.22,-10.76c-0.45,-0.41 0.08,-1.14 0.55,-0.83z"/>
   <path id="svg_52" fill="#263238" d="m290.36,214.81c5.18,-6.09 10.47,-11.22 13.89,-19c3.11,-7.09 5.2,-14.66 8.35,-21.73c0,-0.12 0.21,-0.06 0.16,0.07c-5,12.6 -6.92,25.54 -15.66,35.81c-4.76,5.58 -9.47,10.73 -12.89,17.58a67.83,67.83 0 0 0 -6.46,23c0,0.28 -0.37,0.24 -0.37,0a55.61,55.61 0 0 1 12.98,-35.73z"/>
   <path id="svg_53" fill=" rgb(247, 169, 160)" d="m240,370s48.27,13 56.25,11.6s34.92,-37.66 40.9,-50.81s15.91,-78.57 14,-85.77s-11.9,-7.3 -20.33,11.26s-28.36,59.36 -31.91,62.72s-62.8,47.52 -58.91,51z"/>
   <path id="svg_54" fill=" rgb(247, 169, 160)" d="m292.06,377.3c-7.4,-3.87 -16.41,-13.26 -22.55,-14.24a7.13,7.13 0 0 0 -7.67,3.66s-2.82,-6.27 -8.54,-6.24c-2.93,0 -5.49,4.72 -5.49,4.72s-2.49,-4.93 -7.56,-4.59c-4.05,0.27 -6,4.95 -6,4.95s-4.58,-3.62 -8.62,-2c-8.18,3.23 -9.54,38 3.06,43.88c5.87,2.74 5.74,-5.77 5.74,-5.77s3.14,12.2 10.3,12.66s6.33,-10.58 6.33,-10.58s3.15,11.79 10.62,11.52c7.78,-0.27 5.06,-11.18 5.06,-11.18s4.94,7.94 10.61,6.42c9.37,-2.5 -0.7,-21.32 1.42,-28.89l11.77,0l1.52,-4.32z"/>
   <path id="svg_55" fill=" rgb(247, 169, 160)" d="m281.38,369.9c7.33,3.06 15.69,-8.51 23.23,-5.82c9.78,3.49 0.74,15.56 -14.08,17.52l-11.77,0l2.62,-11.7z"/>
   <path id="svg_56" fill="#263238" d="m233.82,366.25a0.09,0.09 0 0 0 -0.18,0c-3.23,11.33 -3.32,24.77 0.73,35.91c0.13,0.36 0.79,0.31 0.72,-0.12c-1.98,-12.32 -2.76,-23.38 -1.27,-35.79z"/>
   <path id="svg_57" fill="#263238" d="m247.74,365c0,-0.14 -0.21,-0.17 -0.25,0c-3.27,11.7 -3,26.83 3.23,39.13c0.21,0.42 0.83,0.58 0.62,0.08c-3.49,-8.48 -5,-28.02 -3.6,-39.21z"/>
   <path id="svg_58" fill="#263238" d="m267.46,404.82c-5.47,-12 -6.54,-24.57 -5.78,-37.63c0,-0.17 -0.23,-0.17 -0.28,0c-2.11,6.29 -1.72,14.66 -0.87,21.15a34.7,34.7 0 0 0 6.47,16.66c0.18,0.21 0.58,0.08 0.46,-0.18z"/>
   <path id="svg_59" fill="#263238" d="m305.19,363.16c-4.8,-1.6 -9.73,2.24 -13.77,4.39a24,24 0 0 1 -4.07,1.93c-3.2,1 -5.57,0.36 -7,-0.53c-2.24,-1.43 -9.23,-8.41 -14.28,-6.09a10.76,10.76 0 0 0 -4.32,3.67c-1.54,-2.8 -3.51,-5.85 -6.92,-6.41a5.4,5.4 0 0 0 -4.28,1.11a8.78,8.78 0 0 0 -1.68,1.71a7.93,7.93 0 0 0 -1.16,1.91a0.64,0.64 0 0 1 0,-0.07l-0.11,-0.21l-0.21,-0.43a4.49,4.49 0 0 0 -1.19,-1.49a1,1 0 0 0 -0.73,-0.3a0.08,0.08 0 0 0 0,0.16a1.16,1.16 0 0 1 0.54,0.53c0.16,0.24 0.31,0.49 0.48,0.72s0.33,0.47 0.5,0.7l0.25,0.37l0.11,0.19a1.29,1.29 0 0 0 0.16,0.17a0.15,0.15 0 0 0 0.24,0s0,0 0,0a10,10 0 0 0 1.39,-1.52a12,12 0 0 1 1.67,-1.6a5.19,5.19 0 0 1 4.11,-1c3.06,0.6 5,3.32 6.63,5.75c0,0 0,0 0.05,0l0,0c-0.05,0.08 0.06,0.15 0.12,0.09c1.68,-1.47 3.28,-3.12 5.6,-3.46c2.5,-0.37 4.87,0.83 6.94,2.09a32,32 0 0 1 3,2c0.85,0.66 1.66,1.4 2.57,2c3.89,2.45 8.15,0.55 9.21,0.1a53.35,53.35 0 0 0 6.07,-3.22a17.12,17.12 0 0 1 6.5,-2.63a6.39,6.39 0 0 1 5.78,2.16c0.73,0.94 1.66,2.7 -0.25,6.71c0,0 0,0.08 0.06,0.05c1,-1.04 4.18,-7.48 -2.01,-9.55z"/>
   <path id="svg_60" fill="#37474f" d="m347.36,305.78l-45.55,-7.28s21.76,-43.09 34.83,-55.59c12.9,-12.34 19.18,0.3 17.28,19.36c-2.1,21.13 -6.56,43.51 -6.56,43.51z"/>
   <path id="svg_61" fill="#263238" d="m345.88,297.3c-1.28,-0.3 -2.59,-0.49 -3.87,-0.78s-2.51,-0.47 -3.77,-0.66c-2.57,-0.4 -5.15,-0.76 -7.72,-1.11c-5.08,-0.7 -10.16,-1.47 -15.26,-2c-2.9,-0.32 -5.78,-0.76 -8.69,-1c-0.09,0 -0.1,0.14 0,0.16c5.05,1.18 10.19,2 15.31,2.89s10.16,1.61 15.26,2.16c1.43,0.16 2.87,0.34 4.3,0.41s2.95,0.21 4.42,0.23a0.12,0.12 0 0 0 0.02,-0.3z"/>
   <path id="svg_62" fill="#455a64" d="m322,382l120.63,0s-50.14,-124.44 -75.63,-142.62c-7.65,-5.46 -19.84,-6.07 -28.06,4.89c-6.74,9 -25.45,44.75 -26.3,57.61s9.24,25.57 9.24,25.57l0.12,54.55z"/>
   <path id="svg_63" fill="#fff" d="m361.94,297.68c0.31,-0.08 0.61,-0.12 0.91,-0.18a1.81,1.81 0 0 1 2.21,1.76a1.4,1.4 0 0 0 0.64,1.22a1.76,1.76 0 0 0 0.75,0.26a9.15,9.15 0 0 1 0.91,0.18c-0.3,0.08 -0.6,0.12 -0.91,0.18a1.78,1.78 0 0 1 -1,-0.09a1.86,1.86 0 0 1 -1.13,-1.73a1.43,1.43 0 0 0 -0.69,-1.19a1.94,1.94 0 0 0 -0.77,-0.23c-0.31,-0.06 -0.61,-0.1 -0.92,-0.18z"/>
   <path id="svg_64" fill="#fff" d="m315.8,297.68c0.3,-0.08 0.6,-0.12 0.9,-0.18a1.81,1.81 0 0 1 2.21,1.76a1.41,1.41 0 0 0 0.65,1.22a1.67,1.67 0 0 0 0.75,0.26c0.3,0.06 0.6,0.09 0.9,0.18c-0.3,0.08 -0.6,0.12 -0.9,0.18a1.81,1.81 0 0 1 -1,-0.09a1.89,1.89 0 0 1 -1.13,-1.73a1.43,1.43 0 0 0 -0.69,-1.19a1.89,1.89 0 0 0 -0.77,-0.23c-0.32,-0.06 -0.62,-0.1 -0.92,-0.18z"/>
   <path id="svg_65" fill="#fff" d="m378.7,357.62c0.3,-0.08 0.61,-0.12 0.91,-0.18a1.82,1.82 0 0 1 2.2,1.77a1.44,1.44 0 0 0 0.65,1.22a1.75,1.75 0 0 0 0.75,0.25c0.3,0.06 0.61,0.1 0.91,0.18c-0.3,0.09 -0.61,0.13 -0.91,0.19a1.79,1.79 0 0 1 -1,-0.1a1.88,1.88 0 0 1 -1.14,-1.73a1.37,1.37 0 0 0 -0.69,-1.18a1.7,1.7 0 0 0 -0.76,-0.23c-0.31,-0.06 -0.62,-0.1 -0.92,-0.19z"/>
   <path id="svg_66" fill="#fff" d="m399.56,300.92c0.3,-0.09 0.61,-0.12 0.91,-0.18a1.8,1.8 0 0 1 2.2,1.76a1.43,1.43 0 0 0 0.65,1.22a1.59,1.59 0 0 0 0.75,0.25c0.3,0.07 0.61,0.1 0.91,0.19c-0.3,0.08 -0.61,0.12 -0.91,0.18a1.77,1.77 0 0 1 -1,-0.09a1.88,1.88 0 0 1 -1.14,-1.73a1.39,1.39 0 0 0 -0.69,-1.19a1.84,1.84 0 0 0 -0.76,-0.23c-0.31,-0.1 -0.62,-0.1 -0.92,-0.18z"/>
   <path id="svg_67" fill="#fff" d="m346.23,270.43c0.31,-0.08 0.61,-0.12 0.91,-0.18a1.78,1.78 0 0 1 1,0.07a1.83,1.83 0 0 1 1.19,1.7a1.46,1.46 0 0 0 0.65,1.22a1.9,1.9 0 0 0 0.75,0.25c0.31,0.06 0.61,0.1 0.91,0.18c-0.3,0.09 -0.6,0.12 -0.91,0.19a1.88,1.88 0 0 1 -1,-0.1a1.86,1.86 0 0 1 -1.13,-1.76a1.4,1.4 0 0 0 -0.69,-1.18a1.79,1.79 0 0 0 -0.77,-0.24c-0.3,-0.03 -0.6,-0.06 -0.91,-0.15z"/>
   <path id="svg_68" fill="#fff" d="m379.06,269.74c0.3,-0.08 0.6,-0.12 0.91,-0.18a1.83,1.83 0 0 1 1,0.07a1.86,1.86 0 0 1 1.2,1.7a1.42,1.42 0 0 0 0.65,1.22a1.71,1.71 0 0 0 0.75,0.25c0.3,0.06 0.6,0.1 0.91,0.18c-0.31,0.09 -0.61,0.13 -0.91,0.19a1.78,1.78 0 0 1 -1,-0.1a1.88,1.88 0 0 1 -1.14,-1.73a1.39,1.39 0 0 0 -0.69,-1.18a1.7,1.7 0 0 0 -0.76,-0.23a9.18,9.18 0 0 1 -0.92,-0.19z"/>
   <path id="svg_69" fill="#fff" d="m357.81,238.23c0.3,-0.08 0.61,-0.12 0.91,-0.18a1.8,1.8 0 0 1 2.2,1.76a1.41,1.41 0 0 0 0.65,1.22a1.71,1.71 0 0 0 0.75,0.26c0.3,0.06 0.61,0.09 0.91,0.18c-0.3,0.08 -0.61,0.12 -0.91,0.18a1.77,1.77 0 0 1 -1,-0.09a1.88,1.88 0 0 1 -1.14,-1.73a1.39,1.39 0 0 0 -0.69,-1.19a1.84,1.84 0 0 0 -0.76,-0.23c-0.31,-0.06 -0.62,-0.1 -0.92,-0.18z"/>
   <path id="svg_70" fill="#fff" d="m338.18,322.76c0.3,-0.08 0.6,-0.12 0.9,-0.18a1.77,1.77 0 0 1 1,0.07a1.83,1.83 0 0 1 1.2,1.69a1.41,1.41 0 0 0 0.65,1.22a1.67,1.67 0 0 0 0.75,0.26c0.3,0.06 0.6,0.1 0.9,0.18c-0.3,0.09 -0.6,0.12 -0.9,0.18a1.81,1.81 0 0 1 -1,-0.09a1.89,1.89 0 0 1 -1.13,-1.73a1.43,1.43 0 0 0 -0.69,-1.19a1.94,1.94 0 0 0 -0.77,-0.23c-0.31,-0.06 -0.61,-0.09 -0.91,-0.18z"/>
   <path id="svg_71" fill="#fff" d="m374,377.69c0.3,-0.09 0.61,-0.13 0.91,-0.19a1.82,1.82 0 0 1 2.2,1.77a1.44,1.44 0 0 0 0.65,1.22a1.63,1.63 0 0 0 0.75,0.25c0.3,0.06 0.61,0.1 0.91,0.18c-0.3,0.09 -0.61,0.13 -0.91,0.19a1.79,1.79 0 0 1 -1,-0.1a1.87,1.87 0 0 1 -1.14,-1.73a1.37,1.37 0 0 0 -0.69,-1.18a1.7,1.7 0 0 0 -0.76,-0.23c-0.34,-0.06 -0.65,-0.1 -0.92,-0.18z"/>
   <path id="svg_72" fill="#fff" d="m356.35,348.17c0.3,-0.08 0.6,-0.12 0.9,-0.18a1.86,1.86 0 0 1 1,0.07a1.84,1.84 0 0 1 1.2,1.7a1.42,1.42 0 0 0 0.65,1.22a1.66,1.66 0 0 0 0.75,0.25c0.3,0.06 0.6,0.1 0.91,0.18c-0.31,0.09 -0.61,0.12 -0.91,0.19a1.91,1.91 0 0 1 -1,-0.1a1.89,1.89 0 0 1 -1.13,-1.73a1.42,1.42 0 0 0 -0.69,-1.18a1.59,1.59 0 0 0 -0.77,-0.23c-0.26,-0.07 -0.61,-0.1 -0.91,-0.19z"/>
   <path id="svg_73" fill="#fff" d="m323.74,353.54c0.31,-0.09 0.61,-0.13 0.91,-0.19a1.82,1.82 0 0 1 2.2,1.77a1.44,1.44 0 0 0 0.65,1.22a1.63,1.63 0 0 0 0.75,0.25c0.31,0.06 0.61,0.1 0.91,0.18a9.18,9.18 0 0 1 -0.91,0.19a1.79,1.79 0 0 1 -1,-0.1a1.87,1.87 0 0 1 -1.14,-1.73a1.38,1.38 0 0 0 -0.68,-1.18a1.79,1.79 0 0 0 -0.77,-0.23c-0.31,-0.06 -0.61,-0.1 -0.92,-0.18z"/>
   <path id="svg_74" fill="#fff" d="m371.36,323.48c0.3,-0.08 0.6,-0.12 0.9,-0.18a1.83,1.83 0 0 1 2.21,1.77a1.42,1.42 0 0 0 0.65,1.22a1.66,1.66 0 0 0 0.75,0.25c0.3,0.06 0.6,0.1 0.9,0.18c-0.3,0.09 -0.6,0.12 -0.9,0.19a1.82,1.82 0 0 1 -1,-0.1a1.89,1.89 0 0 1 -1.13,-1.73a1.42,1.42 0 0 0 -0.69,-1.18a1.66,1.66 0 0 0 -0.77,-0.23c-0.28,-0.07 -0.62,-0.1 -0.92,-0.19z"/>
   <path id="svg_75" fill="#fff" d="m413.05,363.89c0.3,-0.08 0.61,-0.12 0.91,-0.18a1.78,1.78 0 0 1 1,0.07a1.83,1.83 0 0 1 1.19,1.7a1.46,1.46 0 0 0 0.65,1.22a1.9,1.9 0 0 0 0.75,0.25c0.31,0.06 0.61,0.1 0.91,0.18c-0.3,0.09 -0.6,0.12 -0.91,0.19a1.82,1.82 0 0 1 -2.15,-1.83a1.37,1.37 0 0 0 -0.69,-1.18a1.7,1.7 0 0 0 -0.76,-0.24c-0.29,-0.07 -0.6,-0.07 -0.9,-0.18z"/>
   <path id="svg_76" fill="#fff" d="m396.5,339.22c0.3,-0.08 0.61,-0.12 0.91,-0.18a1.82,1.82 0 0 1 2.2,1.77a1.42,1.42 0 0 0 0.65,1.22a1.59,1.59 0 0 0 0.75,0.25c0.3,0.06 0.61,0.1 0.91,0.18c-0.3,0.09 -0.61,0.13 -0.91,0.19a1.78,1.78 0 0 1 -1,-0.1a1.87,1.87 0 0 1 -1.14,-1.73a1.37,1.37 0 0 0 -0.69,-1.18a1.7,1.7 0 0 0 -0.76,-0.23c-0.31,-0.06 -0.62,-0.1 -0.92,-0.19z"/>
   <path id="svg_77" fill="#fff" d="m431.68,375.17c0.31,-0.08 0.61,-0.12 0.91,-0.18a1.82,1.82 0 0 1 2.2,1.77a1.44,1.44 0 0 0 0.65,1.22a1.63,1.63 0 0 0 0.75,0.25c0.31,0.06 0.61,0.1 0.91,0.18a9.18,9.18 0 0 1 -0.91,0.19a1.79,1.79 0 0 1 -1,-0.1a1.85,1.85 0 0 1 -1.13,-1.73a1.42,1.42 0 0 0 -0.69,-1.18a1.79,1.79 0 0 0 -0.77,-0.23c-0.31,-0.06 -0.6,-0.1 -0.92,-0.19z"/>
   <path id="svg_78" fill="#fff" d="m349,287.46c-0.15,0.27 -0.34,0.51 -0.51,0.77a1.81,1.81 0 0 1 -2.81,0.31a1.4,1.4 0 0 0 -1.32,-0.4a1.68,1.68 0 0 0 -0.71,0.35a8.56,8.56 0 0 1 -0.77,0.51c0.16,-0.27 0.34,-0.51 0.51,-0.77a1.83,1.83 0 0 1 0.79,-0.65a1.86,1.86 0 0 1 2,0.42a1.41,1.41 0 0 0 1.33,0.35a1.74,1.74 0 0 0 0.7,-0.38c0.32,-0.17 0.56,-0.36 0.79,-0.51z"/>
   <path id="svg_79" fill="#fff" d="m336.93,267.21c-0.15,0.27 -0.34,0.51 -0.51,0.77a1.81,1.81 0 0 1 -2.81,0.31a1.39,1.39 0 0 0 -1.32,-0.4a1.68,1.68 0 0 0 -0.71,0.35a8.56,8.56 0 0 1 -0.77,0.51c0.16,-0.27 0.34,-0.51 0.51,-0.77a1.83,1.83 0 0 1 0.79,-0.65a1.86,1.86 0 0 1 2,0.42a1.4,1.4 0 0 0 1.33,0.35a1.74,1.74 0 0 0 0.7,-0.38c0.28,-0.17 0.52,-0.36 0.79,-0.51z"/>
   <path id="svg_80" fill="#fff" d="m398,322.71c-0.16,0.28 -0.34,0.52 -0.51,0.77a1.88,1.88 0 0 1 -0.77,0.67a1.83,1.83 0 0 1 -2,-0.36a1.43,1.43 0 0 0 -1.32,-0.4a1.69,1.69 0 0 0 -0.71,0.35c-0.26,0.17 -0.5,0.36 -0.77,0.51c0.15,-0.27 0.34,-0.51 0.51,-0.77a1.8,1.8 0 0 1 0.78,-0.65a1.89,1.89 0 0 1 2,0.42a1.38,1.38 0 0 0 1.32,0.35a1.8,1.8 0 0 0 0.71,-0.37c0.28,-0.17 0.52,-0.36 0.76,-0.52z"/>
   <path id="svg_81" fill="#fff" d="m367.46,257.08c-0.15,0.27 -0.34,0.51 -0.51,0.77a1.84,1.84 0 0 1 -0.76,0.66a1.86,1.86 0 0 1 -2.05,-0.35a1.43,1.43 0 0 0 -1.32,-0.41a1.74,1.74 0 0 0 -0.71,0.35c-0.26,0.17 -0.5,0.36 -0.77,0.52c0.15,-0.28 0.34,-0.52 0.51,-0.78a1.74,1.74 0 0 1 0.79,-0.64a1.86,1.86 0 0 1 2,0.42a1.44,1.44 0 0 0 1.36,0.38a1.87,1.87 0 0 0 0.7,-0.38c0.3,-0.2 0.49,-0.39 0.76,-0.54z"/>
   <path id="svg_82" fill="#fff" d="m346.28,242.12c-0.15,0.27 -0.34,0.51 -0.51,0.77a1.92,1.92 0 0 1 -0.76,0.67a1.86,1.86 0 0 1 -2.05,-0.36a1.4,1.4 0 0 0 -1.32,-0.4a1.63,1.63 0 0 0 -0.71,0.35c-0.26,0.17 -0.5,0.36 -0.77,0.51c0.15,-0.27 0.34,-0.51 0.51,-0.77a1.77,1.77 0 0 1 0.79,-0.65a1.86,1.86 0 0 1 2,0.42a1.39,1.39 0 0 0 1.33,0.35a1.74,1.74 0 0 0 0.7,-0.38c0.28,-0.17 0.51,-0.36 0.79,-0.51z"/>
   <path id="svg_83" fill="#fff" d="m366.27,276.12c0.09,0.3 0.12,0.61 0.19,0.91a2,2 0 0 1 -0.07,1a1.85,1.85 0 0 1 -1.7,1.19a1.43,1.43 0 0 0 -1.22,0.65a1.59,1.59 0 0 0 -0.25,0.75c-0.07,0.3 -0.1,0.61 -0.19,0.91c-0.08,-0.3 -0.12,-0.61 -0.18,-0.91a1.7,1.7 0 0 1 0.1,-1a1.86,1.86 0 0 1 1.73,-1.14a1.38,1.38 0 0 0 1.18,-0.69a1.84,1.84 0 0 0 0.23,-0.76c0.06,-0.3 0.1,-0.61 0.18,-0.91z"/>
   <path id="svg_84" fill="#fff" d="m359.06,329.39c0.08,0.3 0.12,0.61 0.18,0.91a1.82,1.82 0 0 1 -1.77,2.2a1.42,1.42 0 0 0 -1.22,0.65a1.71,1.71 0 0 0 -0.25,0.75c-0.06,0.3 -0.1,0.61 -0.18,0.91c-0.09,-0.3 -0.13,-0.61 -0.19,-0.91a1.78,1.78 0 0 1 0.1,-1a1.88,1.88 0 0 1 1.73,-1.14a1.37,1.37 0 0 0 1.18,-0.69a1.7,1.7 0 0 0 0.23,-0.76c0.06,-0.31 0.13,-0.62 0.19,-0.92z"/>
   <path id="svg_85" fill="#fff" d="m429,354.07c0.09,0.3 0.13,0.6 0.19,0.9a1.83,1.83 0 0 1 -1.77,2.21a1.42,1.42 0 0 0 -1.22,0.65a1.55,1.55 0 0 0 -0.25,0.75c-0.06,0.3 -0.1,0.6 -0.18,0.9c-0.09,-0.3 -0.13,-0.6 -0.19,-0.9a1.82,1.82 0 0 1 0.1,-1a1.88,1.88 0 0 1 1.73,-1.13a1.42,1.42 0 0 0 1.18,-0.69a1.79,1.79 0 0 0 0.23,-0.77c0.07,-0.32 0.11,-0.62 0.18,-0.92z"/>
   <path id="svg_86" fill="#fff" d="m396.6,283.5c0.08,0.3 0.12,0.6 0.18,0.91a1.83,1.83 0 0 1 -0.07,1a1.86,1.86 0 0 1 -1.7,1.2a1.42,1.42 0 0 0 -1.22,0.65a1.71,1.71 0 0 0 -0.25,0.75c-0.06,0.3 -0.1,0.6 -0.18,0.91c-0.09,-0.31 -0.12,-0.61 -0.19,-0.91a1.82,1.82 0 0 1 1.83,-2.15a1.39,1.39 0 0 0 1.18,-0.69a1.59,1.59 0 0 0 0.23,-0.76c0.07,-0.31 0.1,-0.61 0.19,-0.91z"/>
   <path id="svg_87" fill="#fff" d="m396.6,369c0.08,0.3 0.12,0.6 0.18,0.9a1.83,1.83 0 0 1 -1.77,2.21a1.42,1.42 0 0 0 -1.22,0.65a1.66,1.66 0 0 0 -0.25,0.75c-0.06,0.3 -0.1,0.6 -0.18,0.9c-0.09,-0.3 -0.12,-0.6 -0.19,-0.9a1.91,1.91 0 0 1 0.1,-1a1.89,1.89 0 0 1 1.73,-1.13a1.42,1.42 0 0 0 1.18,-0.69a1.59,1.59 0 0 0 0.23,-0.77c0.07,-0.29 0.1,-0.59 0.19,-0.92z"/>
   <path id="svg_88" fill="#fff" d="m413.05,320.05c0.09,0.3 0.12,0.61 0.18,0.91a1.8,1.8 0 0 1 -1.76,2.2a1.43,1.43 0 0 0 -1.22,0.65a1.59,1.59 0 0 0 -0.25,0.75c-0.07,0.3 -0.1,0.61 -0.19,0.91c-0.08,-0.3 -0.12,-0.61 -0.18,-0.91a1.7,1.7 0 0 1 0.1,-1a1.86,1.86 0 0 1 1.72,-1.14a1.39,1.39 0 0 0 1.19,-0.69a1.84,1.84 0 0 0 0.23,-0.76c0.06,-0.31 0.13,-0.62 0.18,-0.92z"/>
   <path id="svg_89" fill="#fff" d="m329.69,331.3c0.09,0.3 0.12,0.6 0.18,0.9a1.81,1.81 0 0 1 -1.76,2.21a1.41,1.41 0 0 0 -1.22,0.65a1.55,1.55 0 0 0 -0.25,0.75c-0.07,0.3 -0.1,0.6 -0.19,0.9c-0.08,-0.3 -0.12,-0.6 -0.18,-0.9a1.74,1.74 0 0 1 0.1,-1a1.86,1.86 0 0 1 1.72,-1.13a1.43,1.43 0 0 0 1.19,-0.69a1.84,1.84 0 0 0 0.23,-0.77c0.06,-0.32 0.1,-0.62 0.18,-0.92z"/>
   <path id="svg_90" fill="#fff" d="m331.31,283.5a9.15,9.15 0 0 1 0.18,0.91a1.82,1.82 0 0 1 -0.06,1a1.86,1.86 0 0 1 -1.7,1.2a1.41,1.41 0 0 0 -1.22,0.65a1.59,1.59 0 0 0 -0.25,0.75c-0.07,0.3 -0.1,0.6 -0.19,0.91c-0.08,-0.31 -0.12,-0.61 -0.18,-0.91a1.77,1.77 0 0 1 0.09,-1a1.88,1.88 0 0 1 1.73,-1.14a1.41,1.41 0 0 0 1.19,-0.69a1.84,1.84 0 0 0 0.23,-0.76c0.06,-0.32 0.1,-0.62 0.18,-0.92z"/>
   <path id="svg_91" fill="#fff" d="m348.75,252.43c0.08,0.3 0.12,0.6 0.18,0.91a1.83,1.83 0 0 1 -0.07,1a1.86,1.86 0 0 1 -1.7,1.2a1.42,1.42 0 0 0 -1.22,0.65a1.71,1.71 0 0 0 -0.25,0.75c-0.06,0.3 -0.1,0.6 -0.18,0.91c-0.09,-0.31 -0.12,-0.61 -0.19,-0.91a1.82,1.82 0 0 1 0.1,-1a1.89,1.89 0 0 1 1.73,-1.13a1.39,1.39 0 0 0 1.18,-0.69a1.59,1.59 0 0 0 0.23,-0.76c0.07,-0.36 0.1,-0.63 0.19,-0.93z"/>
   <path id="svg_92" fill="#fff" d="m344.07,300.46c0.08,0.31 0.12,0.61 0.18,0.91a1.83,1.83 0 0 1 -1.77,2.21a1.42,1.42 0 0 0 -1.22,0.65a1.66,1.66 0 0 0 -0.25,0.75c-0.06,0.3 -0.1,0.6 -0.18,0.9c-0.09,-0.3 -0.13,-0.6 -0.19,-0.9a1.82,1.82 0 0 1 0.1,-1a1.89,1.89 0 0 1 1.73,-1.13a1.42,1.42 0 0 0 1.18,-0.69a1.79,1.79 0 0 0 0.23,-0.77c0.06,-0.32 0.12,-0.62 0.19,-0.93z"/>
   <path id="svg_93" fill="#fff" d="m386.1,306.92c0.08,0.3 0.12,0.61 0.18,0.91a1.82,1.82 0 0 1 -1.77,2.2a1.44,1.44 0 0 0 -1.22,0.65a1.75,1.75 0 0 0 -0.25,0.75c-0.06,0.3 -0.1,0.61 -0.18,0.91c-0.09,-0.3 -0.12,-0.61 -0.19,-0.91a1.79,1.79 0 0 1 0.1,-1a1.88,1.88 0 0 1 1.73,-1.14a1.37,1.37 0 0 0 1.18,-0.69a1.59,1.59 0 0 0 0.23,-0.76c0.09,-0.31 0.09,-0.62 0.19,-0.92z"/>
   <path id="svg_94" fill="#fff" d="m347.25,360.86c0.08,0.31 0.12,0.61 0.18,0.91a1.81,1.81 0 0 1 -1.76,2.21a1.39,1.39 0 0 0 -1.22,0.65a1.67,1.67 0 0 0 -0.26,0.74a9.15,9.15 0 0 1 -0.18,0.91c-0.08,-0.3 -0.12,-0.6 -0.18,-0.91a1.78,1.78 0 0 1 0.09,-1a1.86,1.86 0 0 1 1.73,-1.13a1.43,1.43 0 0 0 1.19,-0.69a1.94,1.94 0 0 0 0.23,-0.77c0.06,-0.31 0.1,-0.61 0.18,-0.92z"/>
   <path id="svg_95" fill="#fff" d="m378.89,291.67c0.16,-0.27 0.35,-0.51 0.52,-0.77a1.77,1.77 0 0 1 0.76,-0.66a1.84,1.84 0 0 1 2,0.35a1.45,1.45 0 0 0 1.33,0.41a1.71,1.71 0 0 0 0.7,-0.35c0.26,-0.18 0.5,-0.36 0.78,-0.52c-0.16,0.28 -0.35,0.52 -0.52,0.78a1.78,1.78 0 0 1 -0.78,0.64a1.88,1.88 0 0 1 -2,-0.42a1.42,1.42 0 0 0 -1.32,-0.35a1.87,1.87 0 0 0 -0.7,0.38c-0.25,0.17 -0.49,0.36 -0.77,0.51z"/>
   <path id="svg_96" fill="#fff" d="m354.38,313.88c0.15,-0.27 0.34,-0.51 0.51,-0.77a1.81,1.81 0 0 1 2.81,-0.31a1.39,1.39 0 0 0 1.32,0.4a1.68,1.68 0 0 0 0.71,-0.35a8.56,8.56 0 0 1 0.77,-0.51c-0.16,0.27 -0.34,0.51 -0.51,0.77a1.82,1.82 0 0 1 -2.82,0.23a1.39,1.39 0 0 0 -1.32,-0.35a1.87,1.87 0 0 0 -0.7,0.38c-0.26,0.17 -0.5,0.36 -0.77,0.51z"/>
   <path id="svg_97" fill="#fff" d="m337.76,346.6c0.16,-0.28 0.35,-0.52 0.52,-0.77a1.81,1.81 0 0 1 2.81,-0.31a1.42,1.42 0 0 0 1.32,0.4a1.68,1.68 0 0 0 0.71,-0.35a8.56,8.56 0 0 1 0.77,-0.51c-0.16,0.27 -0.34,0.51 -0.51,0.77a1.81,1.81 0 0 1 -2.81,0.23a1.4,1.4 0 0 0 -1.33,-0.35a1.71,1.71 0 0 0 -0.7,0.37c-0.26,0.18 -0.54,0.36 -0.78,0.52z"/>
   <path id="svg_98" fill="#fff" d="m344.94,380.59c0.16,-0.27 0.35,-0.51 0.52,-0.77a1.77,1.77 0 0 1 0.76,-0.66a1.86,1.86 0 0 1 2,0.35a1.42,1.42 0 0 0 1.32,0.41a1.71,1.71 0 0 0 0.71,-0.36c0.25,-0.17 0.49,-0.35 0.77,-0.51c-0.16,0.28 -0.34,0.52 -0.51,0.77a1.82,1.82 0 0 1 -0.79,0.65a1.88,1.88 0 0 1 -2,-0.42a1.42,1.42 0 0 0 -1.32,-0.35a1.87,1.87 0 0 0 -0.7,0.38c-0.24,0.17 -0.48,0.36 -0.76,0.51z"/>
   <path id="svg_99" fill="#fff" d="m377.09,343.23c0.15,-0.27 0.34,-0.51 0.51,-0.77a1.84,1.84 0 0 1 0.76,-0.66a1.86,1.86 0 0 1 2.05,0.35a1.42,1.42 0 0 0 1.32,0.41a1.81,1.81 0 0 0 0.71,-0.35c0.25,-0.17 0.49,-0.36 0.77,-0.52c-0.16,0.28 -0.34,0.52 -0.51,0.78a1.74,1.74 0 0 1 -0.79,0.64a1.86,1.86 0 0 1 -2,-0.42a1.44,1.44 0 0 0 -1.33,-0.35a1.87,1.87 0 0 0 -0.7,0.38c-0.28,0.17 -0.52,0.36 -0.79,0.51z"/>
   <path id="svg_100" fill="#fff" d="m399.21,356.77c0.15,-0.27 0.34,-0.51 0.51,-0.77a1.9,1.9 0 0 1 0.76,-0.66a1.86,1.86 0 0 1 2,0.35a1.43,1.43 0 0 0 1.32,0.41a1.74,1.74 0 0 0 0.71,-0.35c0.26,-0.17 0.5,-0.36 0.77,-0.52c-0.15,0.28 -0.34,0.52 -0.51,0.78a1.69,1.69 0 0 1 -0.79,0.64a1.86,1.86 0 0 1 -2,-0.42a1.44,1.44 0 0 0 -1.33,-0.35a1.87,1.87 0 0 0 -0.7,0.38c-0.23,0.17 -0.47,0.36 -0.74,0.51z"/>
   <path id="svg_101" fill="#fff" d="m362,367.05c0.15,-0.27 0.34,-0.51 0.51,-0.77a1.77,1.77 0 0 1 0.76,-0.66a1.86,1.86 0 0 1 2.05,0.35a1.42,1.42 0 0 0 1.32,0.41a1.71,1.71 0 0 0 0.71,-0.36c0.25,-0.17 0.49,-0.35 0.77,-0.51c-0.16,0.28 -0.34,0.52 -0.51,0.77a1.76,1.76 0 0 1 -0.79,0.65a1.86,1.86 0 0 1 -2,-0.42a1.44,1.44 0 0 0 -1.33,-0.35a1.87,1.87 0 0 0 -0.7,0.38c-0.28,0.17 -0.52,0.36 -0.79,0.51z"/>
   <path id="svg_102" fill="#fff" d="m410,380.59c0.16,-0.27 0.34,-0.51 0.51,-0.77a1.83,1.83 0 0 1 0.76,-0.66a1.86,1.86 0 0 1 2.05,0.35a1.43,1.43 0 0 0 1.32,0.41a1.74,1.74 0 0 0 0.71,-0.35c0.26,-0.18 0.5,-0.36 0.77,-0.52c-0.15,0.28 -0.34,0.52 -0.51,0.78a1.78,1.78 0 0 1 -0.78,0.64a1.87,1.87 0 0 1 -2,-0.42a1.43,1.43 0 0 0 -1.32,-0.35a1.83,1.83 0 0 0 -0.71,0.38c-0.3,0.17 -0.54,0.36 -0.8,0.51z"/>
   <path id="svg_103" fill="#fff" d="m415.41,344c0.15,-0.28 0.34,-0.52 0.51,-0.78a1.9,1.9 0 0 1 0.76,-0.66a1.86,1.86 0 0 1 2.05,0.35a1.43,1.43 0 0 0 1.32,0.41a1.74,1.74 0 0 0 0.71,-0.35c0.26,-0.17 0.5,-0.36 0.77,-0.52c-0.15,0.28 -0.34,0.52 -0.51,0.78a1.69,1.69 0 0 1 -0.79,0.64a1.86,1.86 0 0 1 -2,-0.42a1.43,1.43 0 0 0 -1.32,-0.35a1.83,1.83 0 0 0 -0.71,0.38c-0.28,0.18 -0.52,0.37 -0.79,0.52z"/>
   <path id="svg_104" fill="#fff" d="m327.75,371.74c0.16,-0.28 0.34,-0.52 0.51,-0.78a1.9,1.9 0 0 1 0.76,-0.66a1.86,1.86 0 0 1 2.05,0.35a1.43,1.43 0 0 0 1.32,0.41a1.74,1.74 0 0 0 0.71,-0.35c0.26,-0.17 0.5,-0.36 0.77,-0.52c-0.15,0.28 -0.34,0.52 -0.51,0.78a1.72,1.72 0 0 1 -0.78,0.64a1.87,1.87 0 0 1 -2,-0.42a1.4,1.4 0 0 0 -1.32,-0.34a1.68,1.68 0 0 0 -0.71,0.37c-0.29,0.17 -0.55,0.36 -0.8,0.52z"/>
   <path id="svg_105" fill="#fff" d="m325,314.65c0.15,-0.27 0.34,-0.51 0.51,-0.77a1.92,1.92 0 0 1 0.76,-0.67a1.86,1.86 0 0 1 2.05,0.36a1.4,1.4 0 0 0 1.32,0.4a1.52,1.52 0 0 0 0.71,-0.35c0.26,-0.17 0.5,-0.36 0.77,-0.51a8.56,8.56 0 0 1 -0.51,0.77a1.8,1.8 0 0 1 -0.78,0.65a1.87,1.87 0 0 1 -2,-0.42a1.4,1.4 0 0 0 -1.32,-0.35a1.83,1.83 0 0 0 -0.71,0.38c-0.28,0.17 -0.52,0.36 -0.8,0.51z"/>
   <path id="svg_106" fill=" rgb(247, 169, 160)" d="m357.63,238.48c-0.37,1.87 -8.81,14.18 -17.29,14.07c-2.76,-0.05 -3.2,-15.13 -3.2,-15.13l-0.29,-1.1l-4,-15.48l17.93,-12.37l2.6,-1.64s0.81,4.31 1.78,9.68c0,0.25 0.09,0.5 0.13,0.77s0.13,0.58 0.17,0.87c0.16,0.8 0.31,1.62 0.45,2.44c0.11,0.62 0.21,1.22 0.3,1.88s0.19,1.3 0.3,2a103,103 0 0 1 1.12,14.01z"/>
   <path id="svg_107" fill="#263238" d="m355.16,216.51a32.11,32.11 0 0 1 -18.31,19.81l-4,-15.48l17.93,-12.37l2.6,-1.64s0.81,4.31 1.78,9.68z"/>
   <path id="svg_108" fill=" rgb(247, 169, 160)" d="m310.87,197.85c-0.74,28.06 16,31.67 22,31.82c5.49,0.14 24.21,-0.08 27.85,-27.91s-9.18,-37 -21.72,-38s-27.39,6.03 -28.13,34.09z"/>
   <path id="svg_109" fill="#263238" d="m315.13,189.36c0.66,-0.11 1.24,-0.31 1.88,-0.48a3.2,3.2 0 0 0 1.82,-0.86a1,1 0 0 0 -0.05,-1.22a2.49,2.49 0 0 0 -2.47,-0.47a3.62,3.62 0 0 0 -2.22,1.38a1.07,1.07 0 0 0 1.04,1.65z"/>
   <path id="svg_110" fill="#263238" d="m333.89,193.46a17.47,17.47 0 0 1 -1.92,-0.32a3.14,3.14 0 0 1 -1.88,-0.69a1,1 0 0 1 -0.06,-1.22a2.49,2.49 0 0 1 2.42,-0.69a3.62,3.62 0 0 1 2.33,1.19a1.06,1.06 0 0 1 -0.89,1.73z"/>
   <path id="svg_111" fill="#263238" d="m319.27,198.49c0,-0.07 -0.14,0.1 -0.14,0.18c0.19,1.9 0.09,4.11 -1.59,4.86c-0.06,0 0,0.12 0,0.11c2.1,-0.44 2.21,-3.38 1.73,-5.15z"/>
   <path id="svg_112" fill="#263238" d="m317.43,196.61c-3.08,0 -2.91,6.14 -0.05,6.17s2.62,-6.14 0.05,-6.17z"/>
   <path id="svg_113" fill="#263238" d="m316.16,197.06c-0.48,0.34 -0.94,0.94 -1.53,1s-1.19,-0.59 -1.64,-1.22c0,-0.06 -0.09,0 -0.09,0.07c0,1.18 0.43,2.4 1.56,2.59s1.77,-0.85 2,-2c0.07,-0.25 -0.11,-0.58 -0.3,-0.44z"/>
   <path id="svg_114" fill="#263238" d="m331.82,214.82c-0.47,0.43 -0.95,1 -1.65,1.07a5.06,5.06 0 0 1 -2,-0.56a0.07,0.07 0 0 0 -0.09,0.1a2.57,2.57 0 0 0 2.4,1.12a2,2 0 0 0 1.56,-1.64c-0.04,-0.11 -0.15,-0.15 -0.22,-0.09z"/>
   <path id="svg_115" fill="#263238" d="m322.26,207.15s-0.22,2.86 -0.15,4.2a27.7,27.7 0 0 1 7.8,0.68c0.6,0.16 0.56,-0.33 -0.12,-0.69a11.44,11.44 0 0 0 -6.59,-1.22c-0.12,-0.37 0.43,-4.4 0.22,-4.4a11.73,11.73 0 0 0 -3,0.86c0.3,-6 1.56,-11.84 1.77,-17.79a0.18,0.18 0 0 0 -0.35,-0.07c-1.76,6.07 -2.26,12.93 -2.73,19.09c-0.06,0.76 2.63,-0.4 3.15,-0.66z"/>
   <path id="svg_116" fill="#263238" d="m335.61,198.59a6.1,6.1 0 0 0 -3.53,-0.28a5,5 0 0 0 -1.76,0.78a4.54,4.54 0 0 0 -1.31,1.54l-0.59,1.09l1.21,-0.13a12.15,12.15 0 0 1 2.56,0a5.24,5.24 0 0 1 2.48,0.88a3.83,3.83 0 0 0 -2.26,-1.83a7.16,7.16 0 0 0 -2.92,-0.33l0.62,1a4.46,4.46 0 0 1 2.26,-1.89a13.48,13.48 0 0 1 3.24,-0.83z"/>
   <path id="svg_117" fill="#263238" d="m332.14,203.56a10.1,10.1 0 0 1 -2.59,-1c-0.19,-0.12 -0.92,-0.67 -0.88,-0.83a5.69,5.69 0 0 1 0.48,-1.34a3.7,3.7 0 0 0 -0.75,1.3a1.85,1.85 0 0 0 0.94,1.25a5.37,5.37 0 0 0 2.8,0.62z"/>
   <path id="svg_118" fill="#263238" d="m325.5,211.15s1.74,2.5 3.74,2.8c2.3,0.36 2.57,-1.71 0,-2.89c-1.3,-0.61 -3.74,0.09 -3.74,0.09z"/>
   <path id="svg_119" fill="#ff99ba" d="m329.23,214a4.66,4.66 0 0 1 -2.31,-1.23c0.48,-0.71 1.58,-1.5 4.05,-0.17c0.36,0.84 -0.28,1.58 -1.74,1.4z"/>
   <path id="svg_120" fill="#263238" d="m360.55,202.43c-4.62,0.58 -6.16,-9.09 -6.16,-9.09s-9.42,0.48 -13.19,-12.92a20.91,20.91 0 0 0 4.72,11s-16.71,-1 -24.38,-14.53c0,0 3.14,6.95 5.88,9.34c0,0 -7.07,-1.6 -10.74,-7.1c0,0 -2.52,8.17 -4.65,10.5c0,0 -0.73,-29.11 26.36,-27.33c0,0 16.92,0.3 23.63,13.36s-1.47,26.77 -1.47,26.77z"/>
   <path id="svg_121" fill=" rgb(247, 169, 160)" d="m356.23,203.79s5.59,-9.11 9.69,-7.17s0.26,14.9 -4.29,16.91a4.74,4.74 0 0 1 -6.5,-2.16l1.1,-7.58z"/>
   <path id="svg_122" fill="#263238" d="m364.73,200.31c0.07,0 0.09,0.09 0,0.12c-3.19,1.52 -4.72,4.65 -5.74,7.87c0.9,-1.27 2.18,-2 3.87,-1c0.09,0.05 0,0.19 -0.08,0.18a2.9,2.9 0 0 0 -3.14,1.21a13.32,13.32 0 0 0 -1.38,2.68c-0.14,0.3 -0.67,0.18 -0.58,-0.16a0.19,0.19 0 0 1 0,-0.08c-0.28,-4.13 2.6,-10.13 7.05,-10.82z"/>
   <path id="svg_123" fill="#fff" d="m359,212.07a1.31,1.31 0 1 0 1.23,-1.38a1.3,1.3 0 0 0 -1.23,1.38z"/>
   <path id="svg_124" fill="#fff" d="m362.14,209.9a0.84,0.84 0 1 0 0.79,-0.88a0.83,0.83 0 0 0 -0.79,0.88z"/>
   <rect id="svg_125" fill="#ebebeb" transform="rotate(-13.08, -58.33, 68.36)" height="46.16" width="14.91" y="333.95" x="203.3"/>
   <path id="svg_126" fill="#a6a6a6" d="m235.74,145.13a63,63 0 1 0 75.65,47.14a63,63 0 0 0 -75.65,-47.14zm25.52,109.87a49.76,49.76 0 1 1 37.2,-59.71a49.76,49.76 0 0 1 -37.2,59.71z"/>
   <rect id="svg_127" fill="#263238" transform="rotate(-13.08, -67.61, 71.67)" rx="6.27" height="67.59" width="22.54" y="368.66" x="199.98"/>
   <g id="svg_128" opacity="0.3">
    <path id="svg_129" fill="#fff" d="m298.46,195.27a49.75,49.75 0 1 1 -59.72,-37.22a49.74,49.74 0 0 1 59.72,37.22z"/>
    <path id="svg_130" fill="#ebebeb" d="m299.68,209.29a49.78,49.78 0 0 1 -52,46.94l52,-46.94z"/>
    <path id="svg_131" fill="#ebebeb" d="m276.79,164.6l-71.23,64.29a49.47,49.47 0 0 1 -4,-11.11a48.81,48.81 0 0 1 -1.24,-13.47l52.59,-47.47a49.69,49.69 0 0 1 23.88,7.76z"/>
    <path id="svg_132" fill="#ebebeb" d="m297.09,190.5l-67.85,61.23a49.69,49.69 0 0 1 -8.43,-4.93l72.25,-65.2a48.13,48.13 0 0 1 4.03,8.9z"/>
    <path id="svg_133" fill="#ebebeb" d="m282.26,168.66l-73.26,66.1c-0.34,-0.5 -0.68,-1 -1,-1.51l72.84,-65.73c0.5,0.36 0.97,0.73 1.42,1.14z"/>
    <path id="svg_134" fill="#ebebeb" d="m236.32,158.68l-32.5,29.32c0.55,-1.39 1.17,-2.75 1.85,-4.07l26.43,-23.86c1.37,-0.51 2.78,-0.98 4.22,-1.39z"/>
   </g>
   <path id="svg_135" fill="#fff" d="m214.68,215.13a1.42,1.42 0 0 1 0,-0.2c-0.18,-1 0.13,0.95 0,0.3s-0.2,-1.54 -0.26,-2.31a48.34,48.34 0 0 1 0,-8.16c0,-0.39 0.07,-0.77 0.1,-1.15c0,-0.12 -0.11,0.9 0,0.09l0.09,-0.7c0.12,-0.9 0.27,-1.8 0.45,-2.69a44.45,44.45 0 0 1 1.53,-5.79c0.15,-0.45 0.32,-0.9 0.48,-1.35c0.21,-0.61 -0.28,0.67 0.05,-0.13l0.33,-0.79c0.43,-1 0.9,-2 1.4,-3s1.15,-2.07 1.78,-3.06c0.3,-0.46 0.6,-0.91 0.91,-1.36c0.53,-0.77 -0.25,0.31 0.16,-0.23l0.59,-0.78a45.84,45.84 0 0 1 6.08,-6.3s0.46,-0.37 0.12,-0.09s0.18,-0.15 0.24,-0.2l1,-0.79c0.67,-0.5 1.35,-1 2.05,-1.44a51.79,51.79 0 0 1 4.54,-2.71a3.75,3.75 0 0 0 -4,-6.36c-9.88,5.27 -18,13.59 -22.08,24.08a51.69,51.69 0 0 0 -3.45,22.19a37.14,37.14 0 0 0 0.64,5a3.76,3.76 0 0 0 4.66,2.53a3.87,3.87 0 0 0 2.53,-4.67l0.06,0.07z"/>
   <path id="svg_136" fill="#fff" d="m218,225.77a3.68,3.68 0 1 1 -4.58,-2.48a3.67,3.67 0 0 1 4.58,2.48z"/>
   <path id="svg_137" fill=" rgb(247, 169, 160)" d="m377.13,257.3c9,32.54 13.32,65.21 8.34,82.06c-3.18,10.74 -10.85,18 -15.73,20.4c-11.41,5.64 -49.26,-2.36 -73.92,-7.32c-6.06,-1.22 8.23,-50.05 14.32,-47.46c9,3.81 36.55,8.95 37.31,9.2c1.63,0.56 5,-34.75 7.38,-55.45c3.29,-28.84 17.11,-20.22 22.3,-1.43z"/>
   <path id="svg_138" fill=" rgb(247, 169, 160)" d="m248.43,295.68c-2.68,4.37 0.8,8.37 0.8,8.37a10.92,10.92 0 0 0 -5.12,5.39c-1.61,4.2 4.27,8.57 4.27,8.57a13.41,13.41 0 0 0 -4.49,6.54c-1.14,4.18 4.17,9.43 4.17,9.43a11.81,11.81 0 0 0 -0.33,8.24c2.65,7.11 14,9.44 21.2,11s29.08,-0.8 33.3,-0.82l10.35,-46.13s-30.31,-16.15 -39,-16.77c-7.39,-0.5 -22.14,1.28 -25.15,6.18z"/>
   <path id="svg_139" fill="#263238" d="m249.71,303.38c8,-1.31 15.86,-0.21 23.81,0.44a0.14,0.14 0 0 1 0,0.28c-7.91,-0.74 -15.86,0.09 -23.77,-0.33a0.2,0.2 0 0 1 -0.04,-0.39z"/>
   <path id="svg_140" fill="#263238" d="m248.67,317.44a20.65,20.65 0 0 1 5.48,0.35q2.89,0.38 5.77,0.86q5.77,1 11.48,2.21c0.17,0 0.16,0.3 0,0.27c-3.84,-0.63 -7.68,-1.2 -11.53,-1.67c-1.93,-0.24 -3.86,-0.45 -5.8,-0.66a24.76,24.76 0 0 1 -5.43,-0.83a0.28,0.28 0 0 1 0.03,-0.53z"/>
   <path id="svg_141" fill="#263238" d="m248.22,334c1.56,-0.27 3.38,0.29 4.92,0.58c1.75,0.33 3.49,0.64 5.24,0.95c3.5,0.62 7,1.23 10.52,1.73c0.17,0 0.15,0.3 0,0.27c-3.58,-0.48 -7.16,-0.92 -10.73,-1.43c-1.75,-0.25 -3.51,-0.52 -5.26,-0.79c-1.49,-0.23 -3.37,-0.35 -4.7,-1.13a0.1,0.1 0 0 1 0.01,-0.18z"/>
   <path id="svg_142" fill="#263238" d="m258.31,290.9c-3.63,0.47 -7.79,1.27 -10.14,4.36a6.56,6.56 0 0 0 -1.49,4.69a6.31,6.31 0 0 0 2.24,4.05l0,0a8.1,8.1 0 0 0 -5.54,6.6a5.52,5.52 0 0 0 1.43,4.17c0.5,0.59 1.07,1.11 1.62,1.65s1.16,1 1.73,1.47a15.22,15.22 0 0 0 -1.73,1.58a12.17,12.17 0 0 0 -1.61,1.9a8.49,8.49 0 0 0 -1.58,4.65a8.34,8.34 0 0 0 1.66,4.59a9.51,9.51 0 0 0 3.33,3.34a0.08,0.08 0 0 0 0.09,-0.13a13.72,13.72 0 0 1 -2.71,-3.41a8.77,8.77 0 0 1 -1.37,-4.54a9.1,9.1 0 0 1 1.5,-4.27a22.43,22.43 0 0 1 1.38,-2a17.47,17.47 0 0 0 1.38,-1.66s-1.19,-1.26 -1.61,-1.8s-0.83,-1.12 -1.21,-1.71a5.52,5.52 0 0 1 -1,-3.87a7.13,7.13 0 0 1 1.68,-3.44c0.84,-1 1.93,-1.79 2.81,-2.77a0.45,0.45 0 0 0 0.05,-0.35c-2,-3.12 -1.75,-6.08 0.39,-8.39a13.58,13.58 0 0 1 3.77,-2.73a33.53,33.53 0 0 1 5,-1.81c0.07,-0.01 0.04,-0.18 -0.07,-0.17z"/>
   <path id="svg_143" fill="#263238" d="m324.61,358.09c-2.13,-0.66 -4.38,-1 -6.56,-1.48s-4.38,-0.93 -6.58,-1.37s-4.49,-0.88 -6.73,-1.3s-4.33,-0.89 -6.51,-1.15a26.73,26.73 0 0 0 -6.32,0.14q-3.17,0.36 -6.36,0.51a91.85,91.85 0 0 1 -12.85,-0.28a86.87,86.87 0 0 1 -14.31,-2.55c-0.1,0 -0.13,0.12 0,0.15a77.78,77.78 0 0 0 25.23,4c2.12,0 4.25,-0.13 6.36,-0.34a56.63,56.63 0 0 1 6.36,-0.54a40.91,40.91 0 0 1 6.68,1c2.21,0.41 4.41,0.83 6.62,1.22c2.5,0.44 5,0.89 7.51,1.28s5,0.95 7.46,1.13c0.18,-0.04 0.19,-0.37 0,-0.42z"/>
   <path id="svg_144" fill="#263238" d="m355.67,316.2c-3.2,-1.09 -6.58,-1.77 -9.87,-2.56s-6.62,-1.55 -9.93,-2.3c-6.32,-1.43 -12.72,-2.64 -19,-4.39c-1.65,-0.46 -3.28,-1 -4.89,-1.54c-0.81,-0.29 -1.6,-0.61 -2.39,-1s-1.7,-0.63 -2.48,-1c-0.09,-0.06 -0.16,0.08 -0.07,0.14c0.63,0.39 1.21,0.86 1.86,1.24s1.44,0.76 2.18,1.1a41,41 0 0 0 4.15,1.63c2.94,1 6,1.69 9,2.39c6.6,1.51 13.21,3 19.83,4.43c1.86,0.4 3.73,0.8 5.6,1.17s3.91,0.83 5.89,1.05a0.19,0.19 0 0 0 0.12,-0.36z"/>
   <path id="svg_145" fill="#37474f" d="m345.26,304.1l45.74,6.22s-8.36,-47.55 -17.25,-63.3c-8.77,-15.54 -18.45,-5.27 -22.14,13.53c-4.14,20.84 -6.35,43.55 -6.35,43.55z"/>
   <path id="svg_146" fill="#263238" d="m387.57,303.43c-1.28,-0.3 -2.59,-0.49 -3.87,-0.77s-2.51,-0.47 -3.77,-0.67c-2.57,-0.4 -5.15,-0.76 -7.73,-1.11c-5.08,-0.7 -10.15,-1.47 -15.25,-2c-2.9,-0.32 -5.79,-0.75 -8.69,-1a0.08,0.08 0 0 0 0,0.16c5.05,1.18 10.2,2.06 15.32,2.89s10.16,1.61 15.26,2.17c1.43,0.15 2.86,0.34 4.3,0.41s2.95,0.2 4.42,0.23a0.13,0.13 0 0 0 0.01,-0.31z"/>
  </g>
 </g>
</svg>