<svg width="500" height="500" viewBox="0 0 500 500" fill="none" xmlns="http://www.w3.org/2000/svg">
<path d="M88.09 103.18C116 43.73 215.15 52.12 253.41 93.92C291.67 135.72 304.11 162.52 338.62 146.92C373.13 131.32 417.14 135.49 419.62 185.09C422.1 234.69 381.75 293.33 317.57 310.68C253.39 328.03 253.41 389.44 168.47 377.05C122.16 370.3 121.11 320.19 127.65 278.75C134.19 237.31 55.71 172.12 88.09 103.18Z" fill="#3850CD"/>
<path opacity="0.9" d="M88.09 103.18C116 43.73 215.15 52.12 253.41 93.92C291.67 135.72 304.11 162.52 338.62 146.92C373.13 131.32 417.14 135.49 419.62 185.09C422.1 234.69 381.75 293.33 317.57 310.68C253.39 328.03 253.41 389.44 168.47 377.05C122.16 370.3 121.11 320.19 127.65 278.75C134.19 237.31 55.71 172.12 88.09 103.18Z" fill="white"/>
<path d="M250 427.56C357.082 427.56 443.89 422.492 443.89 416.24C443.89 409.988 357.082 404.92 250 404.92C142.918 404.92 56.11 409.988 56.11 416.24C56.11 422.492 142.918 427.56 250 427.56Z" fill="#F5F5F5"/>
<path d="M322.96 418.15H266.71L265.92 408.32H323.75L322.96 418.15Z" fill="#3850CD"/>
<path opacity="0.2" d="M322.96 418.15H266.71L265.92 408.32H323.75L322.96 418.15Z" fill="black"/>
<path opacity="0.2" d="M317.95 418.15H266.71L265.92 408.32H318.6L317.95 418.15Z" fill="black"/>
<path d="M301.37 411.55H298.61C297.27 411.55 296.18 413.23 296.18 415.31C296.18 417.39 297.27 419.07 298.61 419.07H301.37C302.71 419.07 303.8 417.39 303.8 415.31C303.8 413.23 302.71 411.55 301.37 411.55Z" fill="#263238"/>
<path opacity="0.2" d="M303.8 415.31C303.8 417.39 302.71 419.07 301.37 419.07C300.03 419.07 298.94 417.39 298.94 415.31C298.94 413.23 300.03 411.55 301.37 411.55C302.71 411.55 303.8 413.23 303.8 415.31Z" fill="white"/>
<path d="M257 411.55H254.24C252.9 411.55 251.81 413.23 251.81 415.31C251.81 417.39 252.9 419.07 254.24 419.07H257C258.34 419.07 259.42 417.39 259.42 415.31C259.42 413.23 258.29 411.55 257 411.55Z" fill="#263238"/>
<path opacity="0.2" d="M259.37 415.31C259.37 417.39 258.29 419.07 256.95 419.07C255.61 419.07 254.52 417.39 254.52 415.31C254.52 413.23 255.61 411.55 256.95 411.55C258.29 411.55 259.37 413.23 259.37 415.31Z" fill="white"/>
<path d="M327.86 267.15H284C283.421 267.187 282.841 267.088 282.308 266.859C281.775 266.631 281.303 266.279 280.93 265.834C280.558 265.389 280.296 264.862 280.166 264.297C280.036 263.731 280.04 263.143 280.18 262.58L290.18 213.85C290.494 212.569 291.222 211.427 292.25 210.6C293.279 209.774 294.551 209.31 295.87 209.28H339.73C347.03 209.28 351.78 214.96 350.34 221.97L343.66 254.46C342.25 261.47 335.16 267.15 327.86 267.15Z" fill="#3850CD"/>
<path opacity="0.2" d="M327.86 267.15H284C283.421 267.187 282.841 267.088 282.308 266.859C281.775 266.631 281.303 266.279 280.93 265.834C280.558 265.389 280.296 264.862 280.166 264.297C280.036 263.731 280.04 263.143 280.18 262.58L290.18 213.85C290.494 212.569 291.222 211.427 292.25 210.6C293.279 209.774 294.551 209.31 295.87 209.28H339.73C347.03 209.28 351.78 214.96 350.34 221.97L343.66 254.46C342.25 261.47 335.16 267.15 327.86 267.15Z" fill="white"/>
<path d="M331.08 268.88H275.49C274.911 268.919 274.332 268.821 273.798 268.594C273.265 268.366 272.793 268.016 272.42 267.572C272.048 267.127 271.786 266.601 271.655 266.036C271.525 265.471 271.53 264.883 271.67 264.32L282.42 212.11C282.736 210.831 283.464 209.691 284.493 208.866C285.521 208.042 286.792 207.58 288.11 207.55H343.7C344.279 207.511 344.858 207.609 345.392 207.836C345.925 208.064 346.397 208.414 346.77 208.858C347.142 209.303 347.404 209.829 347.535 210.394C347.665 210.959 347.66 211.547 347.52 212.11L336.78 264.32C336.464 265.601 335.734 266.742 334.703 267.567C333.673 268.391 332.399 268.853 331.08 268.88V268.88Z" fill="#3850CD"/>
<path opacity="0.2" d="M345.67 212.11L344.67 216.96L334.92 264.32C334.727 265.104 334.282 265.802 333.653 266.308C333.025 266.814 332.247 267.099 331.44 267.12H275.86C275.505 267.143 275.15 267.081 274.823 266.941C274.496 266.801 274.206 266.586 273.977 266.314C273.749 266.041 273.587 265.719 273.506 265.373C273.425 265.026 273.426 264.666 273.51 264.32L284.26 212.11C284.455 211.326 284.902 210.629 285.533 210.125C286.164 209.621 286.943 209.338 287.75 209.32H343.34C343.694 209.295 344.049 209.354 344.376 209.493C344.703 209.631 344.992 209.846 345.219 210.118C345.447 210.391 345.606 210.714 345.685 211.06C345.763 211.406 345.758 211.766 345.67 212.11V212.11Z" fill="black"/>
<path opacity="0.2" d="M345.67 212.11L344.67 216.96C326.67 216.61 292.67 216.11 291.83 217.18C290.74 218.63 275.83 267.12 275.83 267.12C275.475 267.143 275.12 267.081 274.793 266.941C274.466 266.801 274.176 266.586 273.947 266.314C273.719 266.041 273.557 265.719 273.476 265.373C273.395 265.026 273.396 264.666 273.48 264.32L284.23 212.11C284.425 211.326 284.872 210.629 285.503 210.125C286.134 209.621 286.913 209.338 287.72 209.32H343.31C343.667 209.29 344.025 209.345 344.356 209.482C344.687 209.618 344.98 209.832 345.211 210.105C345.442 210.378 345.604 210.703 345.684 211.052C345.764 211.401 345.759 211.763 345.67 212.11V212.11Z" fill="black"/>
<path d="M332.93 272L328.23 408.39C328.188 409.65 327.658 410.844 326.751 411.72C325.843 412.595 324.631 413.083 323.37 413.08H251.63C250.37 413.083 249.159 412.595 248.253 411.719C247.348 410.844 246.819 409.649 246.78 408.39L242.09 272H332.93Z" fill="#3850CD"/>
<path opacity="0.2" d="M332.93 272L328.23 408.39C328.188 409.65 327.658 410.844 326.751 411.72C325.843 412.595 324.631 413.083 323.37 413.08H306.85C305.591 413.081 304.381 412.592 303.476 411.716C302.571 410.841 302.042 409.648 302 408.39L297.31 272H332.93Z" fill="black"/>
<path d="M261.52 333L265.16 326.7L266.11 327.27L264.87 322.42L260 323.66L261.08 324.3L257.41 330.65C256.868 331.591 256.583 332.658 256.584 333.743C256.584 334.829 256.87 335.896 257.413 336.836C257.956 337.776 258.737 338.557 259.677 339.1C260.618 339.643 261.684 339.929 262.77 339.93H267.49V335.21H262.73C262.475 335.203 262.227 335.129 262.01 334.996C261.793 334.863 261.614 334.675 261.492 334.452C261.369 334.228 261.308 333.977 261.313 333.722C261.318 333.467 261.389 333.218 261.52 333V333Z" fill="white"/>
<path d="M271.6 317C271.858 317 272.112 317.069 272.335 317.199C272.558 317.329 272.743 317.515 272.87 317.74L276.82 324.57L275.82 325.13L280.66 326.43L281.96 321.59L280.87 322.22L277 315.4C276.458 314.459 275.678 313.678 274.738 313.134C273.797 312.591 272.731 312.305 271.645 312.305C270.559 312.305 269.493 312.591 268.552 313.134C267.612 313.678 266.832 314.459 266.29 315.4L263.58 320.09L267.64 322.49L270.38 317.76C270.5 317.538 270.675 317.351 270.889 317.218C271.103 317.085 271.348 317.01 271.6 317V317Z" fill="white"/>
<path d="M285.76 330.65L283.42 326.59L279.31 328.91L281.68 333.01C281.808 333.234 281.875 333.487 281.874 333.745C281.873 334.003 281.804 334.256 281.675 334.479C281.545 334.702 281.359 334.887 281.135 335.015C280.911 335.144 280.658 335.211 280.4 335.21H273.14V334.09L269.6 337.63L273.14 341.17V339.93H280.4C281.486 339.929 282.552 339.643 283.492 339.1C284.433 338.557 285.214 337.776 285.757 336.836C286.3 335.896 286.586 334.829 286.586 333.743C286.587 332.658 286.302 331.591 285.76 330.65V330.65Z" fill="white"/>
<path d="M333.31 268.33H242.29C241.428 268.33 240.73 269.028 240.73 269.89V278.2C240.73 279.062 241.428 279.76 242.29 279.76H333.31C334.172 279.76 334.87 279.062 334.87 278.2V269.89C334.87 269.028 334.172 268.33 333.31 268.33Z" fill="#3850CD"/>
<path opacity="0.2" d="M298.33 268.33H242.29C241.428 268.33 240.73 269.028 240.73 269.89V278.2C240.73 279.062 241.428 279.76 242.29 279.76H298.33C299.192 279.76 299.89 279.062 299.89 278.2V269.89C299.89 269.028 299.192 268.33 298.33 268.33Z" fill="white"/>
<path d="M381.82 260H342.37L344.32 257.41C345.644 255.663 347.353 254.245 349.315 253.267C351.277 252.288 353.438 251.776 355.63 251.77H368.56C370.751 251.776 372.91 252.288 374.87 253.267C376.831 254.245 378.538 255.663 379.86 257.41L381.82 260ZM348.27 257.24H375.92C373.86 255.503 371.254 254.548 368.56 254.54H355.63C352.94 254.535 350.335 255.476 348.27 257.2V257.24Z" fill="#263238"/>
<path d="M406.56 270.37V273.81H317.14V270.37C317.141 268.44 317.523 266.528 318.263 264.745C319.003 262.962 320.087 261.343 321.453 259.978C322.819 258.614 324.44 257.533 326.224 256.795C328.008 256.058 329.92 255.679 331.85 255.68H391.85C393.78 255.679 395.692 256.058 397.476 256.795C399.26 257.533 400.881 258.614 402.247 259.978C403.613 261.343 404.697 262.962 405.437 264.745C406.177 266.528 406.559 268.44 406.56 270.37Z" fill="#263238"/>
<path opacity="0.2" d="M406.56 270.37V273.81H372.37V270.37C372.373 266.473 373.923 262.737 376.679 259.982C379.436 257.227 383.173 255.68 387.07 255.68H391.86C395.757 255.68 399.494 257.227 402.251 259.982C405.007 262.737 406.557 266.473 406.56 270.37V270.37Z" fill="black"/>
<path d="M396.59 418.15H340.34L339.55 408.32H397.38L396.59 418.15Z" fill="#263238"/>
<path opacity="0.2" d="M396.59 418.15H340.34L339.55 408.32H397.38L396.59 418.15Z" fill="black"/>
<path opacity="0.2" d="M391.58 418.15H340.34L339.55 408.32H392.23L391.58 418.15Z" fill="black"/>
<path d="M375 411.55H372.24C370.9 411.55 369.81 413.23 369.81 415.31C369.81 417.39 370.9 419.07 372.24 419.07H375C376.34 419.07 377.42 417.39 377.42 415.31C377.42 413.23 376.34 411.55 375 411.55Z" fill="#263238"/>
<path opacity="0.2" d="M377.42 415.31C377.42 417.39 376.34 419.07 375 419.07C373.66 419.07 372.57 417.39 372.57 415.31C372.57 413.23 373.66 411.55 375 411.55C376.34 411.55 377.42 413.23 377.42 415.31Z" fill="white"/>
<path d="M330.58 411.55H327.82C326.48 411.55 325.39 413.23 325.39 415.31C325.39 417.39 326.48 419.07 327.82 419.07H330.58C331.92 419.07 333 417.39 333 415.31C333 413.23 331.92 411.55 330.58 411.55Z" fill="#263238"/>
<path opacity="0.2" d="M333 415.31C333 417.39 331.92 419.07 330.58 419.07C329.24 419.07 328.15 417.39 328.15 415.31C328.15 413.23 329.24 411.55 330.58 411.55C331.92 411.55 333 413.23 333 415.31Z" fill="white"/>
<path d="M406.56 272L401.86 408.39C401.818 409.65 401.288 410.844 400.381 411.72C399.473 412.595 398.261 413.083 397 413.08H325.26C324 413.083 322.789 412.595 321.883 411.719C320.978 410.844 320.449 409.649 320.41 408.39L315.72 272H406.56Z" fill="#263238"/>
<path opacity="0.2" d="M406.56 272L401.86 408.39C401.818 409.65 401.288 410.844 400.381 411.72C399.473 412.595 398.261 413.083 397 413.08H380.48C379.221 413.081 378.011 412.592 377.106 411.716C376.201 410.841 375.672 409.648 375.63 408.39L370.94 272H406.56Z" fill="black"/>
<path d="M335.15 333L338.79 326.7L339.74 327.27L338.5 322.42L333.65 323.65L334.73 324.29L331.06 330.64C330.518 331.581 330.233 332.648 330.234 333.733C330.234 334.819 330.52 335.886 331.063 336.826C331.606 337.766 332.387 338.547 333.328 339.09C334.268 339.633 335.334 339.919 336.42 339.92H341.14V335.2H336.38C336.125 335.195 335.876 335.123 335.657 334.992C335.439 334.861 335.258 334.675 335.134 334.453C335.01 334.23 334.946 333.979 334.948 333.724C334.951 333.469 335.021 333.22 335.15 333V333Z" fill="white"/>
<path d="M345.23 317C345.488 317 345.742 317.069 345.965 317.199C346.188 317.329 346.373 317.515 346.5 317.74L350.44 324.57L349.44 325.13L354.28 326.43L355.58 321.59L354.49 322.22L350.54 315.38C349.998 314.439 349.218 313.658 348.278 313.114C347.337 312.571 346.271 312.285 345.185 312.285C344.099 312.285 343.033 312.571 342.092 313.114C341.152 313.658 340.372 314.439 339.83 315.38L337.12 320.07L341.18 322.47L343.92 317.74C344.05 317.509 344.241 317.317 344.471 317.187C344.702 317.056 344.965 316.992 345.23 317Z" fill="white"/>
<path d="M359.39 330.65L357.05 326.59L352.94 328.91L355.31 333.01C355.438 333.234 355.505 333.487 355.504 333.745C355.503 334.003 355.434 334.256 355.305 334.479C355.175 334.702 354.989 334.887 354.765 335.015C354.541 335.144 354.288 335.211 354.03 335.21H346.77V334.09L343.23 337.63L346.77 341.17V339.93H354C355.086 339.929 356.152 339.643 357.092 339.1C358.033 338.557 358.814 337.776 359.357 336.836C359.9 335.896 360.186 334.829 360.186 333.743C360.187 332.658 359.902 331.591 359.36 330.65H359.39Z" fill="white"/>
<path d="M406.94 268.33H315.92C315.058 268.33 314.36 269.028 314.36 269.89V278.2C314.36 279.062 315.058 279.76 315.92 279.76H406.94C407.802 279.76 408.5 279.062 408.5 278.2V269.89C408.5 269.028 407.802 268.33 406.94 268.33Z" fill="#263238"/>
<path opacity="0.2" d="M371.96 268.33H315.92C315.058 268.33 314.36 269.028 314.36 269.89V278.2C314.36 279.062 315.058 279.76 315.92 279.76H371.96C372.822 279.76 373.52 279.062 373.52 278.2V269.89C373.52 269.028 372.822 268.33 371.96 268.33Z" fill="white"/>
<g filter="url(#filter0_d_1_2)">
<path d="M126.992 328.585L125.653 331.542L130.824 333.872L132.158 330.923C132.336 330.53 132.594 330.179 132.916 329.891C133.238 329.604 133.616 329.386 134.027 329.253C134.437 329.12 134.815 328.902 135.136 328.615C135.458 328.327 135.716 327.976 135.895 327.583L146.598 303.899C146.776 303.503 146.789 303.052 146.635 302.646C146.481 302.24 146.172 301.912 145.776 301.733L139.897 299.074C139.501 298.896 139.05 298.883 138.644 299.037C138.238 299.191 137.91 299.5 137.731 299.896L127.01 323.571C126.83 323.962 126.736 324.388 126.732 324.818C126.728 325.249 126.815 325.676 126.988 326.071C127.17 326.465 127.265 326.893 127.266 327.327C127.267 327.761 127.173 328.19 126.992 328.585Z" fill="#FFD700"/>
</g>
<g filter="url(#filter1_d_1_2)">
<path d="M135.992 335.585L134.653 338.542L139.824 340.872L141.158 337.923C141.336 337.53 141.594 337.179 141.916 336.891C142.238 336.604 142.616 336.386 143.027 336.253C143.437 336.12 143.815 335.902 144.136 335.615C144.458 335.327 144.716 334.976 144.895 334.583L155.598 310.899C155.776 310.503 155.789 310.052 155.635 309.646C155.481 309.24 155.172 308.912 154.776 308.733L148.897 306.074C148.501 305.896 148.05 305.883 147.644 306.037C147.238 306.191 146.91 306.5 146.731 306.896L136.01 330.571C135.83 330.962 135.736 331.388 135.732 331.818C135.728 332.249 135.815 332.676 135.988 333.071C136.17 333.465 136.265 333.893 136.266 334.327C136.267 334.761 136.173 335.19 135.992 335.585Z" fill="#FFD700"/>
</g>
<g filter="url(#filter2_d_1_2)">
<path d="M130.416 334.237L131.065 337.418L136.62 336.274L135.973 333.104C135.887 332.681 135.89 332.245 135.982 331.823C136.074 331.401 136.253 331.004 136.508 330.655C136.762 330.307 136.94 329.909 137.033 329.488C137.125 329.066 137.128 328.63 137.043 328.207L131.832 302.744C131.744 302.319 131.49 301.946 131.128 301.707C130.765 301.469 130.322 301.384 129.896 301.471L123.574 302.763C123.149 302.851 122.776 303.104 122.537 303.467C122.299 303.83 122.214 304.273 122.301 304.698L127.492 330.164C127.576 330.587 127.748 330.987 127.998 331.338C128.247 331.689 128.568 331.984 128.939 332.203C129.318 332.415 129.646 332.706 129.901 333.058C130.156 333.409 130.332 333.811 130.416 334.237Z" fill="#FFD700"/>
</g>
<g filter="url(#filter3_d_1_2)">
<path d="M119.416 332.237L120.065 335.418L125.62 334.274L124.973 331.104C124.887 330.681 124.89 330.245 124.982 329.823C125.074 329.401 125.253 329.004 125.508 328.655C125.762 328.307 125.94 327.909 126.033 327.488C126.125 327.066 126.128 326.63 126.043 326.207L120.832 300.744C120.744 300.319 120.49 299.946 120.128 299.707C119.765 299.469 119.322 299.384 118.896 299.471L112.574 300.763C112.149 300.851 111.776 301.104 111.537 301.467C111.299 301.83 111.214 302.273 111.301 302.698L116.492 328.164C116.576 328.587 116.748 328.987 116.998 329.338C117.247 329.689 117.568 329.984 117.939 330.203C118.318 330.415 118.646 330.706 118.901 331.058C119.156 331.409 119.332 331.811 119.416 332.237Z" fill="#FFD700"/>
</g>
<path opacity="0.6" d="M138.22 316.37L135.89 323.64C135.826 323.848 135.803 324.067 135.824 324.284C135.846 324.5 135.91 324.711 136.013 324.903C136.116 325.094 136.257 325.264 136.426 325.401C136.596 325.537 136.791 325.639 137 325.7L143.14 327.7C143.345 327.767 143.562 327.792 143.778 327.775C143.993 327.758 144.203 327.699 144.395 327.6C144.588 327.502 144.759 327.366 144.899 327.201C145.038 327.037 145.144 326.846 145.21 326.64L147.54 319.37L138.22 316.37Z" fill="white"/>
<path opacity="0.6" d="M120 321.44L117.67 328.71C117.603 328.915 117.578 329.131 117.595 329.345C117.612 329.56 117.672 329.769 117.77 329.961C117.869 330.153 118.004 330.323 118.169 330.462C118.334 330.6 118.525 330.705 118.73 330.77L124.87 332.77C125.075 332.837 125.292 332.862 125.508 332.845C125.723 332.828 125.933 332.769 126.125 332.67C126.318 332.572 126.489 332.436 126.629 332.271C126.768 332.107 126.874 331.916 126.94 331.71L129.27 324.44L120 321.44Z" fill="white"/>
<path opacity="0.6" d="M131.29 323.43L131.77 331.05C131.798 331.484 131.997 331.89 132.323 332.178C132.649 332.467 133.075 332.615 133.51 332.59L139.95 332.18C140.165 332.167 140.376 332.112 140.569 332.017C140.763 331.923 140.936 331.791 141.078 331.629C141.22 331.467 141.329 331.279 141.398 331.075C141.467 330.871 141.495 330.655 141.48 330.44L141 322.82L131.29 323.43Z" fill="white"/>
<path opacity="0.6" d="M127.08 332.5L132.08 338.32C132.361 338.651 132.763 338.857 133.196 338.893C133.629 338.928 134.058 338.791 134.39 338.51L139.3 334.33C139.465 334.191 139.601 334.021 139.7 333.83C139.799 333.639 139.859 333.429 139.877 333.215C139.895 333 139.87 332.784 139.803 332.578C139.737 332.373 139.63 332.184 139.49 332.02L134.55 326.2L127.08 332.5Z" fill="white"/>
<path d="M138.36 419.07C138.36 419.07 187.68 417.23 193.12 417.23C198.56 417.23 194.34 412.78 194.34 412.78C194.34 412.78 195.23 397.56 194.34 391.78C193.45 386 178.05 344.91 167.55 335.21C157.05 325.51 157.16 321.86 157.16 321.86C157.16 321.86 158.82 322.22 158.82 319.11C158.82 316.32 147.58 311.8 139.47 311.19C134.03 310.79 121.36 315.41 115.17 315.8C108.98 316.19 92.92 336.8 95.27 340.63C96.06 341.94 109.59 337.8 109.59 337.8C109.186 344.199 108.252 350.554 106.8 356.8C104.61 365.18 99.15 379.72 99.15 387.92C99.15 396.12 106.07 412.56 106.07 412.56C106.07 412.56 103.15 414.56 103.15 416.17C103.15 417.78 112.26 417.09 112.26 417.09C112.26 417.09 129.62 419.07 138.36 419.07Z" fill="#263238"/>
<path opacity="0.5" d="M193.11 417.23C187.68 417.23 138.36 419.07 138.36 419.07C129.63 419.07 112.26 417.07 112.26 417.07C112.26 417.07 103.16 417.8 103.16 416.15C103.16 414.5 106.07 412.54 106.07 412.54C106.07 412.54 103.69 406.9 101.73 400.54C100.34 396.07 99.15 391.25 99.15 387.86C99.15 379.66 104.61 365.1 106.79 356.74C108.248 350.495 109.184 344.14 109.59 337.74V337.74C105.652 338.972 101.645 339.974 97.59 340.74C96.35 340.9 95.46 340.89 95.28 340.59C92.93 336.72 108.99 316.15 115.18 315.76C121.37 315.37 134.04 310.76 139.49 311.16C147.58 311.75 158.82 316.27 158.82 319.07C158.82 322.18 157.17 321.82 157.17 321.82C157.17 321.82 157.06 325.47 167.56 335.17C178.06 344.87 193.46 385.91 194.35 391.74C194.55 393.309 194.667 394.888 194.7 396.47C194.9 403.32 194.35 412.78 194.35 412.78C194.35 412.78 198.55 417.23 193.11 417.23Z" fill="white"/>
<path opacity="0.2" d="M118.41 325.92C114.63 328.16 109.59 337.76 109.59 337.76C105.652 338.992 101.645 339.994 97.59 340.76C102.84 332.57 114.63 327.41 118.41 325.92Z" fill="black"/>
<path opacity="0.2" d="M119.58 325.48C119.48 325.48 119.07 325.65 118.41 325.92C118.765 325.693 119.163 325.543 119.58 325.48V325.48Z" fill="black"/>
<path opacity="0.2" d="M157.16 321.82C157.16 321.82 145.89 316.49 141.45 315.76C137.01 315.03 120.75 320.62 120.75 320.62C120.75 320.62 135.94 311.88 141.45 313.09C146.96 314.3 155.58 318.26 157.16 321.82Z" fill="black"/>
<path opacity="0.2" d="M193.11 417.23C187.68 417.23 138.36 419.07 138.36 419.07C129.63 419.07 112.26 417.07 112.26 417.07C112.26 417.07 103.16 417.8 103.16 416.15C103.16 414.5 106.07 412.54 106.07 412.54C106.07 412.54 103.69 406.9 101.73 400.54C111.46 406.25 125.33 412.64 138.96 412.87C138.96 412.87 120.63 404.98 116.69 396.15C116.69 396.15 143.03 410.15 149.69 410.5C156.35 410.85 183.34 413.45 185.77 409.73C187.29 407.4 191.61 400.93 194.65 396.42C194.85 403.27 194.3 412.73 194.3 412.73C194.3 412.73 198.55 417.23 193.11 417.23Z" fill="black"/>
<path d="M204.66 401.16L209.58 401.24C214.58 377.78 218.1 348.75 220.3 326.86C220.64 323.42 220.96 320.18 221.23 317.15C221.36 315.7 221.49 314.32 221.6 312.99C222.19 306.4 222.6 301.18 222.84 297.99C223.02 295.63 223.11 294.34 223.11 294.34H205.35L205.52 298.86L206.07 313.79L206.12 315.5L206.5 325.36L207.11 342.14C201 365.74 204.66 401.16 204.66 401.16Z" fill="#EBB376"/>
<path d="M164.83 399.9L169.67 400.81C179.35 376.61 188.45 345.62 194.36 323.97C195.27 320.62 196.12 317.48 196.87 314.63C196.87 314.49 196.94 314.35 196.98 314.21C198.47 308.56 199.62 304.06 200.34 301.21L201.19 297.75L183.69 294.75L182.69 302.11L181.23 312.92L181 315L180 322.36L177.34 342.12C167.28 364.38 164.83 399.9 164.83 399.9Z" fill="#EBB376"/>
<path opacity="0.2" d="M181.24 312.89L196.87 314.63C196.87 314.49 196.94 314.35 196.98 314.21C198.47 308.56 199.62 304.06 200.34 301.21L182.7 302.09L181.24 312.89Z" fill="black"/>
<path opacity="0.2" d="M205.52 298.83L206.07 313.76L206.12 315.47L221.23 317.15C221.36 315.7 221.49 314.32 221.6 312.99C222.19 306.4 222.6 301.18 222.84 297.99L205.52 298.83Z" fill="black"/>
<path d="M219.17 417.46C218.259 416.717 217.218 416.151 216.1 415.79V415.79C216.1 415.79 212.75 412.47 211.1 402.48L206.72 401.34C205.975 401.155 205.191 401.205 204.475 401.482C203.759 401.76 203.146 402.251 202.72 402.89C202.597 403.068 202.503 403.263 202.44 403.47C202.213 404.542 202.056 405.628 201.97 406.72C201.726 410.382 201.706 414.056 201.91 417.72H202.7L203.02 410.83C203.13 408.49 204.92 411.23 205.43 413.75C205.94 416.27 207.03 418.95 212.16 419.07C218.2 419.16 220.68 418.93 219.17 417.46Z" fill="#263238"/>
<path d="M202.63 403C202.34 400.67 202.25 396.6 202.25 396.6L211.98 397.68C211.98 397.68 210.8 402.3 211.77 405.77C206.87 404.46 202.63 403 202.63 403Z" fill="#263238"/>
<path d="M179.58 417.46C178.666 416.717 177.621 416.151 176.5 415.79V415.79C176.5 415.79 173.16 412.47 171.55 402.48L167.17 401.34C166.425 401.155 165.641 401.205 164.925 401.482C164.209 401.76 163.596 402.251 163.17 402.89C163.047 403.068 162.953 403.263 162.89 403.47C162.663 404.542 162.506 405.628 162.42 406.72C162.176 410.382 162.156 414.056 162.36 417.72H163.15L163.46 410.83C163.58 408.49 165.37 411.23 165.88 413.75C166.39 416.27 167.48 418.95 172.61 419.07C178.61 419.16 181.09 418.93 179.58 417.46Z" fill="#263238"/>
<path d="M163 403C162.72 400.67 162.63 396.6 162.63 396.6L172.36 397.68C172.36 397.68 171.18 402.3 172.15 405.77C167.28 404.46 163 403 163 403Z" fill="#263238"/>
<path d="M179.55 308.07L198.06 310.44L198.78 310.52L202.58 296.57L203.58 311.52L223.42 310.52C232.26 258.66 217.15 246.41 217.15 246.41L190.24 251.82C178.06 272.5 181 296.57 181 296.57L179.55 308.07Z" fill="#3850CD"/>
<path opacity="0.5" d="M179.55 308.07L198.06 310.44L198.78 310.52L202.58 296.57L203.58 311.52L223.42 310.52C232.26 258.66 217.15 246.41 217.15 246.41L190.24 251.82C178.06 272.5 181 296.57 181 296.57L179.55 308.07Z" fill="white"/>
<path opacity="0.2" d="M198.06 310.44L198.78 310.52L202.58 296.57C202.58 296.57 194.42 282.63 196.97 275.37C196.61 275.88 187.82 288.92 198.06 310.44Z" fill="black"/>
<g filter="url(#filter4_d_1_2)">
<path d="M251.67 182.81L251.47 179.57L245.81 179.93L246.01 183.16C246.037 183.591 245.973 184.022 245.823 184.427C245.673 184.831 245.441 185.2 245.14 185.51C244.84 185.82 244.608 186.189 244.458 186.593C244.308 186.998 244.244 187.429 244.27 187.86L245.89 213.8C245.918 214.233 246.117 214.638 246.444 214.925C246.77 215.212 247.196 215.357 247.63 215.33L254.07 214.93C254.503 214.902 254.908 214.703 255.195 214.376C255.482 214.05 255.627 213.624 255.6 213.19L254 187.25C253.975 186.82 253.86 186.4 253.662 186.017C253.464 185.635 253.187 185.298 252.85 185.03C252.504 184.767 252.22 184.433 252.016 184.05C251.812 183.666 251.694 183.243 251.67 182.81Z" fill="#FFD700"/>
</g>
<path d="M175.27 219.63C175.27 219.63 172.27 234.73 169.01 237.77C165.75 240.81 150.79 225.34 150.79 225.34L147.85 228.49C147.85 228.49 162.58 247.93 170.48 244.61C178.38 241.29 184.67 223.67 184.67 223.67L175.27 219.63Z" fill="#EBB376"/>
<path d="M176.8 213.44L171.78 225.11L183.01 232.8L190.79 225.11L176.8 213.44Z" fill="#3850CD"/>
<path opacity="0.2" d="M171.78 225.12L178.43 229.67L183.01 232.8L186.78 229.07L190.78 225.12L176.8 213.44L171.78 225.12Z" fill="white"/>
<path opacity="0.2" d="M178.43 229.67L183 232.8L186.77 229.07C183.22 224.07 179.19 219.3 179.19 219.3C178.144 222.653 177.884 226.201 178.43 229.67V229.67Z" fill="black"/>
<path d="M221.8 211.07C221.8 211.07 231.97 222.6 236.34 223.57C240.71 224.54 245.81 203.65 245.81 203.65L249.94 204.88C249.94 204.88 247 229.1 238.53 230.22C230.06 231.34 215.71 219.3 215.71 219.3L221.8 211.07Z" fill="#EBB376"/>
<path d="M206.59 183.36C207.1 184.712 207.772 185.998 208.59 187.19C208.297 187.506 207.923 187.735 207.508 187.853C207.094 187.971 206.656 187.973 206.24 187.86L206.59 183.36Z" fill="#D58745"/>
<path d="M207.72 181.19C207.72 181.89 207.42 182.48 206.96 182.51C206.5 182.54 206.08 182 206.03 181.3C205.98 180.6 206.32 180.01 206.79 179.98C207.26 179.95 207.67 180.49 207.72 181.19Z" fill="#263238"/>
<path d="M206.59 180L208.07 179.3C208.07 179.3 207.4 180.66 206.59 180Z" fill="#263238"/>
<path d="M208.31 177.48C208.248 177.499 208.182 177.499 208.12 177.48C207.677 177.164 207.167 176.953 206.63 176.863C206.093 176.773 205.542 176.806 205.02 176.96C204.931 176.993 204.832 176.991 204.745 176.954C204.657 176.917 204.588 176.847 204.55 176.76C204.513 176.672 204.513 176.574 204.548 176.486C204.584 176.398 204.653 176.327 204.74 176.29C205.367 176.093 206.031 176.041 206.681 176.14C207.331 176.239 207.95 176.485 208.49 176.86C208.532 176.884 208.569 176.916 208.598 176.954C208.627 176.992 208.649 177.036 208.661 177.082C208.673 177.129 208.675 177.178 208.668 177.225C208.662 177.273 208.645 177.319 208.62 177.36C208.581 177.403 208.533 177.436 208.479 177.457C208.425 177.478 208.367 177.486 208.31 177.48V177.48Z" fill="#263238"/>
<path d="M207.05 185.69C205.78 185.69 204.78 183.96 204.78 181.75C204.78 179.54 205.78 177.81 207.05 177.81C208.32 177.81 209.32 179.54 209.32 181.75C209.32 183.96 208.32 185.69 207.05 185.69ZM207.05 178.31C206.05 178.31 205.28 179.88 205.28 181.75C205.28 183.62 206.09 185.19 207.05 185.19C208.01 185.19 208.82 183.61 208.82 181.75C208.82 179.89 208 178.31 207.05 178.31Z" fill="#263238"/>
<path d="M191.74 194.1C191.813 194.166 191.893 194.224 191.98 194.27C193.098 195.128 194.377 195.753 195.74 196.11C199.74 197.03 202.43 196.49 204.2 194.69C206.68 191.99 207.3 187.21 206.95 181.45C206.893 179.15 206.468 176.875 205.69 174.71C205.69 174.71 205.69 174.63 205.69 174.61C205.661 174.528 205.628 174.448 205.59 174.37C205.103 173.151 204.319 172.072 203.31 171.232C202.301 170.392 201.098 169.817 199.81 169.56C198.69 169.314 197.547 169.187 196.4 169.18C185.15 169.06 183.13 187.68 191.74 194.1Z" fill="#EBB376"/>
<path opacity="0.2" d="M192 194.27C193.129 195.077 194.407 195.651 195.76 195.96C199.76 196.87 202.45 196.2 204.22 194.37C201.844 194.962 199.339 194.758 197.09 193.79C196.261 193.479 195.372 193.361 194.49 193.445C193.608 193.528 192.757 193.81 192 194.27V194.27Z" fill="black"/>
<path d="M190.84 204.43C190.14 207.63 194.29 208.93 194.29 208.93C201.07 206.04 202.29 202.43 202.29 202.43C196.63 199.43 198.29 191.14 198.29 191.14L197.14 191.7L189.06 193.28C189.06 193.28 191.3 197.58 191.6 198.56C193.15 203.72 190.84 204.43 190.84 204.43Z" fill="#EBB376"/>
<path d="M205.7 174.64C205.7 174.64 206.32 182.52 198.85 185.91C198.85 185.91 195.65 194.1 190.92 194.21C184.49 194.37 178.81 185.21 181.04 175.88C183.93 163.78 202.26 162.8 205.7 174.64Z" fill="#263238"/>
<path d="M202.64 183.64C202.64 182.41 201.64 180.35 199.73 180.64C197.82 180.93 196.66 185.81 201.52 186.9C202.22 187 202.64 186.21 202.64 183.64Z" fill="#EBB376"/>
<path d="M192 166.26C192 166.26 199.52 164.36 203.67 167.38C208.53 170.91 210.37 174.57 204.62 180.24C204.62 180.24 192 176.14 187.8 177.01C185.347 177.508 182.939 178.207 180.6 179.1C179.7 170.76 187.78 164.56 192 166.26Z" fill="#263238"/>
<path d="M209.07 181.42H201.52C201.454 181.418 201.392 181.39 201.346 181.344C201.3 181.298 201.272 181.236 201.27 181.17C201.27 181.104 201.296 181.04 201.343 180.993C201.39 180.946 201.454 180.92 201.52 180.92H209.07C209.136 180.92 209.2 180.946 209.247 180.993C209.294 181.04 209.32 181.104 209.32 181.17C209.32 181.236 209.294 181.3 209.247 181.347C209.2 181.394 209.136 181.42 209.07 181.42Z" fill="#263238"/>
<g filter="url(#filter5_d_1_2)">
<path d="M159.682 211.846L161.624 209.245L157.074 205.859L155.138 208.452C154.88 208.798 154.552 209.086 154.176 209.298C153.8 209.51 153.384 209.641 152.955 209.682C152.525 209.725 152.11 209.856 151.734 210.068C151.358 210.279 151.03 210.567 150.771 210.912L135.231 231.745C134.973 232.094 134.863 232.531 134.926 232.961C134.99 233.391 135.221 233.778 135.569 234.037L140.74 237.897C141.089 238.156 141.526 238.266 141.956 238.202C142.386 238.139 142.773 237.908 143.032 237.559L158.587 216.739C158.847 216.395 159.031 216 159.127 215.58C159.223 215.16 159.23 214.725 159.146 214.302C159.052 213.878 159.052 213.439 159.144 213.015C159.236 212.591 159.42 212.192 159.682 211.846Z" fill="#FFD700"/>
</g>
<path d="M186.41 171C186.41 171 178.63 164.52 172.08 169.23C164 175 173 197.38 173.54 203C174.08 208.62 171.35 211.12 171.35 211.12C171.35 211.12 177.35 211.25 179.55 201.72C181.75 192.19 174.97 176.23 183.63 178.11L186.41 171Z" fill="#263238"/>
<path d="M213.34 203.65C213.34 203.65 204.34 200.65 190.84 204.32C177.34 207.99 176.84 213.44 176.84 213.44C176.84 213.44 185.41 231.77 186.76 252.53L222 251.28C222 251.28 226.19 222 213.34 203.65Z" fill="#3850CD"/>
<path opacity="0.2" d="M176.8 213.43C176.8 213.43 185.38 231.77 186.73 252.53L222 251.29C222.42 247.923 222.634 244.533 222.64 241.14C222.707 236.158 222.372 231.178 221.64 226.25C220.47 218.57 218.04 210.37 213.33 203.65C213.33 203.65 204.33 200.65 190.83 204.32C177.33 207.99 176.8 213.43 176.8 213.43Z" fill="white"/>
<path opacity="0.2" d="M213.24 219.3C213.24 219.3 215.3 235.94 222.63 241.14C222.697 236.158 222.362 231.178 221.63 226.25L213.24 219.3Z" fill="black"/>
<path d="M213.34 203.65C223.81 207.95 231.61 216.46 231.61 216.46L223.11 226.88C223.11 226.88 218.87 226 216.32 223.69C208.79 216.91 213.34 203.65 213.34 203.65Z" fill="#3850CD"/>
<path opacity="0.2" d="M213.34 203.65C223.81 207.95 231.61 216.46 231.61 216.46L223.11 226.88C223.11 226.88 218.87 226 216.32 223.69C208.79 216.91 213.34 203.65 213.34 203.65Z" fill="white"/>
<path d="M245.55 204.68C245.606 203.681 245.606 202.679 245.55 201.68C245.45 200.34 252.18 193.02 253.27 193.4C254.36 193.78 256.73 198.47 256.01 200.04C255.29 201.61 250.01 206.35 248.72 206.71C247.43 207.07 245.55 204.68 245.55 204.68Z" fill="#EBB376"/>
<path d="M151.52 229.33C151.465 228.331 151.465 227.329 151.52 226.33C151.62 225 144.89 217.68 143.8 218.06C142.71 218.44 140.34 223.13 141.07 224.7C141.8 226.27 147.07 231 148.35 231.37C149.63 231.74 151.52 229.33 151.52 229.33Z" fill="#EBB376"/>
<rect x="242" y="176.789" width="11.7013" height="9" transform="rotate(-3.8679 242 176.789)" fill="#EBEDFA"/>
<rect x="156.199" y="201" width="11.7013" height="9" transform="rotate(36.4258 156.199 201)" fill="#EBEDFA"/>
<path d="M151.278 216.457L149.791 215.335L149.948 215.127L151.392 214.848C151.608 214.804 151.769 214.757 151.875 214.708C151.982 214.658 152.069 214.59 152.136 214.501C152.226 214.383 152.263 214.259 152.249 214.129C152.234 213.999 152.167 213.888 152.048 213.798C151.904 213.69 151.762 213.647 151.62 213.668C151.48 213.69 151.355 213.773 151.245 213.919L150.956 213.701C151.114 213.492 151.309 213.374 151.54 213.346C151.772 213.319 152.001 213.391 152.227 213.561C152.438 213.721 152.562 213.902 152.601 214.106C152.641 214.309 152.591 214.502 152.452 214.686C152.283 214.909 151.94 215.068 151.422 215.161L150.317 215.362L151.456 216.222L151.278 216.457ZM153.377 216.845L153.691 217.083L153.514 217.318L153.199 217.08L152.801 217.607L152.511 217.388L152.909 216.862L151.876 216.081L152.004 215.911L154.208 215.106L154.515 215.338L153.377 216.845ZM152.381 216.093L153.087 216.626L153.927 215.513L153.846 215.55L152.381 216.093ZM154.824 217.478L154.329 217.557L153.75 218.324L153.451 218.098L155.165 215.829L155.464 216.055L154.616 217.177L156.472 216.816L156.834 217.089L155.184 217.417L155.19 219.412L154.832 219.141L154.824 217.478Z" fill="white"/>
<defs>
<filter id="filter0_d_1_2" x="124.653" y="295.93" width="29.089" height="42.9417" filterUnits="userSpaceOnUse" color-interpolation-filters="sRGB">
<feFlood flood-opacity="0" result="BackgroundImageFix"/>
<feColorMatrix in="SourceAlpha" type="matrix" values="0 0 0 0 0 0 0 0 0 0 0 0 0 0 0 0 0 0 127 0" result="hardAlpha"/>
<feOffset dx="3" dy="1"/>
<feGaussianBlur stdDeviation="2"/>
<feComposite in2="hardAlpha" operator="out"/>
<feColorMatrix type="matrix" values="0 0 0 0 1 0 0 0 0 0.843137 0 0 0 0 0 0 0 0 0.25 0"/>
<feBlend mode="normal" in2="BackgroundImageFix" result="effect1_dropShadow_1_2"/>
<feBlend mode="normal" in="SourceGraphic" in2="effect1_dropShadow_1_2" result="shape"/>
</filter>
<filter id="filter1_d_1_2" x="133.653" y="302.93" width="29.089" height="42.9417" filterUnits="userSpaceOnUse" color-interpolation-filters="sRGB">
<feFlood flood-opacity="0" result="BackgroundImageFix"/>
<feColorMatrix in="SourceAlpha" type="matrix" values="0 0 0 0 0 0 0 0 0 0 0 0 0 0 0 0 0 0 127 0" result="hardAlpha"/>
<feOffset dx="3" dy="1"/>
<feGaussianBlur stdDeviation="2"/>
<feComposite in2="hardAlpha" operator="out"/>
<feColorMatrix type="matrix" values="0 0 0 0 1 0 0 0 0 0.843137 0 0 0 0 0 0 0 0 0.25 0"/>
<feBlend mode="normal" in2="BackgroundImageFix" result="effect1_dropShadow_1_2"/>
<feBlend mode="normal" in="SourceGraphic" in2="effect1_dropShadow_1_2" result="shape"/>
</filter>
<filter id="filter2_d_1_2" x="121.268" y="298.438" width="22.8366" height="43.9801" filterUnits="userSpaceOnUse" color-interpolation-filters="sRGB">
<feFlood flood-opacity="0" result="BackgroundImageFix"/>
<feColorMatrix in="SourceAlpha" type="matrix" values="0 0 0 0 0 0 0 0 0 0 0 0 0 0 0 0 0 0 127 0" result="hardAlpha"/>
<feOffset dx="3" dy="1"/>
<feGaussianBlur stdDeviation="2"/>
<feComposite in2="hardAlpha" operator="out"/>
<feColorMatrix type="matrix" values="0 0 0 0 1 0 0 0 0 0.843137 0 0 0 0 0 0 0 0 0.25 0"/>
<feBlend mode="normal" in2="BackgroundImageFix" result="effect1_dropShadow_1_2"/>
<feBlend mode="normal" in="SourceGraphic" in2="effect1_dropShadow_1_2" result="shape"/>
</filter>
<filter id="filter3_d_1_2" x="110.268" y="296.438" width="22.8366" height="43.9801" filterUnits="userSpaceOnUse" color-interpolation-filters="sRGB">
<feFlood flood-opacity="0" result="BackgroundImageFix"/>
<feColorMatrix in="SourceAlpha" type="matrix" values="0 0 0 0 0 0 0 0 0 0 0 0 0 0 0 0 0 0 127 0" result="hardAlpha"/>
<feOffset dx="3" dy="1"/>
<feGaussianBlur stdDeviation="2"/>
<feComposite in2="hardAlpha" operator="out"/>
<feColorMatrix type="matrix" values="0 0 0 0 1 0 0 0 0 0.843137 0 0 0 0 0 0 0 0 0.25 0"/>
<feBlend mode="normal" in2="BackgroundImageFix" result="effect1_dropShadow_1_2"/>
<feBlend mode="normal" in="SourceGraphic" in2="effect1_dropShadow_1_2" result="shape"/>
</filter>
<filter id="filter4_d_1_2" x="242.264" y="179.57" width="15.3389" height="41.7633" filterUnits="userSpaceOnUse" color-interpolation-filters="sRGB">
<feFlood flood-opacity="0" result="BackgroundImageFix"/>
<feColorMatrix in="SourceAlpha" type="matrix" values="0 0 0 0 0 0 0 0 0 0 0 0 0 0 0 0 0 0 127 0" result="hardAlpha"/>
<feOffset dy="4"/>
<feGaussianBlur stdDeviation="1"/>
<feComposite in2="hardAlpha" operator="out"/>
<feColorMatrix type="matrix" values="0 0 0 0 1 0 0 0 0 0.843137 0 0 0 0 0 0 0 0 0.25 0"/>
<feBlend mode="normal" in2="BackgroundImageFix" result="effect1_dropShadow_1_2"/>
<feBlend mode="normal" in="SourceGraphic" in2="effect1_dropShadow_1_2" result="shape"/>
</filter>
<filter id="filter5_d_1_2" x="130.909" y="205.859" width="34.7156" height="40.3604" filterUnits="userSpaceOnUse" color-interpolation-filters="sRGB">
<feFlood flood-opacity="0" result="BackgroundImageFix"/>
<feColorMatrix in="SourceAlpha" type="matrix" values="0 0 0 0 0 0 0 0 0 0 0 0 0 0 0 0 0 0 127 0" result="hardAlpha"/>
<feOffset dy="4"/>
<feGaussianBlur stdDeviation="2"/>
<feComposite in2="hardAlpha" operator="out"/>
<feColorMatrix type="matrix" values="0 0 0 0 1 0 0 0 0 0.843137 0 0 0 0 0 0 0 0 0.25 0"/>
<feBlend mode="normal" in2="BackgroundImageFix" result="effect1_dropShadow_1_2"/>
<feBlend mode="normal" in="SourceGraphic" in2="effect1_dropShadow_1_2" result="shape"/>
</filter>
</defs>
</svg>
