<svg width="500" height="500" xmlns="http://www.w3.org/2000/svg" class="animated">
 <style>svg#freepik_stories-invoice:not(.animated) .animable {opacity: 0;}svg#freepik_stories-invoice.animated #freepik--background-complete--inject-33 {animation: 1s 1 forwards cubic-bezier(.36,-0.01,.5,1.38) zoomIn;animation-delay: 0s;}svg#freepik_stories-invoice.animated #freepik--Shadow--inject-33 {animation: 1s 1 forwards cubic-bezier(.36,-0.01,.5,1.38) lightSpeedRight;animation-delay: 0s;}svg#freepik_stories-invoice.animated #freepik--Invoice--inject-33 {animation: 1s 1 forwards cubic-bezier(.36,-0.01,.5,1.38) lightSpeedLeft;animation-delay: 0s;}svg#freepik_stories-invoice.animated #freepik--Character--inject-33 {animation: 1s 1 forwards cubic-bezier(.36,-0.01,.5,1.38) slideLeft;animation-delay: 0s;}            @keyframes zoomIn {                0% {                    opacity: 0;                    transform: scale(0.5);                }                100% {                    opacity: 1;                    transform: scale(1);                }            }                    @keyframes lightSpeedRight {              from {                transform: translate3d(50%, 0, 0) skewX(-20deg);                opacity: 0;              }              60% {                transform: skewX(10deg);                opacity: 1;              }              80% {                transform: skewX(-2deg);              }              to {                opacity: 1;                transform: translate3d(0, 0, 0);              }            }                    @keyframes lightSpeedLeft {              from {                transform: translate3d(-50%, 0, 0) skewX(20deg);                opacity: 0;              }              60% {                transform: skewX(-10deg);                opacity: 1;              }              80% {                transform: skewX(2deg);              }              to {                opacity: 1;                transform: translate3d(0, 0, 0);              }            }                    @keyframes slideLeft {                0% {                    opacity: 0;                    transform: translateX(-30px);                }                100% {                    opacity: 1;                    transform: translateX(0);                }            }</style>

 <g>
  <title>background</title>
  <rect fill="none" id="canvas_background" height="602" width="802" y="-1" x="-1"/>
 </g>
 <g>
  <title>Layer 1</title>
  <g class="animable" id="freepik--background-complete--inject-33">
   <rect fill=" rgb(235, 235, 235)" class="animable" id="eljlzsghxsc3d" height="0.25" width="500" y="382.4"/>
   <rect fill=" rgb(235, 235, 235)" class="animable" id="ell5dtvqsjo18" height="0.25" width="33.12" y="398.49" x="416.78"/>
   <rect fill=" rgb(235, 235, 235)" class="animable" id="elwqo2vvzm1fn" height="0.25" width="8.69" y="401.21" x="322.53"/>
   <rect fill=" rgb(235, 235, 235)" class="animable" id="elk8c9fah2dl" height="0.25" width="19.19" y="389.21" x="396.59"/>
   <rect fill=" rgb(235, 235, 235)" class="animable" id="el5ixk8gsn6" height="0.25" width="43.19" y="390.89" x="52.46"/>
   <rect fill=" rgb(235, 235, 235)" class="animable" id="elx8s1tip3xt" height="0.25" width="6.33" y="390.89" x="104.56"/>
   <rect fill=" rgb(235, 235, 235)" class="animable" id="el1m6wes8nk32" height="0.25" width="93.68" y="395.11" x="131.47"/>
   <path fill=" rgb(235, 235, 235)" class="animable" id="eljwf2w5i324r" d="m237,337.8l-193.09,0a5.71,5.71 0 0 1 -5.7,-5.71l0,-271.43a5.71,5.71 0 0 1 5.7,-5.66l193.09,0a5.71,5.71 0 0 1 5.71,5.71l0,271.38a5.71,5.71 0 0 1 -5.71,5.71zm-193.09,-282.6a5.46,5.46 0 0 0 -5.45,5.46l0,271.43a5.46,5.46 0 0 0 5.45,5.46l193.09,0a5.47,5.47 0 0 0 5.46,-5.46l0,-271.43a5.47,5.47 0 0 0 -5.46,-5.46l-193.09,0z"/>
   <path fill=" rgb(235, 235, 235)" class="animable" id="elgvn205t092g" d="m453.31,337.8l-193.1,0a5.72,5.72 0 0 1 -5.71,-5.71l0,-271.43a5.72,5.72 0 0 1 5.71,-5.66l193.1,0a5.71,5.71 0 0 1 5.69,5.66l0,271.43a5.71,5.71 0 0 1 -5.69,5.71zm-193.1,-282.6a5.47,5.47 0 0 0 -5.46,5.46l0,271.43a5.47,5.47 0 0 0 5.46,5.46l193.1,0a5.47,5.47 0 0 0 5.46,-5.46l0,-271.43a5.47,5.47 0 0 0 -5.46,-5.46l-193.1,0z"/>
   <g id="eltf4izdsdr3n">
    <rect id="svg_1" fill=" rgb(230, 230, 230)" class="animable" height="102.92" width="28.89" y="279.48" x="258.34"/>
   </g>
   <polygon fill=" rgb(240, 240, 240)" class="animable" id="elgow5x19nn0g" points="263.83 382.4 258.34 382.4 258.34 372.86 269.58 372.86 263.83 382.4"/>
   <g id="elqfkydkawbfo">
    <rect id="svg_2" fill=" rgb(230, 230, 230)" class="animable" height="102.92" width="28.89" y="279.48" x="423.17"/>
   </g>
   <g id="elg8ahf91hw8h">
    <rect id="svg_3" fill=" rgb(240, 240, 240)" class="animable" height="100.42" width="169.62" y="279.48" x="258.34"/>
   </g>
   <g id="elp867ec2mu9n">
    <rect id="svg_4" fill=" rgb(230, 230, 230)" class="animable" height="50.28" width="88.88" y="304.74" x="352.74"/>
   </g>
   <path fill=" rgb(240, 240, 240)" class="animable" id="el8wv70oz8q4s" d="m392.21,290.54l9.94,0a14.77,14.77 0 0 0 11.43,-5.74l-32.8,0a14.8,14.8 0 0 0 11.43,5.74z"/>
   <g id="elwurpkfhyaz">
    <rect id="svg_5" fill=" rgb(230, 230, 230)" class="animable" height="50.28" width="88.88" y="304.74" x="298.71"/>
   </g>
   <path fill=" rgb(240, 240, 240)" class="animable" id="el0wj9bj4yv6k" d="m337.67,290.54l9.95,0a14.77,14.77 0 0 0 11.38,-5.74l-32.75,0a14.77,14.77 0 0 0 11.42,5.74z"/>
   <g id="elpfydy5thsan">
    <rect id="svg_6" fill=" rgb(230, 230, 230)" class="animable" height="50.28" width="88.88" y="304.74" x="244.68"/>
   </g>
   <path fill=" rgb(240, 240, 240)" class="animable" id="eltnjbbnjw4aa" d="m283.64,290.54l9.95,0a14.77,14.77 0 0 0 11.41,-5.74l-32.78,0a14.77,14.77 0 0 0 11.42,5.74z"/>
   <polygon fill=" rgb(240, 240, 240)" class="animable" id="elmwcyqst49n" points="422.48 382.4 427.96 382.4 427.96 372.86 416.72 372.86 422.48 382.4"/>
   <g id="elrupvn7s75e">
    <rect id="svg_7" fill=" rgb(230, 230, 230)" class="animable" height="165.03" width="193.83" y="87.69" x="76.65"/>
   </g>
   <g id="elly0ysrkfu1r">
    <rect id="svg_8" fill=" rgb(245, 245, 245)" class="animable" height="165.03" width="196.29" y="87.69" x="72.29"/>
   </g>
   <g id="ela05qoew46df">
    <rect id="svg_9" fill=" rgb(250, 250, 250)" class="animable" height="180.63" width="149.19" y="79.89" x="95.84"/>
   </g>
   <polygon fill=" rgb(255, 255, 255)" class="animable" id="elfn53wfy7tdd" points="238.59 244.8 167.5 95.61 143.35 95.61 214.44 244.8 238.59 244.8"/>
   <polygon fill=" rgb(255, 255, 255)" class="animable" id="el46w8lz07xpv" points="207.6 244.8 136.5 95.61 119.88 95.61 190.97 244.8 207.6 244.8"/>
   <g id="elh6q17mtuu0p">
    <rect id="svg_10" fill=" rgb(230, 230, 230)" class="animable" height="9.34" width="149.19" y="165.53" x="67.92"/>
   </g>
   <g id="elid9nrv0s2g">
    <rect id="svg_11" fill=" rgb(230, 230, 230)" class="animable" height="9.34" width="149.19" y="165.53" x="130.01"/>
   </g>
   <g id="elvmns14nd5l">
    <rect id="svg_12" fill=" rgb(245, 245, 245)" class="animable" height="11.81" width="160.11" y="163.87" x="59.55"/>
   </g>
   <g id="el4zmb7f55o4o">
    <rect id="svg_13" fill=" rgb(245, 245, 245)" class="animable" height="11.81" width="160.11" y="163.87" x="121.64"/>
   </g>
   <g id="el8fe7vi84fo7">
    <rect id="svg_14" fill=" rgb(230, 230, 230)" class="animable" height="0.83" width="149.19" y="169.79" x="5.94"/>
   </g>
   <path fill=" rgb(230, 230, 230)" class="animable" id="eljpb6xoz1fgl" d="m69,77.5l210,0a1,1 0 0 1 1,1l0,0a1,1 0 0 1 -1,1l-210,0a1,1 0 0 1 -1,-1l0,0a1,1 0 0 1 1,-1z"/>
   <path fill=" rgb(230, 230, 230)" class="animable" id="elud3haa18vfi" d="m270.48,84.17l0,0a1.37,1.37 0 0 0 1.36,-1.37l0,-2.93a1.36,1.36 0 0 0 -1.36,-1.36l0,0a1.37,1.37 0 0 0 -1.37,1.36l0,2.93a1.38,1.38 0 0 0 1.37,1.37z"/>
   <path fill=" rgb(230, 230, 230)" class="animable" id="elxokj6tljd8" d="m84.23,84.17l0,0a1.38,1.38 0 0 0 1.37,-1.37l0,-2.93a1.37,1.37 0 0 0 -1.37,-1.36l0,0a1.36,1.36 0 0 0 -1.36,1.36l0,2.93a1.37,1.37 0 0 0 1.36,1.37z"/>
   <g id="el35u3u0ipxns">
    <rect id="svg_15" fill=" rgb(224, 224, 224)" class="animable" height="81.91" width="196.15" y="78.51" x="69.33"/>
   </g>
   <g id="ellfgiqmkipy">
    <rect id="svg_16" fill=" rgb(230, 230, 230)" class="animable" height="82.64" width="5.04" y="299.75" x="72.01"/>
   </g>
   <rect fill=" rgb(230, 230, 230)" class="animable" id="el2dk46rj16qj" height="16.08" width="27.29" y="283.67" x="162.95"/>
   <g id="elwfamr65ai3">
    <rect id="svg_17" fill=" rgb(245, 245, 245)" class="animable" height="16.08" width="108.39" y="283.67" x="54.56"/>
   </g>
   <rect fill=" rgb(230, 230, 230)" class="animable" id="elwhtn6eccse" height="16.08" width="27.29" y="309.75" x="162.95"/>
   <g id="elgbkik506yz8">
    <rect id="svg_18" fill=" rgb(245, 245, 245)" class="animable" height="16.08" width="108.39" y="309.75" x="54.56"/>
   </g>
   <rect fill=" rgb(230, 230, 230)" class="animable" id="el9anmxur6nhd" height="16.08" width="27.29" y="335.84" x="162.95"/>
   <g id="elka4akdenwx">
    <rect id="svg_19" fill=" rgb(245, 245, 245)" class="animable" height="16.08" width="108.39" y="335.84" x="54.56"/>
   </g>
   <g id="ela45ko2hb0z5">
    <rect id="svg_20" fill=" rgb(230, 230, 230)" class="animable" height="82.64" width="5.04" y="299.75" x="180.4"/>
   </g>
   <g id="elx95r6istww8">
    <rect id="svg_21" fill=" rgb(245, 245, 245)" class="animable" height="82.64" width="5.04" y="299.75" x="157.91"/>
   </g>
   <g id="elzyuue7o046i">
    <rect id="svg_22" fill=" rgb(245, 245, 245)" class="animable" height="82.64" width="5.04" y="299.75" x="54.56"/>
   </g>
  </g>
  <g class="animable" id="freepik--Shadow--inject-33">
   <ellipse fill=" rgb(245, 245, 245)" class="animable" ry="11.32" rx="193.89" cy="416.24" cx="250" id="freepik--path--inject-33"/>
  </g>
  <g class="animable" id="freepik--Invoice--inject-33">
   <path fill=" rgb(64, 123, 255)" class="animable" id="elolcgolzk89c" d="m396,370.84l-162.4,0a11.4,11.4 0 0 1 -11.49,-12.44l19.89,-260.77a13.7,13.7 0 0 1 13.4,-12.44l162.4,0a11.39,11.39 0 0 1 11.49,12.44l-19.89,260.77a13.71,13.71 0 0 1 -13.4,12.44z"/>
   <g id="elfqohs5b1ma9">
    <path id="svg_23" fill=" rgb(255, 255, 255)" class="animable" d="m396,370.84l-162.4,0a11.4,11.4 0 0 1 -11.49,-12.44l19.89,-260.77a13.7,13.7 0 0 1 13.4,-12.44l162.4,0a11.39,11.39 0 0 1 11.49,12.44l-19.89,260.77a13.71,13.71 0 0 1 -13.4,12.44z"/>
   </g>
   <path fill=" rgb(64, 123, 255)" class="animable" id="ely54jw0sg9fe" d="m393.59,370.84l-162.41,0a11.4,11.4 0 0 1 -11.49,-12.44l19.9,-260.77a13.7,13.7 0 0 1 13.41,-12.44l162.4,0a11.39,11.39 0 0 1 11.49,12.44l-19.89,260.77a13.7,13.7 0 0 1 -13.41,12.44z"/>
   <g id="elqpnopi1xovq">
    <path id="svg_24" fill=" rgb(255, 255, 255)" class="animable" d="m393.59,370.84l-162.41,0a11.4,11.4 0 0 1 -11.49,-12.44l19.9,-260.77a13.7,13.7 0 0 1 13.41,-12.44l162.4,0a11.39,11.39 0 0 1 11.49,12.44l-19.89,260.77a13.7,13.7 0 0 1 -13.41,12.44z"/>
   </g>
   <path fill=" rgb(64, 123, 255)" class="animable" id="elq3olcr2df4" d="m231.5,366.69a7.58,7.58 0 0 1 -7.66,-8.29l19.63,-257.31a9.11,9.11 0 0 1 8.93,-8.29l162.4,0a7.58,7.58 0 0 1 7.66,8.29l-19.63,257.31a9.11,9.11 0 0 1 -8.92,8.29l-162.41,0z"/>
   <g id="ellnr2wr2dg">
    <path id="svg_25" opacity="0.2" class="animable" d="m392.76,136.08l-116.22,0a4.5,4.5 0 0 1 -4.54,-4.92l0,0a5.42,5.42 0 0 1 5.29,-4.91l116.22,0a4.49,4.49 0 0 1 4.54,4.91l0,0a5.4,5.4 0 0 1 -5.29,4.92z"/>
   </g>
   <g id="elfgri3k7u0mh">
    <path id="svg_26" fill=" rgb(64, 123, 255)" class="animable" d="m343.18,90.26l-18.77,0a1.11,1.11 0 0 1 -1.12,-1.21l0,0a1.34,1.34 0 0 1 1.3,-1.21l18.78,0a1.11,1.11 0 0 1 1.11,1.21l0,0a1.32,1.32 0 0 1 -1.3,1.21z"/>
   </g>
   <path fill=" rgb(240, 240, 240)" class="animable" id="elr9pzgay450l" d="m276,131.16a12.42,12.42 0 0 0 -12.56,-13.6l118,0a12.42,12.42 0 0 1 12.56,13.6l-118,0z"/>
   <path fill=" rgb(255, 255, 255)" class="animable" id="elr5iocodve39" d="m263.47,117.56a14.94,14.94 0 0 0 -14.65,13.6l-12.09,158.47a14.93,14.93 0 0 1 -14.64,13.6l118,0a14.94,14.94 0 0 0 14.65,-13.6l12.09,-158.47a14.93,14.93 0 0 1 14.64,-13.6l-118,0z"/>
   <path fill=" rgb(240, 240, 240)" class="animable" id="ela8o1jr2vx6o" d="m327.52,289.63a12.42,12.42 0 0 0 12.56,13.6l-118,0a12.42,12.42 0 0 1 -12.56,-13.6l118,0z"/>
   <path fill=" rgb(224, 224, 224)" class="animable" id="ell0hsm0mnrsf" d="m258.45,286.5c0.45,-5.79 -1.37,-10.47 -7.15,-10.47l90.86,0c5.78,0 10.13,5.29 7.16,10.47l-90.87,0z"/>
   <path fill=" rgb(240, 240, 240)" class="animable" id="elj1ispuqx8dq" d="m327.52,289.63a14.93,14.93 0 0 1 14.64,-13.63l-118,0a14.93,14.93 0 0 0 -14.64,13.6l118,0.03z"/>
   <path fill=" rgb(255, 255, 255)" class="animable" id="eljmq4k76n71" d="m383.31,328.92l-135.45,0a3.27,3.27 0 0 1 -3.3,-3.57l0,0a3.93,3.93 0 0 1 3.84,-3.57l135.46,0a3.27,3.27 0 0 1 3.29,3.57l0,0a3.93,3.93 0 0 1 -3.84,3.57z"/>
   <path fill=" rgb(255, 255, 255)" class="animable" id="elfi0zymzqu5p" d="m314.91,346.08l-68.36,0a3.26,3.26 0 0 1 -3.3,-3.57l0,0a3.93,3.93 0 0 1 3.84,-3.57l68.36,0a3.27,3.27 0 0 1 3.3,3.57l0,0a3.93,3.93 0 0 1 -3.84,3.57z"/>
   <path fill=" rgb(255, 255, 255)" class="animable" id="elj95vauppc" d="m362.24,346.08l-27.69,0a3.26,3.26 0 0 1 -3.3,-3.57l0,0a3.93,3.93 0 0 1 3.84,-3.57l27.69,0a3.28,3.28 0 0 1 3.3,3.57l0,0a3.93,3.93 0 0 1 -3.84,3.57z"/>
   <path fill=" rgb(255, 255, 255)" class="animable" id="el9yo0lk8sr29" d="m389.93,278.18l-7.07,1.11a6.52,6.52 0 0 0 -0.81,-1.85a4.17,4.17 0 0 0 -1.31,-1.05l-0.42,5.43q5.6,1.53 7.38,3.22a6.86,6.86 0 0 1 2.09,5.76a8.21,8.21 0 0 1 -1.2,3.76a10.12,10.12 0 0 1 -2.54,2.85a10.28,10.28 0 0 1 -3.14,1.67a15.84,15.84 0 0 1 -4,0.61l-0.27,3.54l-2.64,0l0.27,-3.54a16.86,16.86 0 0 1 -4.41,-0.89a8.31,8.31 0 0 1 -2.86,-1.8a7.76,7.76 0 0 1 -1.73,-2.47a10.58,10.58 0 0 1 -0.77,-3.2l7.65,-0.88a6.72,6.72 0 0 0 0.7,2.69a4.21,4.21 0 0 0 1.78,1.46l0.5,-6.63a33.38,33.38 0 0 1 -5.24,-1.82a6.49,6.49 0 0 1 -2.56,-2.47a6.78,6.78 0 0 1 -0.84,-4.15a8.06,8.06 0 0 1 2.76,-5.58a11.24,11.24 0 0 1 7.14,-2.49l0.14,-1.86l2.74,0l-0.14,1.86a10.8,10.8 0 0 1 6.28,2a7.3,7.3 0 0 1 2.52,4.72zm-11.93,-1.88a3.9,3.9 0 0 0 -1.74,1a2.26,2.26 0 0 0 -0.58,1.38a2.14,2.14 0 0 0 0.37,1.44a3.21,3.21 0 0 0 1.58,1l0.37,-4.82zm1.33,18.49a4.78,4.78 0 0 0 2.43,-1.18a2.9,2.9 0 0 0 0.88,-1.83a2.28,2.28 0 0 0 -0.5,-1.63a5.09,5.09 0 0 0 -2.35,-1.38l-0.46,6.02z"/>
   <path fill=" rgb(64, 123, 255)" class="animable" id="elivks7p1ivtq" d="m256.72,161.67l3.37,0l-0.83,10.86l-3.36,0l0.82,-10.86z"/>
   <path fill=" rgb(64, 123, 255)" class="animable" id="elnur9co92xqi" d="m262.52,161.67l3.13,0l3.63,6l0.46,-6l3.16,0l-0.83,10.86l-3.16,0l-3.61,-6l-0.46,6l-3.15,0l0.83,-10.86z"/>
   <path fill=" rgb(64, 123, 255)" class="animable" id="elbmghdax56uo" d="m274.06,161.67l3.51,0l1.85,7.82l3,-7.82l3.4,0l-4.82,10.86l-3.63,0l-3.31,-10.86z"/>
   <path fill=" rgb(64, 123, 255)" class="animable" id="elotmtpj7hqw" d="m285.57,167.11a6.08,6.08 0 0 1 1.8,-4.14a6,6 0 0 1 4.24,-1.48a5.31,5.31 0 0 1 4.07,1.45a5.14,5.14 0 0 1 1.15,4.08a6.93,6.93 0 0 1 -0.88,3.12a5.12,5.12 0 0 1 -2,1.9a6.45,6.45 0 0 1 -3.07,0.68a6.64,6.64 0 0 1 -3,-0.59a4.11,4.11 0 0 1 -1.81,-1.85a6,6 0 0 1 -0.5,-3.17zm3.36,0a3.45,3.45 0 0 0 0.43,2.37a1.91,1.91 0 0 0 1.61,0.71a2.21,2.21 0 0 0 1.72,-0.7a4.17,4.17 0 0 0 0.79,-2.52a3.18,3.18 0 0 0 -0.45,-2.25a1.93,1.93 0 0 0 -1.62,-0.7a2.21,2.21 0 0 0 -1.69,0.72a3.9,3.9 0 0 0 -0.79,2.38l0,-0.01z"/>
   <path fill=" rgb(64, 123, 255)" class="animable" id="eloox70uavt7h" d="m299.18,161.67l3.36,0l-0.82,10.86l-3.37,0l0.83,-10.86z"/>
   <path fill=" rgb(64, 123, 255)" class="animable" id="elqi2uxkp8czk" d="m311.69,168.09l2.87,0.89a5.85,5.85 0 0 1 -1.09,2.06a4.35,4.35 0 0 1 -1.67,1.25a6.06,6.06 0 0 1 -2.44,0.43a6.72,6.72 0 0 1 -2.85,-0.52a4,4 0 0 1 -1.8,-1.81a5.76,5.76 0 0 1 -0.56,-3.31a6.06,6.06 0 0 1 1.75,-4.15a5.83,5.83 0 0 1 4.16,-1.44a5.15,5.15 0 0 1 3.16,0.83a4.38,4.38 0 0 1 1.55,2.54l-3,0.66a2.36,2.36 0 0 0 -0.27,-0.72a1.64,1.64 0 0 0 -0.64,-0.59a1.9,1.9 0 0 0 -0.9,-0.21a2.13,2.13 0 0 0 -1.82,0.92a4.05,4.05 0 0 0 -0.62,2.13a3.92,3.92 0 0 0 0.36,2.48a1.75,1.75 0 0 0 1.49,0.67a2,2 0 0 0 1.5,-0.54a3.75,3.75 0 0 0 0.82,-1.57z"/>
   <path fill=" rgb(64, 123, 255)" class="animable" id="elbjsn8cd36p" d="m316.74,161.67l9,0l-0.17,2.32l-5.63,0l-0.13,1.73l5.19,0l-0.17,2.21l-5.22,0l-0.17,2.14l5.8,0l-0.19,2.46l-9.16,0l0.85,-10.86z"/>
   <polygon fill=" rgb(64, 123, 255)" class="animable" id="elg4zcrddmmj7" points="352.36 186.55 254.83 186.55 255.03 183.85 352.57 183.85 352.36 186.55"/>
   <polygon fill=" rgb(240, 240, 240)" class="animable" id="el7jd1vi64gsi" points="352.36 186.55 254.83 186.55 254.19 194.84 351.73 194.84 352.36 186.55"/>
   <polygon fill=" rgb(240, 240, 240)" class="animable" id="eliqgun2rgo2m" points="351.1 203.12 253.56 203.12 252.93 211.4 350.47 211.4 351.1 203.12"/>
   <polygon fill=" rgb(240, 240, 240)" class="animable" id="el6dre661oe6p" points="349.83 219.68 252.3 219.68 251.67 227.97 349.2 227.97 349.83 219.68"/>
   <polygon fill=" rgb(240, 240, 240)" class="animable" id="elgncv2kar1q" points="348.57 236.25 251.03 236.25 250.4 244.53 347.94 244.53 348.57 236.25"/>
   <polygon fill=" rgb(64, 123, 255)" class="animable" id="else5b7t0u08e" points="347.1 255.52 249.56 255.52 249.77 252.81 347.31 252.81 347.1 255.52"/>
   <polygon fill=" rgb(240, 240, 240)" class="animable" id="elgsetn510tgd" points="335.94 136.08 356.21 136.08 355.29 148.17 335.02 148.17 335.94 136.08"/>
  </g>
  <g class="animable" id="freepik--Character--inject-33">
   <path fill=" rgb(255, 181, 115)" class="animable" id="el27fd1e7ll4q" d="m137.18,213l3.62,1.45a8.13,8.13 0 0 1 3.36,2.52l1.66,2.1a3.67,3.67 0 0 1 -0.12,4.71l-1.76,2a3.69,3.69 0 0 1 -5.24,0.31l-1.7,-1.5s-5.2,-3.65 -6.73,-8.48l1,-1a6.91,6.91 0 0 1 5.91,-2.11z"/>
   <path fill=" rgb(255, 181, 115)" class="animable" id="el5wtyrn5hi8j" d="m147.1,177.92l-1.18,0.78l-1.31,0.9c-0.87,0.62 -1.75,1.26 -2.6,1.91c-1.71,1.33 -3.37,2.7 -4.91,4.16a40.48,40.48 0 0 0 -7.74,9.42c-0.25,0.42 -0.47,0.84 -0.68,1.27l-0.16,0.32a4.11,4.11 0 0 0 0.1,-0.41a1.24,1.24 0 0 0 0,-0.5c-0.09,-0.29 -0.1,0.46 0.13,1.2a30.74,30.74 0 0 0 2.39,5.54c2.06,3.94 4.64,8 7.08,12l0.06,0.11a3.52,3.52 0 0 1 -1.17,4.83a3.56,3.56 0 0 1 -4,-0.23a65.47,65.47 0 0 1 -5.71,-5a67.87,67.87 0 0 1 -5.22,-5.69a34.63,34.63 0 0 1 -4.59,-7.13a19.21,19.21 0 0 1 -0.94,-2.46a12.24,12.24 0 0 1 -0.52,-3.37a9.88,9.88 0 0 1 0.25,-2.3a10.93,10.93 0 0 1 0.38,-1.27l0.19,-0.51c0.25,-0.69 0.53,-1.36 0.82,-2a46.9,46.9 0 0 1 9.54,-13.69a60.75,60.75 0 0 1 6,-5.37c1.06,-0.82 2.13,-1.62 3.24,-2.37c0.56,-0.38 1.12,-0.76 1.7,-1.12l0.89,-0.54l1,-0.58a7,7 0 0 1 7.36,11.88l-0.4,0.22z"/>
   <path fill=" rgb(38, 50, 56)" class="animable" id="el7uew0y7drmm" d="m147.22,162.05c-5.84,0 -12.24,2.53 -20.44,12.7c0,6.07 12.81,14.14 12.81,14.14s21,-26.89 7.63,-26.84z"/>
   <path fill=" rgb(38, 50, 56)" class="animable" id="el26xds8ua5pp" d="m103.83,402.44a1.18,1.18 0 0 1 -0.31,-0.05c-1.21,-0.43 -2.35,-3.51 -2.42,-5.23a0.26,0.26 0 0 1 0.15,-0.26a0.29,0.29 0 0 1 0.31,0c0.13,0.11 3.14,2.58 3.28,4.24a1.17,1.17 0 0 1 -0.27,0.9a1,1 0 0 1 -0.74,0.4zm-2.09,-4.61c0.27,1.63 1.2,3.75 2,4a0.37,0.37 0 0 0 0.43,-0.16a0.61,0.61 0 0 0 0.14,-0.48c-0.11,-0.95 -1.59,-2.48 -2.57,-3.36z"/>
   <path fill=" rgb(38, 50, 56)" class="animable" id="el0m946b367lid" d="m105.71,398.77a9.74,9.74 0 0 1 -4.49,-1.38a0.29,0.29 0 0 1 -0.12,-0.28a0.29,0.29 0 0 1 0.21,-0.23c0.16,0 3.93,-1 5.35,-0.16a1.15,1.15 0 0 1 0.57,0.75a0.92,0.92 0 0 1 -0.36,1a2.06,2.06 0 0 1 -1.16,0.3zm-3.57,-1.51c1.47,0.74 3.74,1.24 4.41,0.78c0.1,-0.07 0.19,-0.17 0.13,-0.44a0.58,0.58 0 0 0 -0.31,-0.4c-0.83,-0.51 -2.94,-0.2 -4.23,0.06z"/>
   <path fill=" rgb(64, 123, 255)" class="animable" id="elk80u2pupipe" d="m90.74,396.49a47.12,47.12 0 0 0 7.46,-10.59s9.28,2.28 7.46,5c-3.31,4.85 -4.92,14.82 -0.66,20.16c2.43,3.05 -1.41,3.56 -4,2.25c-4,-2.07 -3.87,-2.85 -6,-6.28c-1.8,-2.93 -2.51,-4.08 -5,-5.34c-2,-1.09 -1,-3.13 0.74,-5.2z"/>
   <path fill=" rgb(38, 50, 56)" class="animable" id="elrdkihq7kbn9" d="m169.44,222.33s-13.44,65.6 -23.3,93.67c-10.34,29.42 -38.89,74.83 -40,76.78c-4.06,-1.09 -7.68,-2.51 -10.09,-4.86c0,0 13.4,-49.25 26.46,-81.2c5,-66.7 15.89,-84.34 15.89,-84.34l31.04,-0.05z"/>
   <g id="elwexqa1rurep">
    <path id="svg_27" opacity="0.2" class="animable" d="m148.91,257.43c-0.61,12.69 -1,30.14 -0.43,51.38c4.11,-13.24 8.58,-31.19 12.34,-47.3c-2.51,-3.35 -6.41,-4.96 -11.91,-4.08z"/>
   </g>
   <path fill=" rgb(255, 181, 115)" class="animable" id="eldgvfne0srw4" d="m149.72,141.89c1.41,5.71 2.79,15 0.54,20c0,0 8.42,0.38 19.18,9c5.07,-7.44 -0.8,-8.9 -0.8,-8.9c-4.47,-1 -4.25,-7 -4.24,-11.25l-14.68,-8.85z"/>
   <path fill=" rgb(64, 123, 255)" class="animable" id="el9tuj86kgxy" d="m147.6,164.44c-4.2,-0.46 -1.3,-8.44 0.88,-7.66c5.52,2 17.9,-0.22 21.73,1.89s2.86,6.44 2.86,6.44s-20.95,-0.17 -25.47,-0.67z"/>
   <g id="elie1jg290b4o">
    <path id="svg_28" fill=" rgb(255, 255, 255)" class="animable" d="m147.6,164.44c-4.2,-0.46 -1.3,-8.44 0.88,-7.66c5.52,2 17.9,-0.22 21.73,1.89s2.86,6.44 2.86,6.44s-20.95,-0.17 -25.47,-0.67z"/>
   </g>
   <path fill=" rgb(38, 50, 56)" class="animable" id="elgbuim3cqtrk" d="m172.1,131.82c0.14,0.76 0.65,1.31 1.15,1.22s0.79,-0.78 0.66,-1.54s-0.65,-1.31 -1.15,-1.22s-0.76,0.78 -0.66,1.54z"/>
   <path fill=" rgb(38, 50, 56)" class="animable" id="elouzmvxdkddo" d="m172.55,130.36l1.74,-0.85s-0.69,1.6 -1.74,0.85z"/>
   <path fill=" rgb(38, 50, 56)" class="animable" id="elbvvw5yu0yi5" d="m173.12,125.72a0.44,0.44 0 0 0 0,-0.34a0.46,0.46 0 0 0 -0.56,-0.32a4.55,4.55 0 0 0 -3.14,2.72a0.48,0.48 0 0 0 0.29,0.58a0.46,0.46 0 0 0 0.58,-0.29a3.58,3.58 0 0 1 2.51,-2.13a0.48,0.48 0 0 0 0.32,-0.22z"/>
   <path fill=" rgb(237, 137, 62)" class="animable" id="elxx4us8fnz4j" d="m173,133.68a20.73,20.73 0 0 0 3.27,4.63a3.32,3.32 0 0 1 -2.7,0.8l-0.57,-5.43z"/>
   <path fill=" rgb(255, 181, 115)" class="animable" id="elm480azw2t6" d="m146,131.43c2.23,9.28 3,13.25 8.47,17.24c8.27,6 18.95,1.26 19.49,-8.48c0.48,-8.78 -3.24,-22.47 -12.9,-24.61s-17.29,6.57 -15.06,15.85z"/>
   <path fill=" rgb(38, 50, 56)" class="animable" id="el05vuvyco9mzn" d="m164,133.14c5.46,-7.22 9,-13.06 6.33,-19.45c-2.25,-5.34 -8.48,-3.78 -9.35,-1.11c-16.56,-1.41 -22.51,4.59 -19.09,14.51c2.18,6.33 -6.28,3 -4.22,11.08c1.57,6.16 -4,8.51 -1.17,12.05c4.08,5.11 12.5,-1.55 22.11,2.28c7.84,3.14 19.66,-1.61 5.39,-19.36z"/>
   <path fill=" rgb(255, 181, 115)" class="animable" id="elpfnqh67lkll" d="m163.09,134.6a6.14,6.14 0 0 0 4.15,2.85c2.17,0.32 2.92,-2.12 2,-4.38c-0.8,-2 -2.89,-4.65 -4.94,-3.92s-2.44,3.5 -1.21,5.45z"/>
   <path fill=" rgb(38, 50, 56)" class="animable" id="ellfqtim7vwaf" d="m166.32,408.56a9,9 0 0 1 -4.73,-2.07a0.29,0.29 0 0 1 -0.08,-0.29a0.29,0.29 0 0 1 0.24,-0.2c0.16,0 4,-0.43 5.32,0.63a1.11,1.11 0 0 1 0.45,0.83a0.9,0.9 0 0 1 -0.5,1a1.65,1.65 0 0 1 -0.7,0.1zm-3.81,-2.06c1.36,0.95 3.53,1.78 4.26,1.42c0.11,-0.06 0.21,-0.15 0.19,-0.42a0.59,0.59 0 0 0 -0.25,-0.44c-0.71,-0.62 -2.88,-0.64 -4.2,-0.56z"/>
   <path fill=" rgb(38, 50, 56)" class="animable" id="elew3ivt843gl" d="m161.78,406.57a0.31,0.31 0 0 1 -0.23,-0.12a0.29,0.29 0 0 1 0,-0.31c0.08,-0.14 2,-3.52 3.63,-3.93a1.13,1.13 0 0 1 0.94,0.13a0.91,0.91 0 0 1 0.48,1c-0.22,1.27 -3.08,2.9 -4.75,3.25l-0.07,-0.02zm3.73,-3.84l-0.2,0c-0.94,0.24 -2.21,1.95 -2.92,3.06c1.56,-0.54 3.51,-1.8 3.65,-2.6c0,-0.12 0,-0.26 -0.23,-0.41a0.61,0.61 0 0 0 -0.3,-0.05z"/>
   <path fill=" rgb(64, 123, 255)" class="animable" id="el7buef8k6ecq" d="m173.75,412.07c-8.1,-0.63 -13.56,-6.19 -13,-12.08c0.31,-3.25 -10.07,-3.54 -10.07,-3.54c1.64,10.07 -0.42,11.51 -1.1,14.11s-0.51,5.48 1.64,5.53c2.57,0.07 3.77,-0.42 7,-0.3c3.74,0.15 7.78,0.29 14.43,0.3c2.63,0.01 4.7,-3.74 1.1,-4.02z"/>
   <path fill=" rgb(38, 50, 56)" class="animable" id="els1g9ny8hxdi" d="m183.44,222.33s-0.71,49.69 -4.63,82.34s-17.4,96.69 -17.4,96.69a22.55,22.55 0 0 1 -10.77,-0.1s-4.26,-50 2.89,-98.37c-5.25,-50.67 -8.54,-80.56 -8.54,-80.56l38.45,0z"/>
   <path fill=" rgb(64, 123, 255)" class="animable" id="elcsg96r2dtcj" d="m185.28,176.37c-0.17,3.84 5.89,12.72 -1.59,17.86c1.4,3.13 2.58,24.32 -0.25,28.1c-4.13,3 -26.48,2.45 -45,0c-0.79,-7.66 3.43,-23.53 -1.74,-48.27a9.87,9.87 0 0 1 8.67,-11.84c1.56,-0.15 3.21,-0.29 4.9,-0.37a126.26,126.26 0 0 1 17.73,0c1.91,0.18 3.89,0.42 5.78,0.69a13.38,13.38 0 0 1 11.5,13.83z"/>
   <g id="eljy72mcorlvm">
    <g id="svg_29" opacity="0.3" class="animable">
     <path fill=" rgb(38, 50, 56)" class="animable" id="elabxil38x5nw" d="m137.16,172.72l-0.41,0.23l0,0a0.26,0.26 0 1 0 0.24,0.45l0.46,-0.25c2,0.73 4.13,2.39 5.36,2.56c-2,-1.75 -3.41,-3 -5,-2.78c0.47,-0.28 0.93,-0.56 1.39,-0.86c1.82,0.68 3.8,2.2 4.93,2.35c-1.84,-1.62 -3.16,-2.78 -4.61,-2.56l1,-0.69l0.56,-0.41c1.65,0.71 3.39,2.22 4.43,2.43c-1.66,-1.64 -2.83,-2.8 -4.23,-2.57c0.44,-0.33 0.87,-0.66 1.29,-1c1.51,0.66 3.11,2 4.06,2.23c-1.52,-1.51 -2.59,-2.57 -3.88,-2.37l1.08,-0.9l0.26,-0.22c1.33,0.7 2.65,2.08 3.52,2.33c-1.26,-1.51 -2.14,-2.56 -3.46,-2.39c0.34,-0.29 0.68,-0.59 1,-0.9c1.23,0.65 2.44,1.92 3.24,2.15c-1.16,-1.39 -2,-2.35 -3.18,-2.2l1.06,-1c1.07,0.66 2.09,1.86 2.8,2.11c-1,-1.32 -1.64,-2.23 -2.73,-2.18c0.19,-0.19 0.38,-0.37 0.56,-0.56l0.32,-0.33c1,0.61 1.93,1.72 2.58,1.95c-0.88,-1.21 -1.51,-2.06 -2.51,-2c0.29,-0.3 0.58,-0.61 0.86,-0.92c0.9,0.49 1.75,1.42 2.35,1.6c-0.79,-1 -1.35,-1.74 -2.31,-1.64l0.16,-0.17l0.6,-0.7a24.83,24.83 0 0 0 2.14,1.45c-0.72,-0.93 -1.23,-1.58 -2.09,-1.51c0.23,-0.28 0.46,-0.58 0.66,-0.88a0.08,0.08 0 0 0 0,-0.12a0.09,0.09 0 0 0 -0.11,0l0,0q-0.3,0.42 -0.63,0.81a1.89,1.89 0 0 0 -0.37,-1.32l-0.34,0a12.94,12.94 0 0 1 0.55,1.48c-0.18,0.21 -0.37,0.41 -0.55,0.61l-0.13,0.14c0.19,-0.73 -0.19,-1.36 -0.77,-2.16l-0.19,0c0.16,0.62 0.63,1.47 0.82,2.29l-0.8,0.81c0.26,-0.92 -0.38,-1.73 -1.27,-2.88c0,0.69 0.84,1.88 1.16,3l-0.28,0.28l-0.55,0.52c0.25,-1 -0.43,-1.87 -1.4,-3.1c0,0.74 0.91,2 1.26,3.23l-1,0.87c0.21,-1 -0.46,-2 -1.37,-3.3c0,0.79 0.81,2.19 1.14,3.5l-0.79,0.67c0.23,-1.08 -0.49,-2.14 -1.48,-3.59c0,0.86 0.88,2.38 1.23,3.8l-0.21,0.17c-0.36,0.3 -0.73,0.59 -1.1,0.88c0.29,-1.11 -0.4,-2.36 -1.35,-4.06c-0.07,0.92 0.75,2.72 1,4.31c-0.42,0.32 -0.84,0.62 -1.27,0.93c0.48,-1.26 -0.3,-2.67 -1.38,-4.63c-0.09,1 0.85,3.06 1.12,4.81l-0.38,0.26l-1.19,0.77c0.55,-1.27 -0.12,-2.77 -1.1,-4.81c-0.05,0.07 -0.1,0.14 -0.14,0.21c0.07,1.2 0.77,3.12 0.92,4.79c-0.44,0.28 -0.9,0.54 -1.35,0.79c0.52,-1.06 0.22,-2.26 -0.42,-3.76a9.58,9.58 0 0 0 -0.35,1.3a17.53,17.53 0 0 1 0.57,2.65z"/>
     <path fill=" rgb(38, 50, 56)" class="animable" id="elw5n3s6naeq" d="m162.71,165.79c-1.51,-1 -3,-2.73 -4,-3.1c1.37,1.88 2.35,3.21 3.77,3.21c-0.49,0.25 -1,0.51 -1.44,0.78c-1.38,-0.89 -2.74,-2.51 -3.65,-2.85c1.26,1.73 2.16,2.95 3.46,3c-0.41,0.23 -0.81,0.47 -1.21,0.71l-0.29,0.18c-1.21,-0.9 -2.29,-2.47 -3.11,-2.86c1,1.7 1.71,2.87 3,2.91c-0.39,0.23 -0.77,0.48 -1.15,0.73c-1.1,-0.83 -2.1,-2.28 -2.85,-2.63c0.92,1.55 1.56,2.63 2.79,2.67l-1.2,0.81c-0.95,-0.82 -1.77,-2.17 -2.43,-2.53c0.74,1.45 1.26,2.47 2.35,2.59l-0.65,0.46l-0.36,0.27c-0.88,-0.75 -1.64,-2 -2.25,-2.33c0.69,1.34 1.17,2.27 2.17,2.39c-0.34,0.25 -0.67,0.5 -1,0.76c-0.82,-0.62 -1.51,-1.67 -2.08,-1.94c0.63,1.14 1.06,1.93 2,2l-0.18,0.14l-0.71,0.6c-0.74,-0.58 -1.37,-1.53 -1.89,-1.78c0.57,1 1,1.76 1.83,1.83c-0.27,0.24 -0.54,0.5 -0.8,0.77a0.07,0.07 0 0 0 0,0.11a0.08,0.08 0 0 0 0.11,0l0,0a8.28,8.28 0 0 1 0.75,-0.7c-0.25,0.68 0.11,1.37 0.59,2.31a18.87,18.87 0 0 0 -0.41,-2.46c0.21,-0.18 0.42,-0.34 0.64,-0.51l0.15,-0.12c-0.34,0.77 0.05,1.54 0.6,2.62a24.18,24.18 0 0 0 -0.45,-2.73c0.31,-0.24 0.61,-0.46 0.93,-0.68c-0.4,0.86 0.1,1.77 0.8,3c0.07,-0.68 -0.54,-2 -0.67,-3.14l0.32,-0.23l0.62,-0.42c-0.4,0.93 0.13,1.91 0.89,3.28c0.07,-0.74 -0.58,-2.15 -0.73,-3.39l1.09,-0.7c-0.37,0.95 0.13,2 0.82,3.47c0.12,-0.78 -0.45,-2.29 -0.57,-3.63l0.89,-0.54c-0.4,1 0.14,2.19 0.9,3.78c0.13,-0.85 -0.5,-2.5 -0.62,-3.95l0.23,-0.13l1.23,-0.7c-0.46,1.05 0,2.39 0.68,4.23c0.22,-0.9 -0.3,-2.81 -0.32,-4.42c0.47,-0.25 0.93,-0.49 1.41,-0.72c-0.68,1.17 -0.14,2.68 0.63,4.79c0.24,-1 -0.36,-3.15 -0.35,-4.92l0.41,-0.2l1.31,-0.58c-0.78,1.22 -0.29,2.9 0.41,5.23c0.32,-1.08 -0.2,-3.44 -0.07,-5.37c0.48,-0.2 1,-0.38 1.46,-0.56c-0.94,1.33 -0.4,3.18 0.37,5.76c0.36,-1.17 -0.22,-3.77 -0.07,-5.86l0.45,-0.16l0,0a0.25,0.25 0 0 0 0.16,-0.33a0.27,0.27 0 0 0 -0.33,-0.16l-0.49,0.18a31.84,31.84 0 0 1 -3.32,-2.43l-0.8,0c1.3,1.55 2.37,2.59 3.7,2.61c-0.51,0.19 -1,0.41 -1.51,0.63c-1.69,-1 -3.4,-2.77 -4.49,-3.11c1.56,1.9 2.68,3.25 4.15,3.26l-1.12,0.52l-0.5,0.28z"/>
     <path fill=" rgb(38, 50, 56)" class="animable" id="el8r41iv9076f" d="m150.22,184.49c-1.1,-1.2 -1.87,-2 -2.95,-1.87l0.5,-0.61l0.28,-0.36c1,0.49 2.1,1.49 2.78,1.64c-1,-1.1 -1.73,-1.88 -2.73,-1.72c0.26,-0.33 0.51,-0.66 0.76,-1c0.95,0.38 1.9,1.21 2.52,1.32c-0.91,-0.93 -1.54,-1.58 -2.49,-1.37a1.33,1.33 0 0 0 0.14,-0.19c0.18,-0.25 0.35,-0.5 0.52,-0.76a24.61,24.61 0 0 0 2.3,1.21c-0.83,-0.85 -1.4,-1.44 -2.25,-1.27c0.2,-0.31 0.39,-0.63 0.56,-1a0.08,0.08 0 1 0 -0.15,-0.07l0,0a7.86,7.86 0 0 1 -0.54,0.87c0.06,-0.72 -0.47,-1.29 -1.19,-2.07a19,19 0 0 0 1.06,2.27l-0.48,0.66l-0.12,0.15c0.13,-0.83 -0.46,-1.47 -1.27,-2.36a22.59,22.59 0 0 0 1.16,2.52l-0.71,0.9c0.15,-0.95 -0.57,-1.68 -1.59,-2.73c0.12,0.68 1,1.78 1.49,2.85l-0.25,0.31l-0.49,0.57c0.14,-1 -0.63,-1.8 -1.73,-2.92c0.13,0.73 1.13,1.92 1.61,3.07l-0.86,1c0.1,-1 -0.67,-1.91 -1.73,-3.13c0.1,0.79 1.06,2.09 1.53,3.35l-0.71,0.76c0.11,-1.1 -0.73,-2.07 -1.88,-3.4c0.1,0.85 1.14,2.27 1.65,3.63l-0.19,0.2c-0.32,0.34 -0.66,0.67 -1,1c0.17,-1.13 -0.65,-2.29 -1.78,-3.88c0,0.92 1,2.62 1.49,4.17c-0.38,0.36 -0.77,0.72 -1.16,1.06c0.34,-1.3 -0.59,-2.61 -1.89,-4.44c0,1 1.19,2.94 1.65,4.65l-0.35,0.3c-0.36,0.31 -0.73,0.61 -1.1,0.91c0.43,-1.39 -0.5,-2.87 -1.79,-4.93c0,1.12 1.11,3.26 1.5,5.15q-0.61,0.48 -1.26,0.93a3.56,3.56 0 0 0 -0.38,-2.81c0.12,1.19 0.22,2.35 0.3,3.49l0.14,-0.1c2.05,0.51 4.37,1.91 5.61,1.94c-2.16,-1.52 -3.72,-2.6 -5.25,-2.2c0.44,-0.33 0.87,-0.67 1.29,-1c1.89,0.47 4,1.76 5.16,1.79c-2,-1.41 -3.45,-2.42 -4.87,-2c0.32,-0.27 0.63,-0.53 0.94,-0.81l0.51,-0.47c1.72,0.53 3.62,1.84 4.67,1.92c-1.82,-1.44 -3.12,-2.46 -4.49,-2.08c0.4,-0.37 0.79,-0.75 1.18,-1.14c1.57,0.49 3.32,1.69 4.28,1.77c-1.68,-1.33 -2.87,-2.27 -4.13,-1.92c0.33,-0.34 0.66,-0.67 1,-1l0.23,-0.25c1.4,0.55 2.87,1.77 3.76,1.93c-1.42,-1.36 -2.41,-2.31 -3.7,-2c0.3,-0.33 0.61,-0.67 0.9,-1c1.29,0.51 2.64,1.63 3.46,1.77c-1.3,-1.25 -2.21,-2.11 -3.4,-1.83c0.32,-0.36 0.63,-0.73 0.93,-1.1c1.12,0.48 2.27,1.56 3,1.73z"/>
     <path fill=" rgb(38, 50, 56)" class="animable" id="elasc0csser7p" d="m167.63,183.76c-0.72,0.32 -1.69,1.61 -2.76,2.43l-0.93,-0.46c1.09,-0.21 1.77,-1.29 2.71,-2.78c-0.79,0.34 -1.84,1.75 -3,2.64l-0.24,-0.13c-0.42,-0.21 -0.83,-0.44 -1.24,-0.66c1.13,-0.17 2,-1.3 3.19,-2.85c-0.88,0.3 -2.2,1.77 -3.55,2.65c-0.46,-0.26 -0.91,-0.52 -1.36,-0.8c1.34,-0.05 2.33,-1.33 3.7,-3.11c-1,0.34 -2.47,2 -4,2.94l-0.39,-0.24l-1.18,-0.79c1.44,0 2.59,-1.31 4.18,-3.15c-1.08,0.3 -2.79,2 -4.48,2.94q-0.65,-0.45 -1.26,-0.93c1.62,0.08 2.89,-1.37 4.66,-3.41c-1.19,0.32 -3.07,2.21 -4.92,3.21l-0.37,-0.3l0,0a0.27,0.27 0 0 0 -0.37,0a0.26,0.26 0 0 0 0,0.36l0.41,0.32c0.12,2.11 -0.55,4.74 -0.22,5.94c0.82,-2.52 1.41,-4.33 0.58,-5.67c0.44,0.32 0.89,0.63 1.34,0.93c0.1,2 -0.51,4.36 -0.2,5.46c0.76,-2.33 1.3,-4 0.51,-5.25l1,0.66l0.6,0.36c0,1.79 -0.7,4 -0.48,5c0.85,-2.16 1.45,-3.7 0.69,-4.89c0.47,0.27 1,0.53 1.43,0.79c0,1.65 -0.64,3.66 -0.44,4.61c0.78,-2 1.33,-3.41 0.63,-4.51l1.26,0.64l0.3,0.15c-0.11,1.49 -0.85,3.26 -0.74,4.15c0.89,-1.75 1.5,-3 0.82,-4.12l1.23,0.57c-0.11,1.38 -0.79,3 -0.68,3.83c0.81,-1.62 1.37,-2.74 0.75,-3.79c0.44,0.2 0.88,0.39 1.33,0.57c-0.18,1.24 -0.88,2.66 -0.83,3.41c0.83,-1.41 1.4,-2.39 0.92,-3.37l0.74,0.3l0.42,0.16c-0.16,1.15 -0.8,2.45 -0.76,3.14c0.76,-1.29 1.29,-2.2 0.85,-3.11c0.39,0.15 0.78,0.3 1.18,0.43c-0.08,1 -0.6,2.17 -0.52,2.8c0.62,-1.14 1,-1.94 0.58,-2.78l0.22,0.08c0.29,0.09 0.58,0.19 0.88,0.27a25,25 0 0 0 -0.48,2.55c0.56,-1 1,-1.76 0.55,-2.53a8.08,8.08 0 0 0 1.08,0.26a0.08,0.08 0 0 0 0.09,-0.06a0.09,0.09 0 0 0 -0.06,-0.1l0,0c-0.34,-0.07 -0.67,-0.16 -1,-0.26c0.7,-0.16 1.09,-0.82 1.62,-1.74c-0.5,0.22 -1.13,1.11 -1.85,1.67l-0.77,-0.26l-0.18,-0.07c0.83,-0.12 1.27,-0.87 1.88,-1.91c-0.57,0.25 -1.26,1.24 -2.07,1.84c-0.35,-0.13 -0.71,-0.26 -1.06,-0.41c0.94,-0.13 1.44,-1 2.13,-2.31c-0.61,0.31 -1.39,1.52 -2.28,2.25l-0.37,-0.15l-0.69,-0.3c1,-0.15 1.54,-1.13 2.29,-2.5c-0.66,0.33 -1.5,1.63 -2.46,2.43c-0.4,-0.17 -0.79,-0.35 -1.18,-0.54c1.13,-0.14 1.76,-1.13 2.62,-2.5z"/>
     <path fill=" rgb(38, 50, 56)" class="animable" id="elrh6rgo17b6b" d="m161.86,197.09a25.1,25.1 0 0 0 2.36,1.06c-0.87,-0.79 -1.49,-1.34 -2.32,-1.13c0.18,-0.32 0.35,-0.64 0.5,-1a0.08,0.08 0 1 0 -0.15,-0.07l0,0c-0.15,0.31 -0.31,0.61 -0.48,0.91c0,-0.72 -0.56,-1.26 -1.32,-2a19,19 0 0 0 1.19,2.19l-0.43,0.69l-0.11,0.16c0.07,-0.84 -0.55,-1.44 -1.42,-2.27a24.26,24.26 0 0 0 1.31,2.43l-0.64,0.95c0.09,-0.95 -0.68,-1.65 -1.76,-2.62c0.16,0.67 1.16,1.71 1.66,2.75l-0.23,0.32c-0.14,0.2 -0.3,0.4 -0.45,0.6c0.08,-1 -0.74,-1.76 -1.91,-2.8c0.18,0.72 1.25,1.84 1.8,3c-0.26,0.35 -0.53,0.69 -0.8,1c0,-1 -0.78,-1.86 -1.92,-3c0.15,0.77 1.19,2 1.73,3.24q-0.32,0.41 -0.66,0.81c0,-1.11 -0.85,-2 -2.08,-3.28c0.15,0.84 1.28,2.19 1.88,3.52l-0.18,0.21c-0.31,0.36 -0.62,0.71 -0.94,1.05c0.1,-1.13 -0.8,-2.25 -2,-3.76c0.08,0.92 1.21,2.55 1.75,4.07c-0.36,0.38 -0.72,0.76 -1.09,1.13c0.25,-1.31 -0.76,-2.57 -2.17,-4.31c0.1,1 1.38,2.86 1.94,4.54l-0.32,0.32l-1.05,1c0.34,-1.41 -0.68,-2.83 -2.09,-4.8c0,1.12 1.31,3.19 1.82,5c-0.39,0.35 -0.79,0.69 -1.2,1c0.45,-1.56 -0.66,-3.13 -2.24,-5.32c0,1.23 1.44,3.49 2,5.52l-0.38,0.3l0,0a0.26,0.26 0 0 0 0.32,0.41l0.4,-0.33c2.08,0.37 4.49,1.63 5.73,1.58c-2.26,-1.38 -3.88,-2.37 -5.38,-1.87c0.41,-0.35 0.82,-0.72 1.22,-1.09c1.91,0.35 4.12,1.5 5.26,1.46c-2.09,-1.28 -3.6,-2.19 -5,-1.71c0.3,-0.29 0.6,-0.57 0.89,-0.87l0.49,-0.5c1.74,0.42 3.72,1.6 4.77,1.62c-1.91,-1.32 -3.26,-2.26 -4.61,-1.79c0.38,-0.4 0.74,-0.8 1.1,-1.21c1.61,0.38 3.42,1.47 4.39,1.49c-1.76,-1.22 -3,-2.08 -4.24,-1.66c0.31,-0.35 0.61,-0.71 0.91,-1.07l0.21,-0.27c1.44,0.46 3,1.59 3.88,1.69c-1.51,-1.27 -2.55,-2.15 -3.82,-1.75l0.84,-1.06c1.32,0.42 2.73,1.45 3.56,1.54c-1.38,-1.16 -2.34,-2 -3.51,-1.61c0.29,-0.38 0.58,-0.77 0.86,-1.16c1.17,0.46 2.39,1.47 3.13,1.59c-1.18,-1.12 -2,-1.91 -3.07,-1.67c0.16,-0.21 0.31,-0.43 0.46,-0.64s0.17,-0.26 0.26,-0.38c1.07,0.42 2.19,1.35 2.88,1.46c-1.09,-1 -1.85,-1.76 -2.83,-1.54q0.36,-0.52 0.69,-1.05c1,0.32 2,1.09 2.6,1.16c-1,-0.87 -1.64,-1.48 -2.57,-1.21l0.13,-0.2l0.45,-0.77z"/>
     <path fill=" rgb(38, 50, 56)" class="animable" id="ela2x51pzrge" d="m167.92,208.25q0.32,-0.41 0.66,-0.78c-0.15,0.7 0.28,1.34 0.88,2.22a21.63,21.63 0 0 0 -0.71,-2.4l0.57,-0.58l0.13,-0.14c-0.24,0.81 0.24,1.53 0.92,2.52a24.21,24.21 0 0 0 -0.78,-2.65l0.83,-0.79c-0.28,0.91 0.32,1.75 1.18,2.93c0,-0.69 -0.78,-1.92 -1.06,-3l0.3,-0.26l0.56,-0.5c-0.29,1 0.36,1.88 1.28,3.15c0,-0.75 -0.83,-2.07 -1.14,-3.27c0.33,-0.29 0.66,-0.56 1,-0.84c-0.25,1 0.38,2 1.24,3.35c0,-0.79 -0.73,-2.23 -1,-3.54l0.82,-0.64c-0.28,1.07 0.41,2.15 1.35,3.64c0,-0.86 -0.8,-2.42 -1.1,-3.84l0.22,-0.17l1.13,-0.83c-0.33,1.09 0.31,2.36 1.2,4.1c0.1,-0.92 -0.65,-2.75 -0.86,-4.34c0.43,-0.3 0.86,-0.6 1.3,-0.89c-0.53,1.24 0.2,2.68 1.22,4.68c0.12,-1 -0.75,-3.09 -1,-4.85l0.38,-0.24c0.41,-0.25 0.82,-0.5 1.23,-0.73c-0.63,1.3 0.07,2.9 1,5.13c0.19,-1.11 -0.61,-3.39 -0.72,-5.31c0.45,-0.26 0.91,-0.51 1.38,-0.74c-0.77,1.43 0,3.2 1.08,5.67c0.21,-1.21 -0.68,-3.72 -0.79,-5.81l0.42,-0.21l0,0a0.25,0.25 0 0 0 0.12,-0.34a0.26,0.26 0 0 0 -0.35,-0.12l-0.46,0.24c-1.95,-0.8 -4.05,-2.54 -5.27,-2.75c1.92,1.82 3.3,3.13 4.87,3c-0.48,0.25 -0.95,0.53 -1.42,0.8c-1.8,-0.74 -3.72,-2.33 -4.84,-2.52c1.78,1.69 3.06,2.89 4.52,2.72l-1.05,0.66l-0.58,0.39c-1.62,-0.78 -3.31,-2.35 -4.33,-2.59c1.59,1.7 2.72,2.9 4.13,2.72c-0.45,0.31 -0.89,0.63 -1.33,1c-1.49,-0.71 -3,-2.15 -4,-2.37c1.47,1.56 2.51,2.66 3.8,2.51c-0.37,0.28 -0.75,0.56 -1.11,0.85l-0.27,0.22c-1.3,-0.75 -2.57,-2.18 -3.43,-2.46c1.2,1.56 2,2.63 3.37,2.51l-1.05,0.86c-1.2,-0.68 -2.37,-2 -3.16,-2.26c1.11,1.43 1.88,2.42 3.1,2.32c-0.37,0.31 -0.73,0.62 -1.09,1c-1,-0.7 -2,-1.94 -2.72,-2.21c0.91,1.35 1.56,2.29 2.65,2.28l-0.59,0.53l-0.33,0.32c-1,-0.65 -1.86,-1.79 -2.51,-2c0.85,1.24 1.44,2.11 2.45,2.1c-0.31,0.29 -0.61,0.58 -0.9,0.88c-0.88,-0.51 -1.7,-1.47 -2.3,-1.67c0.76,1 1.29,1.78 2.26,1.72l-0.16,0.16c-0.21,0.22 -0.43,0.45 -0.63,0.68c-0.81,-0.48 -1.55,-1.35 -2.09,-1.53c0.69,0.95 1.17,1.62 2,1.59a9.58,9.58 0 0 0 -0.7,0.85a0.08,0.08 0 0 0 0,0.12a0.07,0.07 0 0 0 0.11,0l0.17,-0.25z"/>
     <path fill=" rgb(38, 50, 56)" class="animable" id="elt3y1vdgzdi8" d="m156.2,222.5q0.6,-0.56 1.17,-1.14c1.58,0.49 3.32,1.69 4.29,1.77c-1.68,-1.33 -2.87,-2.27 -4.13,-1.93c0.33,-0.33 0.66,-0.67 1,-1l0.23,-0.25c1.4,0.55 2.86,1.77 3.76,1.93c-1.42,-1.37 -2.41,-2.31 -3.71,-2c0.31,-0.33 0.61,-0.67 0.91,-1c1.29,0.51 2.64,1.63 3.46,1.77c-1.31,-1.25 -2.22,-2.12 -3.4,-1.83l0.93,-1.1c1.14,0.53 2.29,1.61 3,1.78c-1.1,-1.19 -1.88,-2 -3,-1.86l0.5,-0.61l0.28,-0.36c1.05,0.49 2.11,1.48 2.79,1.64c-1,-1.11 -1.73,-1.88 -2.73,-1.72c0.26,-0.33 0.51,-0.66 0.75,-1c1,0.38 1.9,1.21 2.52,1.32c-0.9,-0.93 -1.53,-1.58 -2.48,-1.37l0.14,-0.19c0.17,-0.25 0.35,-0.5 0.52,-0.76a25.46,25.46 0 0 0 2.29,1.2c-0.82,-0.84 -1.4,-1.43 -2.25,-1.27a9.88,9.88 0 0 0 0.56,-0.95a0.08,0.08 0 0 0 -0.14,-0.08l0,0q-0.25,0.45 -0.54,0.87c0,-0.72 -0.47,-1.29 -1.19,-2.07a21.28,21.28 0 0 0 1,2.27l-0.47,0.66l-0.12,0.15c0.13,-0.83 -0.46,-1.47 -1.28,-2.36a25.82,25.82 0 0 0 1.16,2.51c-0.23,0.31 -0.46,0.61 -0.7,0.9c0.15,-0.94 -0.57,-1.68 -1.59,-2.72c0.12,0.68 1.05,1.78 1.49,2.85c-0.09,0.1 -0.17,0.21 -0.25,0.31l-0.49,0.57c0.14,-1 -0.63,-1.8 -1.73,-2.92c0.13,0.73 1.13,1.91 1.61,3.07l-0.86,1c0.1,-1 -0.67,-1.91 -1.73,-3.13c0.09,0.78 1,2.09 1.52,3.35l-0.71,0.76c0.11,-1.11 -0.72,-2.07 -1.87,-3.4c0.1,0.85 1.14,2.27 1.65,3.63l-0.19,0.2l-1,1c0.17,-1.13 -0.66,-2.3 -1.79,-3.88c0,0.92 1.05,2.62 1.49,4.17l-1.15,1.06c0.33,-1.3 -0.59,-2.61 -1.9,-4.44c0,1 1.2,2.94 1.66,4.65l-0.35,0.3c-0.36,0.31 -0.73,0.61 -1.1,0.9c0.43,-1.38 -0.5,-2.86 -1.79,-4.92c0,1.11 1.08,3.21 1.48,5.08l0.77,0c0.31,-0.26 0.62,-0.52 0.92,-0.79s0.35,-0.31 0.52,-0.47a32.47,32.47 0 0 1 3.46,1.54l0.76,0c-1.5,-1.19 -2.7,-2.04 -3.95,-1.69z"/>
     <path fill=" rgb(38, 50, 56)" class="animable" id="elwpegse0fm0s" d="m150.67,219.42c0,1 0.75,2.64 1.28,4.31l0.76,0.06c-0.09,-1.24 -0.94,-2.61 -2.04,-4.37z"/>
     <path fill=" rgb(38, 50, 56)" class="animable" id="el834898f4war" d="m154.64,223.93l1.51,0.09a2.71,2.71 0 0 0 -1.51,-0.09z"/>
     <path fill=" rgb(38, 50, 56)" class="animable" id="el7ty8ps7o9uv" d="m183.74,221.83a1.42,1.42 0 0 0 0.08,-0.18l-0.36,-0.13l-0.18,-0.06a1.54,1.54 0 0 0 0.76,-0.36c0.09,-0.26 0.18,-0.54 0.26,-0.85a10.93,10.93 0 0 1 -1.21,1.14l-1.09,-0.39c0.94,-0.14 1.44,-1 2.13,-2.32c-0.61,0.31 -1.39,1.52 -2.28,2.26l-0.37,-0.15l-0.69,-0.3c1,-0.16 1.54,-1.13 2.29,-2.51c-0.66,0.34 -1.5,1.64 -2.46,2.44l-1.18,-0.54c1,-0.21 1.62,-1.2 2.48,-2.57c-0.72,0.32 -1.69,1.62 -2.76,2.44l-0.93,-0.46c1.09,-0.22 1.77,-1.3 2.71,-2.79c-0.79,0.35 -1.84,1.76 -3,2.64l-0.24,-0.12l-1.24,-0.67c1.13,-0.17 2,-1.3 3.19,-2.84c-0.88,0.3 -2.2,1.77 -3.55,2.64c-0.46,-0.25 -0.91,-0.52 -1.36,-0.79c1.34,-0.06 2.33,-1.33 3.7,-3.11c-1,0.33 -2.47,2 -4,2.94l-0.39,-0.24c-0.4,-0.26 -0.79,-0.52 -1.18,-0.8c1.44,0 2.59,-1.31 4.18,-3.14c-1.08,0.3 -2.79,2 -4.48,2.94l-1.27,-0.94c1.63,0.08 2.9,-1.37 4.67,-3.41c-1.19,0.33 -3.07,2.21 -4.92,3.21l-0.37,-0.29l0,0a0.26,0.26 0 1 0 -0.32,0.41l0.41,0.31c0.12,2.11 -0.55,4.75 -0.22,5.94c0.82,-2.51 1.41,-4.32 0.58,-5.67c0.44,0.33 0.89,0.64 1.34,0.94c0.1,1.94 -0.51,4.36 -0.2,5.46c0.76,-2.34 1.3,-4 0.51,-5.25c0.35,0.22 0.69,0.45 1,0.66l0.6,0.36c0,1.79 -0.7,4 -0.48,5c0.85,-2.17 1.45,-3.7 0.69,-4.9c0.47,0.28 1,0.54 1.43,0.79c0,1.65 -0.64,3.67 -0.44,4.61c0.78,-2 1.33,-3.4 0.63,-4.5l1.26,0.63l0.3,0.15c-0.11,1.5 -0.85,3.26 -0.74,4.16c0.89,-1.76 1.5,-3 0.82,-4.12l1.23,0.57c-0.1,1.34 -0.74,2.89 -0.69,3.74l0.05,0c0.79,-1.56 1.32,-2.66 0.71,-3.7l1.33,0.58c-0.15,1 -0.63,2.12 -0.78,2.91l0.27,-0.05c0.64,-1.12 1,-2 0.6,-2.82l0.73,0.29l0.43,0.17a15.5,15.5 0 0 1 -0.56,2.08l0.46,-0.14a2.07,2.07 0 0 0 0.19,-1.91l1.18,0.43a6,6 0 0 1 -0.19,1a3.65,3.65 0 0 0 0.44,-0.26a1.4,1.4 0 0 0 -0.19,-0.73l0.22,0.07l0.46,0.1z"/>
     <path fill=" rgb(38, 50, 56)" class="animable" id="elnywi230vy6q" d="m145.26,201l0,0a0.27,0.27 0 0 0 0.18,-0.32a0.26,0.26 0 0 0 -0.32,-0.18l-0.5,0.15c-1.77,-1.15 -3.5,-3.25 -4.66,-3.69c1.54,2.15 2.65,3.69 4.23,3.82c-0.52,0.16 -1,0.34 -1.55,0.53c-1.2,-0.79 -2.38,-2 -3.35,-2.8c0,0.23 0,0.45 0,0.68c1,1.3 1.87,2.17 3,2.25c-0.39,0.14 -0.77,0.29 -1.15,0.45l-0.65,0.27a11.65,11.65 0 0 1 -1.21,-1.05c0,0.28 0,0.55 0,0.83a2.35,2.35 0 0 0 1,0.32l-1,0.47c0,0.14 0,0.28 0,0.42l1.35,-0.58c-0.75,1.12 -0.3,2.67 0.32,4.82c0.31,-1 -0.16,-3.17 0,-4.94l0.42,-0.17l1.34,-0.49c-0.86,1.17 -0.48,2.88 0.07,5.24c0.39,-1.05 0,-3.44 0.27,-5.35c0.5,-0.17 1,-0.33 1.5,-0.47c-1,1.27 -0.6,3.14 0,5.78c0.43,-1.15 0,-3.78 0.31,-5.86l0.4,-0.13z"/>
     <path fill=" rgb(38, 50, 56)" class="animable" id="elcedcfdv07kj" d="m139.08,207.23c0,0.12 0.06,0.23 0.1,0.36a9,9 0 0 0 0,-2.62c-0.03,0.77 -0.06,1.53 -0.1,2.26z"/>
     <path fill=" rgb(38, 50, 56)" class="animable" id="ellli76p8vlh8" d="m142.62,221.86l-0.37,-0.59c0.81,-1.6 2.43,-3.25 2.69,-4.27c-1.74,1.55 -3,2.65 -2.82,4.06c-0.3,-0.46 -0.61,-0.9 -0.92,-1.35c0.75,-1.47 2.23,-3 2.48,-3.91c-1.6,1.42 -2.73,2.43 -2.61,3.73l-0.83,-1.14l-0.2,-0.27c0.77,-1.28 2.23,-2.52 2.54,-3.37c-1.59,1.16 -2.69,2 -2.59,3.31l-0.84,-1.07c0.72,-1.18 2.06,-2.32 2.34,-3.1c-1.46,1.07 -2.47,1.81 -2.39,3l-0.62,-0.74l0,0.42l0.36,0.44a2.5,2.5 0 0 0 -0.38,-0.06c0,0.15 0,0.29 0,0.44l0.58,-0.14l0.63,0.84a2.19,2.19 0 0 0 -1.24,0l0,0.62a9.86,9.86 0 0 1 1.46,-0.39l0.16,0.21l0.81,1.16a3.6,3.6 0 0 0 -2.44,0.33c0,0.18 0,0.37 0,0.55a25.41,25.41 0 0 1 2.68,-0.54c0.29,0.44 0.57,0.88 0.84,1.33c-0.95,-0.44 -2,-0.11 -3.45,0.51c0,0.13 0,0.28 0,0.4l0.22,0a31.39,31.39 0 0 1 3.37,-0.67l0.24,0.39l0.43,0.77l0.56,0.07c-0.26,-0.27 -0.47,-0.62 -0.69,-0.97z"/>
     <path fill=" rgb(38, 50, 56)" class="animable" id="elipn7qmc98as" d="m138.71,212.78l0,0.47a3.52,3.52 0 0 0 0.7,-0.91l-0.7,0.44z"/>
     <path fill=" rgb(38, 50, 56)" class="animable" id="elcqzoz4jjxtg" d="m144.59,223.06l0.89,0.1a13.57,13.57 0 0 0 1.81,-3.26a15.23,15.23 0 0 0 -2.7,3.16z"/>
     <path fill=" rgb(38, 50, 56)" class="animable" id="elvu8nxvcxw2p" d="m143.58,223c0.83,-1.69 2.3,-3.43 2.51,-4.49c-1.74,1.74 -3,3 -2.84,4.45l0.33,0.04z"/>
     <path fill=" rgb(38, 50, 56)" class="animable" id="elb7eg213zdn" d="m138.58,214.57c0,0.27 0,0.53 -0.05,0.79a15.28,15.28 0 0 0 1.92,-2.21a8.87,8.87 0 0 0 -1.87,1.42z"/>
    </g>
   </g>
   <path fill=" rgb(255, 181, 115)" class="animable" id="elke7j2850yyk" d="m208,190.12l4.42,-4.69l6.13,8.63s-5.17,3.66 -10.12,3.52l-0.57,-1.27a6.94,6.94 0 0 1 0.14,-6.19z"/>
   <path fill=" rgb(255, 181, 115)" class="animable" id="elrtvzws8c67m" d="m219.55,185.89l1.73,3.25a3.06,3.06 0 0 1 -1.25,4.13l-1.44,0.79l-6.13,-8.63l3.51,-1a3.06,3.06 0 0 1 3.58,1.46z"/>
   <path fill=" rgb(255, 181, 115)" class="animable" id="elufgye2huf5" d="m184.68,173.29l0.38,1.91l0.42,2c0.3,1.35 0.59,2.71 0.93,4c0.65,2.68 1.43,5.31 2.26,7.85a53.61,53.61 0 0 0 3,7.11a19.4,19.4 0 0 0 3.66,5.1l-2.12,-1c-0.62,-0.08 -0.74,0.11 -0.41,0.1a4.48,4.48 0 0 0 1.51,-0.44a25.05,25.05 0 0 0 4.26,-2.49c1.49,-1 3,-2.18 4.49,-3.39s3,-2.5 4.46,-3.69l0.16,-0.12a3.52,3.52 0 0 1 5.36,4.33a53.75,53.75 0 0 1 -3.35,5.55a52.41,52.41 0 0 1 -4.08,5.16a30.32,30.32 0 0 1 -5.39,4.78a17.25,17.25 0 0 1 -4,2a12.12,12.12 0 0 1 -2.82,0.62a11.11,11.11 0 0 1 -3.56,-0.26a5.36,5.36 0 0 1 -1.89,-0.87l-0.24,-0.18a29.1,29.1 0 0 1 -7.61,-8.49q-1.37,-2.23 -2.46,-4.5t-2,-4.54a82.23,82.23 0 0 1 -2.94,-9.14c-0.39,-1.54 -0.76,-3.07 -1.07,-4.62c-0.15,-0.78 -0.31,-1.55 -0.44,-2.34s-0.25,-1.53 -0.38,-2.47a7,7 0 0 1 13.8,-2.3l0.07,0.33z"/>
   <path fill=" rgb(38, 50, 56)" class="animable" id="elv9a8m2mfmcd" d="m175.09,162.79c5.82,0.6 10.47,4.46 13.72,16.75c-2.5,3.46 -18.25,11.05 -18.25,11.05s-8.77,-29.17 4.53,-27.8z"/>
  </g>
  <rect rx="10" stroke="#000" transform="rotate(50 311.0000000000001,232.00000000000003) " id="svg_30" height="25.64515" width="348.04552" y="219.17743" x="136.97723" stroke-width="0" fill="#ff5656"/>
  <rect rx="10" stroke="#000" transform="rotate(-50 311,231.99999999999997) " id="svg_31" height="25.64515" width="348.04552" y="219.17743" x="136.97724" stroke-width="0" fill="#ff5656"/>
 </g>
</svg>